<?xml version="1.0" encoding="UTF-8" standalone="no"?>
<!DOCTYPE svg PUBLIC "-//W3C//DTD SVG 1.0//EN" "http://www.w3.org/TR/2001/PR-SVG-20010719/DTD/svg10.dtd">
<svg width="25cm" height="24cm" viewBox="113 -39 493 470" xmlns="http://www.w3.org/2000/svg" xmlns:xlink="http://www.w3.org/1999/xlink">
  <g>
    <line style="fill: none; fill-opacity:0; stroke-width: 1; stroke-dasharray: 8; stroke: #000000" x1="158.943" y1="-14.9698" x2="158.943" y2="17.2802"/>
    <line style="fill: none; fill-opacity:0; stroke-width: 1; stroke-dasharray: 8; stroke: #000000" x1="158.943" y1="177.28" x2="158.943" y2="247.302"/>
    <rect style="fill: #ffffff" x="151.943" y="17.2802" width="14" height="160"/>
    <rect style="fill: none; fill-opacity:0; stroke-width: 2; stroke: #000000" x="151.943" y="17.2802" width="14" height="160"/>
  </g>
  <g>
    <line style="fill: none; fill-opacity:0; stroke-width: 1; stroke-dasharray: 8; stroke: #000000" x1="286.268" y1="-19.4" x2="286.268" y2="39.1277"/>
    <line style="fill: none; fill-opacity:0; stroke-width: 1; stroke-dasharray: 8; stroke: #000000" x1="286.268" y1="59.1277" x2="286.268" y2="113.952"/>
    <rect style="fill: #ffffff" x="279.268" y="39.1277" width="14" height="20"/>
    <rect style="fill: none; fill-opacity:0; stroke-width: 2; stroke: #000000" x="279.268" y="39.1277" width="14" height="20"/>
  </g>
  <g>
    <rect style="fill: #ffffff" x="114" y="-37.4" width="89" height="36"/>
    <rect style="fill: none; fill-opacity:0; stroke-width: 2; stroke: #000000" x="114" y="-37.4" width="89" height="36"/>
    <text style="fill: #000000;text-anchor:middle;font-size:12.7998;font-family:sanserif;font-style:normal;font-weight:normal" x="158.5" y="-15.5">
      <tspan x="158.5" y="-15.5">MatrixSum</tspan>
    </text>
    <line style="fill: none; fill-opacity:0; stroke-width: 1; stroke: #000000" x1="124" y1="-12.5" x2="193" y2="-12.5"/>
  </g>
  <text style="fill: #000000;text-anchor:start;font-size:12.7998;font-family:sanserif;font-style:normal;font-weight:normal" x="158.5" y="-19.4">
    <tspan x="158.5" y="-19.4"></tspan>
  </text>
  <g>
    <rect style="fill: #ffffff" x="248" y="-37.4" width="77.7" height="36"/>
    <rect style="fill: none; fill-opacity:0; stroke-width: 2; stroke: #000000" x="248" y="-37.4" width="77.7" height="36"/>
    <text style="fill: #000000;text-anchor:middle;font-size:12.7998;font-family:sanserif;font-style:normal;font-weight:normal" x="286.85" y="-15.5">
      <tspan x="286.85" y="-15.5">array:left</tspan>
    </text>
    <line style="fill: none; fill-opacity:0; stroke-width: 1; stroke: #000000" x1="258" y1="-12.5" x2="315.7" y2="-12.5"/>
  </g>
  <g>
    <rect style="fill: #ffffff" x="369.9" y="-37.4" width="87" height="36"/>
    <rect style="fill: none; fill-opacity:0; stroke-width: 2; stroke: #000000" x="369.9" y="-37.4" width="87" height="36"/>
    <text style="fill: #000000;text-anchor:middle;font-size:12.7998;font-family:sanserif;font-style:normal;font-weight:normal" x="413.4" y="-15.5">
      <tspan x="413.4" y="-15.5">array:right</tspan>
    </text>
    <line style="fill: none; fill-opacity:0; stroke-width: 1; stroke: #000000" x1="379.9" y1="-12.5" x2="446.9" y2="-12.5"/>
  </g>
  <text style="fill: #000000;text-anchor:start;font-size:12.7998;font-family:sanserif;font-style:normal;font-weight:normal" x="468" y="-26.5">
    <tspan x="468" y="-26.5"></tspan>
  </text>
  <g>
    <line style="fill: none; fill-opacity:0; stroke-width: 2; stroke: #000000" x1="528.59" y1="69.0554" x2="293.268" y2="39.1277"/>
    <polygon style="fill: #000000" points="527.959,74.0154 544.462,71.074 529.221,64.0953 "/>
    <polygon style="fill: none; fill-opacity:0; stroke-width: 2; stroke: #000000" points="527.959,74.0154 544.462,71.074 529.221,64.0953 "/>
    <text style="fill: #000000;text-anchor:middle;font-size:12.7998;font-family:sanserif;font-style:normal;font-weight:normal" x="463.347" y="76.601">item0</text>
  </g>
  <g>
    <line style="fill: none; fill-opacity:0; stroke-width: 1; stroke-dasharray: 8; stroke: #000000" x1="158.943" y1="177.28" x2="158.943" y2="300.938"/>
    <line style="fill: none; fill-opacity:0; stroke-width: 1; stroke-dasharray: 8; stroke: #000000" x1="158.943" y1="390.938" x2="158.943" y2="430.493"/>
    <rect style="fill: #ffffff" x="151.943" y="300.938" width="14" height="90"/>
    <rect style="fill: none; fill-opacity:0; stroke-width: 2; stroke: #000000" x="151.943" y="300.938" width="14" height="90"/>
  </g>
  <text style="fill: #000000;text-anchor:start;font-size:15.8044;font-family:sanserif;font-style:normal;font-weight:700" x="329.272" y="300.465">
    <tspan x="329.272" y="300.465">add[0:2]?</tspan>
  </text>
  <g>
    <line style="fill: none; fill-opacity:0; stroke-width: 1; stroke-dasharray: 8; stroke: #000000" x1="286.268" y1="59.1277" x2="286.268" y2="69.428"/>
    <line style="fill: none; fill-opacity:0; stroke-width: 1; stroke-dasharray: 8; stroke: #000000" x1="286.268" y1="89.428" x2="286.268" y2="119.268"/>
    <rect style="fill: #ffffff" x="279.268" y="69.428" width="14" height="20"/>
    <rect style="fill: none; fill-opacity:0; stroke-width: 2; stroke: #000000" x="279.268" y="69.428" width="14" height="20"/>
  </g>
  <g>
    <rect style="fill: #ffffff" x="500.279" y="-36.8979" width="104.35" height="36"/>
    <rect style="fill: none; fill-opacity:0; stroke-width: 2; stroke: #000000" x="500.279" y="-36.8979" width="104.35" height="36"/>
    <text style="fill: #000000;text-anchor:middle;font-size:12.7998;font-family:sanserif;font-style:normal;font-weight:normal" x="552.454" y="-14.9979">
      <tspan x="552.454" y="-14.9979">register:XMM</tspan>
    </text>
    <line style="fill: none; fill-opacity:0; stroke-width: 1; stroke: #000000" x1="510.279" y1="-11.9979" x2="594.629" y2="-11.9979"/>
  </g>
  <g>
    <line style="fill: none; fill-opacity:0; stroke-width: 1; stroke-dasharray: 8; stroke: #000000" x1="552.454" y1="-18.8979" x2="552.454" y2="71.2001"/>
    <line style="fill: none; fill-opacity:0; stroke-width: 1; stroke-dasharray: 8; stroke: #000000" x1="552.454" y1="251.2" x2="552.454" y2="276.099"/>
    <rect style="fill: #ffffff" x="545.454" y="71.2001" width="14" height="180"/>
    <rect style="fill: none; fill-opacity:0; stroke-width: 2; stroke: #000000" x="545.454" y="71.2001" width="14" height="180"/>
  </g>
  <g>
    <line style="fill: none; fill-opacity:0; stroke-width: 2; stroke: #000000" x1="528.587" y1="99.0751" x2="293.268" y2="69.428"/>
    <polygon style="fill: #000000" points="527.962,104.036 544.462,101.075 529.212,94.1144 "/>
    <polygon style="fill: none; fill-opacity:0; stroke-width: 2; stroke: #000000" points="527.962,104.036 544.462,101.075 529.212,94.1144 "/>
    <text style="fill: #000000;text-anchor:middle;font-size:12.7998;font-family:sanserif;font-style:normal;font-weight:normal" x="463.347" y="106.751">item1</text>
  </g>
  <g>
    <line style="fill: none; fill-opacity:0; stroke-width: 1; stroke-dasharray: 8; stroke: #000000" x1="286.268" y1="89.428" x2="286.268" y2="99.7283"/>
    <line style="fill: none; fill-opacity:0; stroke-width: 1; stroke-dasharray: 8; stroke: #000000" x1="286.268" y1="119.728" x2="286.268" y2="425.841"/>
    <rect style="fill: #ffffff" x="279.268" y="99.7283" width="14" height="20"/>
    <rect style="fill: none; fill-opacity:0; stroke-width: 2; stroke: #000000" x="279.268" y="99.7283" width="14" height="20"/>
  </g>
  <g>
    <line style="fill: none; fill-opacity:0; stroke-width: 2; stroke: #000000" x1="528.585" y1="129.095" x2="293.268" y2="99.7283"/>
    <polygon style="fill: #000000" points="527.966,134.056 544.462,131.076 529.204,124.133 "/>
    <polygon style="fill: none; fill-opacity:0; stroke-width: 2; stroke: #000000" points="527.966,134.056 544.462,131.076 529.204,124.133 "/>
    <text style="fill: #000000;text-anchor:middle;font-size:12.7998;font-family:sanserif;font-style:normal;font-weight:normal" x="463.347" y="136.901">item2</text>
  </g>
  <g>
    <line style="fill: none; fill-opacity:0; stroke-width: 1; stroke-dasharray: 8; stroke: #000000" x1="413.4" y1="-19.4" x2="413.4" y2="159.298"/>
    <line style="fill: none; fill-opacity:0; stroke-width: 1; stroke-dasharray: 8; stroke: #000000" x1="413.4" y1="179.298" x2="413.4" y2="329.926"/>
    <rect style="fill: #ffffff" x="406.4" y="159.298" width="14" height="20"/>
    <rect style="fill: none; fill-opacity:0; stroke-width: 2; stroke: #000000" x="406.4" y="159.298" width="14" height="20"/>
  </g>
  <g>
    <line style="fill: none; fill-opacity:0; stroke-width: 2; stroke: #000000" x1="528.709" y1="178.267" x2="420.4" y2="159.298"/>
    <polygon style="fill: #000000" points="527.846,183.192 544.469,181.028 529.571,173.342 "/>
    <polygon style="fill: none; fill-opacity:0; stroke-width: 2; stroke: #000000" points="527.846,183.192 544.469,181.028 529.571,173.342 "/>
    <text style="fill: #000000;text-anchor:middle;font-size:12.7998;font-family:sanserif;font-style:normal;font-weight:normal" x="484.33" y="187.273">item0</text>
  </g>
  <g>
    <line style="fill: none; fill-opacity:0; stroke-width: 1; stroke-dasharray: 8; stroke: #000000" x1="413.4" y1="179.298" x2="413.4" y2="189.598"/>
    <line style="fill: none; fill-opacity:0; stroke-width: 1; stroke-dasharray: 8; stroke: #000000" x1="413.4" y1="209.598" x2="413.4" y2="239.439"/>
    <rect style="fill: #ffffff" x="406.4" y="189.598" width="14" height="20"/>
    <rect style="fill: none; fill-opacity:0; stroke-width: 2; stroke: #000000" x="406.4" y="189.598" width="14" height="20"/>
  </g>
  <g>
    <line style="fill: none; fill-opacity:0; stroke-width: 2; stroke: #000000" x1="528.702" y1="208.306" x2="420.4" y2="189.598"/>
    <polygon style="fill: #000000" points="527.851,213.233 544.469,211.03 529.553,203.379 "/>
    <polygon style="fill: none; fill-opacity:0; stroke-width: 2; stroke: #000000" points="527.851,213.233 544.469,211.03 529.553,203.379 "/>
    <text style="fill: #000000;text-anchor:middle;font-size:12.7998;font-family:sanserif;font-style:normal;font-weight:normal" x="486.102" y="219.17">item1</text>
  </g>
  <g>
    <line style="fill: none; fill-opacity:0; stroke-width: 1; stroke-dasharray: 8; stroke: #000000" x1="413.4" y1="209.598" x2="413.4" y2="219.899"/>
    <line style="fill: none; fill-opacity:0; stroke-width: 1; stroke-dasharray: 8; stroke: #000000" x1="413.4" y1="239.899" x2="413.4" y2="429.385"/>
    <rect style="fill: #ffffff" x="406.4" y="219.899" width="14" height="20"/>
    <rect style="fill: none; fill-opacity:0; stroke-width: 2; stroke: #000000" x="406.4" y="219.899" width="14" height="20"/>
  </g>
  <g>
    <line style="fill: none; fill-opacity:0; stroke-width: 2; stroke: #000000" x1="528.695" y1="238.346" x2="420.4" y2="219.899"/>
    <polygon style="fill: #000000" points="527.856,243.275 544.468,241.032 529.535,233.416 "/>
    <polygon style="fill: none; fill-opacity:0; stroke-width: 2; stroke: #000000" points="527.856,243.275 544.468,241.032 529.535,233.416 "/>
    <text style="fill: #000000;text-anchor:middle;font-size:12.7998;font-family:sanserif;font-style:normal;font-weight:normal" x="486.102" y="250.182">item2</text>
  </g>
  <text style="fill: #000000;text-anchor:start;font-size:12.7998;font-family:sanserif;font-style:normal;font-weight:normal" x="204.339" y="257.492">
    <tspan x="204.339" y="257.492"></tspan>
  </text>
  <g>
    <line style="fill: none; fill-opacity:0; stroke-width: 1; stroke-dasharray: 8; stroke: #000000" x1="552.454" y1="251.2" x2="552.454" y2="316.729"/>
    <line style="fill: none; fill-opacity:0; stroke-width: 1; stroke-dasharray: 8; stroke: #000000" x1="552.454" y1="356.729" x2="552.454" y2="426.284"/>
    <rect style="fill: #ffffff" x="545.454" y="316.729" width="14" height="40"/>
    <rect style="fill: none; fill-opacity:0; stroke-width: 2; stroke: #000000" x="545.454" y="316.729" width="14" height="40"/>
  </g>
  <g>
    <line style="fill: none; fill-opacity:0; stroke-width: 2; stroke: #000000" x1="528.469" y1="316.023" x2="165.943" y2="300.938"/>
    <polygon style="fill: #000000" points="528.261,321.018 544.455,316.688 528.677,311.027 "/>
    <polygon style="fill: none; fill-opacity:0; stroke-width: 2; stroke: #000000" points="528.261,321.018 544.455,316.688 528.677,311.027 "/>
  </g>
  <g>
    <line style="fill: none; fill-opacity:0; stroke-width: 2; stroke: #000000" x1="182.874" y1="389.412" x2="545.454" y2="356.729"/>
    <polygon style="fill: #000000" points="182.426,384.432 166.939,390.848 183.323,394.392 "/>
    <polygon style="fill: none; fill-opacity:0; stroke-width: 2; stroke: #000000" points="182.426,384.432 166.939,390.848 183.323,394.392 "/>
  </g>
  <text style="fill: #000000;text-anchor:start;font-size:15.8044;font-family:sanserif;font-style:normal;font-weight:700" x="330.069" y="405.67">
    <tspan x="330.069" y="405.67">add[0:2]</tspan>
  </text>
  <text style="fill: #000000;text-anchor:start;font-size:12.7998;font-family:sanserif;font-style:normal;font-weight:normal" x="378.004" y="296.478">
    <tspan x="378.004" y="296.478"></tspan>
  </text>
</svg>
