<?xml version="1.0" encoding="UTF-8" standalone="no"?>
<!DOCTYPE svg PUBLIC "-//W3C//DTD SVG 1.0//EN" "http://www.w3.org/TR/2001/PR-SVG-20010719/DTD/svg10.dtd">
<svg width="18cm" height="27cm" viewBox="113 -39 345 523" xmlns="http://www.w3.org/2000/svg" xmlns:xlink="http://www.w3.org/1999/xlink">
  <g>
    <line style="fill: none; fill-opacity:0; stroke-width: 1; stroke-dasharray: 8; stroke: #000000" x1="158.943" y1="-14.9698" x2="158.943" y2="17.2802"/>
    <line style="fill: none; fill-opacity:0; stroke-width: 1; stroke-dasharray: 8; stroke: #000000" x1="158.943" y1="177.28" x2="158.943" y2="247.302"/>
    <rect style="fill: #ffffff" x="151.943" y="17.2802" width="14" height="160"/>
    <rect style="fill: none; fill-opacity:0; stroke-width: 2; stroke: #000000" x="151.943" y="17.2802" width="14" height="160"/>
  </g>
  <g>
    <line style="fill: none; fill-opacity:0; stroke-width: 1; stroke-dasharray: 8; stroke: #000000" x1="286.268" y1="-19.4" x2="286.268" y2="39.1277"/>
    <line style="fill: none; fill-opacity:0; stroke-width: 1; stroke-dasharray: 8; stroke: #000000" x1="286.268" y1="59.1277" x2="286.268" y2="339.008"/>
    <rect style="fill: #ffffff" x="279.268" y="39.1277" width="14" height="20"/>
    <rect style="fill: none; fill-opacity:0; stroke-width: 2; stroke: #000000" x="279.268" y="39.1277" width="14" height="20"/>
  </g>
  <g>
    <line style="fill: none; fill-opacity:0; stroke-width: 1; stroke-dasharray: 8; stroke: #000000" x1="413.4" y1="-19.4" x2="413.4" y2="130.28"/>
    <line style="fill: none; fill-opacity:0; stroke-width: 1; stroke-dasharray: 8; stroke: #000000" x1="413.4" y1="150.28" x2="413.4" y2="247.524"/>
    <rect style="fill: #ffffff" x="406.4" y="130.28" width="14" height="20"/>
    <rect style="fill: none; fill-opacity:0; stroke-width: 2; stroke: #000000" x="406.4" y="130.28" width="14" height="20"/>
  </g>
  <g>
    <rect style="fill: #ffffff" x="114" y="-37.4" width="89" height="36"/>
    <rect style="fill: none; fill-opacity:0; stroke-width: 2; stroke: #000000" x="114" y="-37.4" width="89" height="36"/>
    <text style="fill: #000000;text-anchor:middle;font-size:12.8;font-family:sanserif;font-style:normal;font-weight:normal" x="158.5" y="-15.5">
      <tspan x="158.5" y="-15.5">MatrixSum</tspan>
    </text>
    <line style="fill: none; fill-opacity:0; stroke-width: 1; stroke: #000000" x1="124" y1="-12.5" x2="193" y2="-12.5"/>
  </g>
  <text style="fill: #000000;text-anchor:start;font-size:12.8;font-family:sanserif;font-style:normal;font-weight:normal" x="158.5" y="-19.4">
    <tspan x="158.5" y="-19.4"></tspan>
  </text>
  <g>
    <rect style="fill: #ffffff" x="248" y="-37.4" width="77.7" height="36"/>
    <rect style="fill: none; fill-opacity:0; stroke-width: 2; stroke: #000000" x="248" y="-37.4" width="77.7" height="36"/>
    <text style="fill: #000000;text-anchor:middle;font-size:12.8;font-family:sanserif;font-style:normal;font-weight:normal" x="286.85" y="-15.5">
      <tspan x="286.85" y="-15.5">array:left</tspan>
    </text>
    <line style="fill: none; fill-opacity:0; stroke-width: 1; stroke: #000000" x1="258" y1="-12.5" x2="315.7" y2="-12.5"/>
  </g>
  <g>
    <rect style="fill: #ffffff" x="369.9" y="-37.4" width="87" height="36"/>
    <rect style="fill: none; fill-opacity:0; stroke-width: 2; stroke: #000000" x="369.9" y="-37.4" width="87" height="36"/>
    <text style="fill: #000000;text-anchor:middle;font-size:12.8;font-family:sanserif;font-style:normal;font-weight:normal" x="413.4" y="-15.5">
      <tspan x="413.4" y="-15.5">array:right</tspan>
    </text>
    <line style="fill: none; fill-opacity:0; stroke-width: 1; stroke: #000000" x1="379.9" y1="-12.5" x2="446.9" y2="-12.5"/>
  </g>
  <text style="fill: #000000;text-anchor:start;font-size:12.8;font-family:sanserif;font-style:normal;font-weight:normal" x="468" y="-26.5">
    <tspan x="468" y="-26.5"></tspan>
  </text>
  <g>
    <line style="fill: none; fill-opacity:0; stroke-width: 2; stroke: #000000" x1="262.575" y1="35.9097" x2="165.943" y2="17.2802"/>
    <polygon style="fill: #000000" points="261.629,40.8193 278.286,38.9385 263.522,31.0001 "/>
    <polygon style="fill: none; fill-opacity:0; stroke-width: 2; stroke: #000000" points="261.629,40.8193 278.286,38.9385 263.522,31.0001 "/>
    <text style="fill: #000000;text-anchor:middle;font-size:12.7998;font-family:sanserif;font-style:normal;font-weight:normal" x="213.794" y="40.6958">item0?</text>
  </g>
  <g>
    <line style="fill: none; fill-opacity:0; stroke-width: 2; stroke: #000000" x1="182.054" y1="91.8561" x2="279.268" y2="59.1278"/>
    <polygon style="fill: #000000" points="180.459,87.1174 166.891,96.9611 183.65,96.5947 "/>
    <polygon style="fill: none; fill-opacity:0; stroke-width: 2; stroke: #000000" points="180.459,87.1174 166.891,96.9611 183.65,96.5947 "/>
    <text style="fill: #000000;text-anchor:middle;font-size:12.7998;font-family:sanserif;font-style:normal;font-weight:normal" x="218.446" y="95.1294">item0</text>
  </g>
  <g>
    <line style="fill: none; fill-opacity:0; stroke-width: 2; stroke: #000000" x1="389.558" y1="127.969" x2="165.943" y2="97.2802"/>
    <polygon style="fill: #000000" points="388.878,132.922 405.409,130.144 390.238,123.015 "/>
    <polygon style="fill: none; fill-opacity:0; stroke-width: 2; stroke: #000000" points="388.878,132.922 405.409,130.144 390.238,123.015 "/>
    <text style="fill: #000000;text-anchor:middle;font-size:12.7998;font-family:sanserif;font-style:normal;font-weight:normal" x="330.158" y="135.217">item0?</text>
  </g>
  <g>
    <line style="fill: none; fill-opacity:0; stroke-width: 2; stroke: #000000" x1="182.837" y1="175.383" x2="406.4" y2="150.28"/>
    <polygon style="fill: #000000" points="182.279,170.414 166.937,177.169 183.395,180.352 "/>
    <polygon style="fill: none; fill-opacity:0; stroke-width: 2; stroke: #000000" points="182.279,170.414 166.937,177.169 183.395,180.352 "/>
    <text style="fill: #000000;text-anchor:middle;font-size:12.7998;font-family:sanserif;font-style:normal;font-weight:normal" x="325.728" y="176.64">item0</text>
  </g>
  <g>
    <line style="fill: none; fill-opacity:0; stroke-width: 1; stroke-dasharray: 8; stroke: #000000" x1="158.943" y1="177.28" x2="158.943" y2="201.671"/>
    <line style="fill: none; fill-opacity:0; stroke-width: 1; stroke-dasharray: 8; stroke: #000000" x1="158.943" y1="261.671" x2="158.943" y2="327.712"/>
    <rect style="fill: #ffffff" x="151.943" y="201.671" width="14" height="60"/>
    <rect style="fill: none; fill-opacity:0; stroke-width: 2; stroke: #000000" x="151.943" y="201.671" width="14" height="60"/>
  </g>
  <text style="fill: #000000;text-anchor:start;font-size:15.8044;font-family:sanserif;font-style:normal;font-weight:700" x="175.099" y="262.366">
    <tspan x="175.099" y="262.366">add</tspan>
  </text>
  <g>
    <line style="fill: none; fill-opacity:0; stroke-width: 1; stroke-dasharray: 8; stroke: #000000" x1="158.943" y1="261.67" x2="158.943" y2="289.278"/>
    <line style="fill: none; fill-opacity:0; stroke-width: 1; stroke-dasharray: 8; stroke: #000000" x1="158.943" y1="449.278" x2="158.943" y2="483.212"/>
    <rect style="fill: #ffffff" x="151.943" y="289.278" width="14" height="160"/>
    <rect style="fill: none; fill-opacity:0; stroke-width: 2; stroke: #000000" x="151.943" y="289.278" width="14" height="160"/>
  </g>
  <g>
    <line style="fill: none; fill-opacity:0; stroke-width: 1; stroke-dasharray: 8; stroke: #000000" x1="286.268" y1="59.1278" x2="286.268" y2="318.629"/>
    <line style="fill: none; fill-opacity:0; stroke-width: 1; stroke-dasharray: 8; stroke: #000000" x1="286.268" y1="338.629" x2="286.268" y2="476.124"/>
    <rect style="fill: #ffffff" x="279.268" y="318.629" width="14" height="20"/>
    <rect style="fill: none; fill-opacity:0; stroke-width: 2; stroke: #000000" x="279.268" y="318.629" width="14" height="20"/>
  </g>
  <g>
    <line style="fill: none; fill-opacity:0; stroke-width: 1; stroke-dasharray: 8; stroke: #000000" x1="413.4" y1="150.28" x2="413.4" y2="398.595"/>
    <line style="fill: none; fill-opacity:0; stroke-width: 1; stroke-dasharray: 8; stroke: #000000" x1="413.4" y1="418.595" x2="413.4" y2="476.124"/>
    <rect style="fill: #ffffff" x="406.4" y="398.595" width="14" height="20"/>
    <rect style="fill: none; fill-opacity:0; stroke-width: 2; stroke: #000000" x="406.4" y="398.595" width="14" height="20"/>
  </g>
  <g>
    <line style="fill: none; fill-opacity:0; stroke-width: 2; stroke: #000000" x1="262.811" y1="314.368" x2="165.943" y2="289.278"/>
    <polygon style="fill: #000000" points="261.557,319.208 278.3,318.379 264.065,309.527 "/>
    <polygon style="fill: none; fill-opacity:0; stroke-width: 2; stroke: #000000" points="261.557,319.208 278.3,318.379 264.065,309.527 "/>
    <text style="fill: #000000;text-anchor:middle;font-size:12.7998;font-family:sanserif;font-style:normal;font-weight:normal" x="213.794" y="316.446">item1?</text>
  </g>
  <g>
    <line style="fill: none; fill-opacity:0; stroke-width: 2; stroke: #000000" x1="182.353" y1="364.84" x2="279.268" y2="338.63"/>
    <polygon style="fill: #000000" points="181.048,360.013 166.908,369.017 183.659,369.667 "/>
    <polygon style="fill: none; fill-opacity:0; stroke-width: 2; stroke: #000000" points="181.048,360.013 166.908,369.017 183.659,369.667 "/>
    <text style="fill: #000000;text-anchor:middle;font-size:12.7998;font-family:sanserif;font-style:normal;font-weight:normal" x="218.446" y="370.88">item1</text>
  </g>
  <g>
    <line style="fill: none; fill-opacity:0; stroke-width: 2; stroke: #000000" x1="389.525" y1="396.538" x2="165.943" y2="369.278"/>
    <polygon style="fill: #000000" points="388.92,401.502 405.407,398.475 390.13,391.575 "/>
    <polygon style="fill: none; fill-opacity:0; stroke-width: 2; stroke: #000000" points="388.92,401.502 405.407,398.475 390.13,391.575 "/>
    <text style="fill: #000000;text-anchor:middle;font-size:12.7998;font-family:sanserif;font-style:normal;font-weight:normal" x="330.158" y="405.374">item1?</text>
  </g>
  <g>
    <line style="fill: none; fill-opacity:0; stroke-width: 2; stroke: #000000" x1="182.806" y1="447.126" x2="406.4" y2="418.596"/>
    <polygon style="fill: #000000" points="182.173,442.166 166.935,449.151 183.439,452.086 "/>
    <polygon style="fill: none; fill-opacity:0; stroke-width: 2; stroke: #000000" points="182.173,442.166 166.935,449.151 183.439,452.086 "/>
    <text style="fill: #000000;text-anchor:middle;font-size:12.7998;font-family:sanserif;font-style:normal;font-weight:normal" x="325.728" y="446.796">item1</text>
  </g>
</svg>
