<?xml version="1.0"?>
<svg xmlns:rdf="http://www.w3.org/1999/02/22-rdf-syntax-ns#" xmlns="http://www.w3.org/2000/svg" xmlns:cc="http://web.resource.org/cc/" xmlns:xlink="http://www.w3.org/1999/xlink" xmlns:dc="http://purl.org/dc/elements/1.1/" xmlns:svg="http://www.w3.org/2000/svg" id="Layer_1" xml:space="preserve" overflow="visible" viewBox="0 0 381.356 660.174" version="1.1" enable-background="new 0 0 381.356 660.174">
<g clip-rule="evenodd" fill-rule="evenodd">
	<path d="m160.8 3.92c1.479-0.745 1.479 2.267 0 1.521v-1.521z"/>
	<path d="m60.397 62.237h1.014v1.014h-1.014v-1.014z"/>
	<path d="m227.74 116.5c-3.196-0.692-6.156-1.62-6.593-5.071 3.412 0.307 6.062 1.375 7.1 4.057l-0.761 0.254 0.25 0.76z"/>
	<path d="m215.06 97.735c0.818-0.143 0.873 0.479 1.521 0.507 0.829 1.597 1.199 6.42-1.521 6.085-1.48-1.52-1.12-4.953 0-6.595z"/>
	<path d="m228.76 100.78c-0.989 2.815-4.631 5.394-7.606 4.564 0.65-3.15 4.83-5.2 7.61-4.56z"/>
	<path d="m202.89 100.78c3.598 0.459 6.912 1.202 7.1 5.071-3.28-0.78-6.36-1.75-7.1-5.07z"/>
	<path d="m207.96 108.38c-1.107 1.946-7.705 1.071-9.635 0.507 0.64-2.54 8.25-1.92 9.64-0.51z"/>
	<path d="m218.11 108.38c0.274 2.488-3.352 1.378-4.563 1.014v-1.521c0.81-0.66 4.46-1.09 4.56 0.51z"/>
	<path d="m233.32 108.38c-1.107 1.946-7.705 1.071-9.636 0.507 0.74-2.65 8.08-1.75 9.64-0.51z"/>
	<path d="m209.99 111.43c-0.212 3.845-3.188 4.926-7.1 5.071 0.67-3.39 3.82-4.3 7.1-5.07z"/>
	<path d="m215.06 112.44c2.965-0.091 1.805 3.942 2.028 6.592-4.59 1.03-2.93-4.8-2.03-6.59z"/>
	<path d="m39.099 183.44c1.018-0.172 1.586 0.104 1.521 1.014h-1.521v-1.01z"/>
	<path d="m311.42 65.28v5.071l-1.268-0.253-0.253 1.268h-1.015l-0.615-0.688-0.906 0.181c0.742-2.131 1.281-4.466 2.536-6.085l0.591 0.761 0.94-0.255z"/>
	<path d="m323.48 125.81l0.615-0.688c1.813 1.061 1.265 4.483 2.029 6.592l-1.142-0.063-0.38 1.078h-0.508l-0.95-0.634-0.063 1.141h-1.015l0.254-0.761-0.254-0.761c-0.206-2.625 1.586-4.032 0.507-6.085l0.89 0.17z"/>
	<path d="m322.42 154.38l0.659 0.659c0.168 2.027-0.904 2.814-0.508 5.071l-0.93-0.253-0.591 0.761c-2.347 0.527-1.61 4.137-2.536 6.085l-0.507-0.254-0.507-0.253c-0.819-0.143-0.873 0.479-1.521 0.507l-0.761-0.592-0.254-0.93c2.178-4.077 4.722-7.788 7.1-11.664l0.36 0.85z"/>
	<path d="m291.89 341.4l0.761-0.253c1.249 3.314 2.94 6.188 5.071 8.621l-0.254 0.76 0.254 0.761h-0.507l-1.269-1.268-0.253 1.775h-1.015l0.254-0.93-0.761-0.592c-0.148-1.543-2.682-0.699-3.043-2.028l0.761-0.254-0.253-0.761c0.589 0.083 0.901-0.111 1.014-0.507-0.916-0.261-3.114-3.524-3.55-1.015l-0.761-0.253-0.253 0.761c-3.322-1.074-5.703-3.087-8.621-4.564l0.761-0.254 0.253-0.76c2.668-2.066 3.89-5.577 5.071-9.128l0.592 0.76 0.93-0.253c0.423 3.466-1.399 4.686-1.521 7.606 1.594 0.454 3.502 3.233 5.578 1.521l0.76 0.23z"/>
	<path d="m24.815 385.01l-0.93 0.254v-9.128l0.93 0.254 0.592-0.761c1.232 0.796-0.21 4.267 1.521 4.563l0.254 0.761 0.76-0.254c-0.396 2.257 0.676 3.044 0.507 5.071l-0.93-0.253-0.592 0.761c-0.958-0.38-0.352-1.514-1.521-0.508l-0.591-0.75z"/>
	<path d="m10.616 127.91l-0.93 0.253c-0.72-2.998-0.589-6.848-1.014-10.142l0.93 0.253 0.592-0.76c0.73 0.115 0.177 1.513 1.014 1.521l-0.253 0.507 0.253 0.507c-0.263 3.644 1.753 5.008 2.028 8.113l-0.93-0.253-0.591 0.761h-0.507l-0.592-0.76z"/>
	<path d="m28.449 149.46c0.394 0.451 0.545 1.145 0.507 2.028l-0.761-0.253-0.254 0.76c-0.064-0.056-0.469 0.071-0.507 0 2.731 5.084 8.217 10.441 12.678 14.707l-0.254 0.76 0.761 0.254c1.397 0.97 2.58 2.153 3.55 3.55h-0.507v1.014l-0.93-0.254-0.592 0.761c-7.332-5.684-12.958-13.073-18.256-20.792l1.195-0.688 0.326-1.34c0.589 0.083 0.902-0.112 1.014-0.507h2.03z"/>
	<path d="m14.757 132.22c1.646 1.227 1.916 3.831 3.042 5.578l-0.253 0.761 0.761-0.253v0.507l-1.099-0.084-0.93 0.592c-1.044-0.14-0.478-1.889-1.521-2.029l0.253-1.268-1.268 0.253c-0.162-1.19-0.801-1.903-0.507-3.55l0.93 0.254 0.592-0.76z"/>
	<path d="m309.89 170.25c0.283-0.73 0.791-1.237 1.521-1.521l0.254 0.761 0.761-0.254-0.507 1.014 1.014 0.507c-0.225 0.452-0.445 0.907-1.014 1.014l-0.508-1.014-1.014 0.507 0.254-0.761-0.75-0.26z"/>
	<path d="m200.36 199.16c8.435-0.057 17.27 1.292 25.354 0l-0.253 0.761 0.761 0.253v0.507l-0.761 0.253 0.253 0.761c-8.13 0.922-17.412 0.264-25.354-0.507l0.253-0.761-0.761 0.254v-0.507l0.761-0.253-0.25-0.75z"/>
	<path d="m47.719 177.86c-1.061-0.63-1.906-1.475-2.536-2.536l-0.253-0.761-0.253-0.761c0.431 0.093 0.478-0.198 0.507-0.507h2.029c0.894 0.458 1.57 1.134 2.028 2.028l-0.761 0.253 0.253 0.761v0.507l-0.761 0.253-0.253 0.77z"/>
	<path d="m148.13 344.19c0.268-1.761 1.374-2.683 2.028-4.057l0.761 0.254 0.761-0.254c2.383 4.886 7.345 7.192 10.649 11.156h-0.507v1.522l-0.253 0.507 0.253 0.508c-0.431-0.094-0.479 0.197-0.507 0.507l-0.76-0.254-0.254 0.761c-1.549-0.479-1.589-2.467-3.549-2.535l-0.254-0.761-0.761 0.254c-0.791-2.083-2.362-3.386-4.057-4.564l0.253-0.761-0.761-0.253c-0.509-0.675-0.479-1.888-1.521-2.029l-0.761-0.253-0.76 0.23z"/>
	<path d="m288.09 317.31c-0.104 1.586 0.342 3.723-0.508 4.563l-0.761-0.253-0.76 0.253c-0.77-1.259-0.979-3.078-1.015-5.071l0.761 0.253 0.254-0.761h1.014l-0.254 1.268 1.28-0.25z"/>
	<path d="m242.96 326.44c2.733 1.655 0.985 5.078-0.507 6.592l-0.761-0.253-0.254 0.761h-0.507l-0.423-1.269-1.099 0.761-0.254-0.761-0.253-0.76c1.487-0.879 2.354-2.379 2.535-4.564l0.93 0.253 0.59-0.76z"/>
	<path d="m222.16 350.78c-1.876-0.812-5.198-0.948-3.043-3.043l0.93 0.254 0.592-0.761c0.451 0.394 1.145 0.545 2.028 0.507l-0.254 0.93 0.761 0.592v1.015l-0.761-0.254-0.26 0.75z"/>
	<path d="m190.98 332.78l-0.761 0.253c-0.868-1.871-3.669-4.406-0.507-6.085l0.592 0.761 0.93-0.253c0.12 2.921 2.671 3.414 3.55 5.578l-0.761-0.253 0.253 0.761h-0.507l-1.015-0.508-0.507 1.015c-0.41-0.097-0.506-0.509-1.014-0.507l-0.24-0.75z"/>
	<path d="m163.34 352.05l0.507-0.253c1.147 0.543 2.23 1.15 3.043 2.028l-0.761 0.253 0.253 0.761v0.508l-0.761 0.253 0.253 0.761h-1.014l-0.253-0.761-0.761 0.254c0.446-1.63-1.671-0.695-1.521-2.028l0.76-0.254-0.253-0.761v-1.014l0.5 0.25z"/>
	<path d="m254.62 356.36c2.814 0.905 4.708 2.73 7.1 4.057l-0.761 0.592 0.254 0.93c-0.72-0.043-1.437-0.084-1.521 0.507l-0.93-0.253-0.592 0.761c-1.07-0.451-1.499-1.544-3.042-1.521l0.253-0.761-0.761-0.254v-0.507l-0.051-1.064-0.963-0.457c0.096-0.41 0.509-0.505 0.507-1.014l0.761-0.254-0.26-0.78z"/>
	<path d="m276.93 363.46c4.866-2.74 9.052-6.161 14.706-8.113l-0.254 0.76 0.761 0.254h1.014l-0.253 0.761 0.253 0.761c-5.876 1.562-9.77 5.104-14.198 8.113l-0.592-0.76-0.93 0.253c0.093-0.432-0.198-0.479-0.507-0.507l0.253-0.761-0.25-0.75z"/>
	<path d="m250.56 378.67c-1.593-1.14 0.371-2.97 1.521-3.042l0.592 0.761 0.93-0.254c0.551 2.072-0.542 2.501-1.521 3.043l-0.761-0.254-0.76-0.26z"/>
	<path d="m345.9 574.42c2.572-0.134 4.88-0.53 7.1-1.015l-0.063 1.141 1.078 0.381v1.014l-0.761-0.253-0.254 0.761c-3.12-0.077-5.229 0.856-7.1 2.028l-0.761-0.254-0.76 0.254h-1.521l0.253-0.93-0.761-0.592c0.354-1.337 2.309-1.072 2.536-2.535l0.507 0.253 0.49-0.25z"/>
	<path d="m355.79 573.15l-0.253-0.761c2.223-1.496 5.093-2.345 7.606-3.55l-0.254 0.761 0.761 0.254c-0.064 0.909 0.621 1.069 0.507 2.028l-0.905-0.181-0.616 0.688c-1.884-0.193-1.325 2.056-3.55 1.521v1.015l-0.93-0.254-0.591 0.761c-1.034-0.149-0.995-1.372-2.028-1.521l0.25-0.76z"/>
	<path d="m276.17 393.29l-0.254-0.93c0.432 0.093 0.479-0.198 0.507-0.507l0.761 0.253 0.761-0.253c0.934 0.756 1.779 1.602 2.535 2.535l-0.253 0.761 0.253 0.761h-1.014l-0.979-0.398-0.543 0.905c-0.721-0.97-1.566-1.814-2.535-2.535l0.75-0.57z"/>
	<path d="m281.24 396.68l0.761-0.254c14.668 16.098 27.143 34.387 37.02 55.274l-0.761-0.253-0.254 0.761h-0.507l-0.761-0.254-0.254 0.761c-4.139-5.327-5.581-13.351-10.649-17.749l-0.507-0.253-0.507 0.253c-0.503-1.356-1.045-2.674-1.015-4.563-7.237-11.525-15.553-21.974-24.341-31.948l0.761-0.592-0.254-0.93c0.432 0.094 0.479-0.197 0.507-0.507l0.76 0.25z"/>
	<path d="m319.53 453.98l0.507 0.254c2.636 4.971 5.126 10.087 6.593 16.228l-0.761 0.253 0.254 0.761h-0.508l-0.592-0.761-0.93 0.254c-2.406-5.37-4.447-11.104-7.1-16.228l0.761 0.254 0.254-0.761c0.59 0.082 0.902-0.112 1.015-0.508l0.51 0.27z"/>
	<path d="m329.42 478.83l0.253-0.761c1.024 3.201 2.415 6.037 3.043 9.635l-0.761-0.254-0.253 0.761h-0.508l-0.761-0.253-0.761 0.253c-0.869-0.354-0.881-4.136-1.521-3.042l-0.508-0.254-0.507-0.254c-1.156-0.703-0.189-3.529-0.507-5.07l0.93 0.253 0.592-0.761h0.507l0.77-0.26z"/>
	<path d="m332.71 491l0.507 0.254c1.44 0.757 1.411 2.984 1.521 5.071l-0.761 0.253 0.254 0.761h-1.015l-0.507-0.253-0.507 0.253c-0.826-1.54-1.488-3.244-1.521-5.578l0.761 0.254 0.254-0.761c0.431 0.094 0.478-0.198 0.507-0.507l0.51 0.27z"/>
	<path d="m335 498.1l0.253-0.761c0.595 0.082 0.428 0.925 0.508 1.521l-0.761-0.253-0.761-0.254 0.76-0.26z"/>
	<path d="m335.25 500.63l0.508 0.253c1.032 0.489 1.095 1.947 1.014 3.55l-0.761-0.253-0.253 0.76h-1.015l-0.592-0.76-0.93 0.253c0.366-1.55-0.519-1.848-0.507-3.042l0.761 0.253 0.254-0.761c0.589 0.083 0.902-0.111 1.014-0.507l0.52 0.26z"/>
	<path d="m338.88 525.99l0.93-0.253v3.55l-0.93-0.254-0.592 0.761h-0.507l-0.254-1.268-1.268 0.253v-3.042l0.761 0.253 0.254-0.76h1.014l0.6 0.76z"/>
	<path d="m332.46 581.77l-0.253-0.761c2.867-1.358 6.28-2.172 9.128-3.55l0.659 0.659 0.862 0.355c-0.651 0.666-0.651 1.869 0 2.535l-0.862 0.355-0.659 0.659c-2.767-1.259-6.142-0.068-5.578 3.55l-0.93-0.254-0.592 0.761c-1.518-0.343-0.328-3.391-2.028-3.55l0.25-0.78z"/>
	<path d="m327.64 543.48c-1.01-0.512-2.166-0.877-2.535-2.029l0.761-0.591-0.254-0.93c0.411-0.097 0.506-0.509 1.015-0.508l0.456 0.964 1.065 0.051v1.521l-0.254 0.761-0.25 0.77z"/>
	<path d="m317.25 453.47l-0.254 0.761c-0.493-0.015-0.393-0.621-0.507-1.015l0.76 0.25 0.254-0.761c0.493 0.014 0.394 0.621 0.507 1.014l-0.76-0.25z"/>
	<g stroke="#000" stroke-linecap="round" fill="none">
		<path stroke-width="1.3355" d="m144.83 4.427c4.072 0.109 8.119-0.611 12.171 0"/>
		<path stroke-width="1.4876" d="m164.61 4.681c3.251-0.277 6.393 0.66 9.635 0.507"/>
		<path stroke-width="1.2086" d="m178.81 5.695c4.275 0.327 8.622 0.623 12.677 1.775"/>
		<path stroke-width="1.3248" d="m143.31 32.825c8.121-0.303 16.217-0.236 24.341 0"/>
		<path stroke-width="1.0614" d="m134.18 33.839c1.669-0.22 3.293-0.756 5.071-0.507"/>
		<path stroke-width="1.1217" d="m172.21 33.332c2.439-0.317 4.705 0.485 7.1 0.507"/>
		<path stroke-width="1.0546" d="m183.37 33.839c7.331 0.568 14.567 2.314 21.552 4.057"/>
		<path stroke-width="1.3536" d="m187.93 37.896c-0.676-0.106-1.352-0.266-2.028-0.507"/>
		<path stroke-width="1.0757" d="m212.28 76.943h8.62"/>
		<path stroke-width="1.1295" d="m275.66 155.8c6.573-4.022 10.616-6.583 14.836-11.516 14.369-16.793 6.493-34.557-9.381-45.638-20.428-14.26-50.664-21.171-73.914-18.659"/>
		<path stroke-width="1.0533" d="m277.82 157.95c16.531-7.791 30.497-28.871 19.518-46.13-3.951-9.178-13.101-15.74-21.784-19.778-14.373-9.637-31.7-14.063-49.078-15.103"/>
		<path stroke-width="1.0919" d="m268.56 162.39c-9.074 5.247-19.944 7.094-30.426 8.875"/>
		<path stroke-width="1.041" d="m165.12 155.54c30.591 16.652 69.54 17.804 101.42 4.818"/>
		<path stroke-width=".9831" d="m266.54 160.36c-9.089-10.203-20.246-19.311-30.426-28.145"/>
		<path stroke-width="1.5492" d="m266.54 160.36h1.015"/>
		<path stroke-width="1.0556" d="m267.55 160.36l1.521-1.521"/>
		<path stroke-width="1.004" d="m269.07 158.84c-10.113-11.928-23.013-21.933-34.99-31.948"/>
		<path stroke-width="1.563" d="m269.07 158.84h1.521"/>
		<path stroke-width="1.1711" d="m270.59 158.84c0.446-0.448 1.241-0.844 1.774-1.268"/>
		<path stroke-width=".9622" d="m272.37 157.57c-12.774-12.407-26.155-25.873-41.075-36.005"/>
		<path stroke-width="2.0494" d="m272.37 157.57h0.507"/>
		<path stroke-width="1.1176" d="m272.88 157.57l1.775-1.775"/>
		<path stroke-width=".9726" d="m274.65 155.8c-14.304-14.399-29.553-29.383-47.161-40.062"/>
		<path stroke-width="1.2422" d="m274.27 159.48c1.204-0.4 2.899-0.179 3.55-1.521"/>
		<path stroke-width="1.1815" d="m277.82 157.95c-0.851-0.556-1.665-1.25-2.155-2.155"/>
		<path stroke-width="1.5492" d="m275.66 155.8h-1.014"/>
		<path stroke-width="1.4013" d="m271.61 160.87c0.688-0.005 1.37-0.179 1.927-0.259 0.302-0.279 0.53-0.76 0.735-1.135"/>
		<path stroke-width="1.1711" d="m274.27 159.48c-0.13-0.358-0.801-1.294-1.395-1.901"/>
		<path stroke-width="1.0142" d="m267.55 160.36c0.325 0.712 0.689 1.286 1.014 2.028"/>
		<path stroke-width="1.289" d="m268.56 162.39c1.179-0.034 2.742-0.094 3.043-1.521"/>
		<path stroke-width="1.111" d="m271.61 160.87c-0.614-0.725-0.679-1.184-1.014-2.028"/>
		<path stroke-width=".9959" d="m170.19 85.818c0.591 0.63 1.465 0.849 2.028 1.521"/>
		<path stroke-width="1.2896" d="m172.21 87.339c1.29 0.277 2.691 0.458 3.93-0.127"/>
		<path stroke-width="1.1275" d="m176.14 87.212c7.79-4.289 17.408-5.566 26.496-6.719"/>
		<path stroke-width="1.0024" d="m176.14 87.212c0.166 0.259 0.302 0.606 0.437 0.871 3.385 1.087 6.911 1.775 10.34 2.552"/>
		<path stroke-width="1.0056" d="m171.71 88.86c6.387 2.08 12.854 3.582 19.27 5.325"/>
		<path stroke-width="1.2929" d="m169.17 88.86c-0.169 0.338-0.338 0.676-0.507 1.015"/>
		<path stroke-width=".9681" d="m168.66 89.875c5.742 3.076 12.925 3.444 19.27 5.832"/>
		<path stroke-width="1.5712" d="m166.21 90.128c-0.056 0.468-0.095 1.112-0.211 1.648"/>
		<path stroke-width="1.0008" d="m166 91.776c10.832 3.656 22.825 5.689 33.765 9.593"/>
		<path stroke-width=".9943" d="m163.59 91.903c-7.49 4.581-15.577 9.663-20.031 17.749"/>
		<path stroke-width="1.0443" d="m204.67 171.27c-19.318-2.36-43.263-10.555-57.657-25.224-17.513-17.847-11.699-43.262 14.046-55.66"/>
		<path stroke-width="1.2099" d="m161.06 90.382c0.525-1.104 1.984-1.26 3.042-1.521"/>
		<path stroke-width="1.2046" d="m164.1 88.86c0.605-1.402 2.295-1.266 3.55-1.521"/>
		<path stroke-width="1.1802" d="m167.65 87.339c0.159-1.39 1.576-1.164 2.536-1.521"/>
		<path stroke-width="1.0628" d="m170.19 85.818c0.058-0.145 0.115-0.29 0.172-0.435 10.475-4.42 22.099-7.575 33.804-8.186"/>
		<path stroke-width=".9024" d="m167.65 87.339c0.15 0.736 0.726 0.879 1.521 1.521"/>
		<path stroke-width="1.5667" d="m169.17 88.86h2.536"/>
		<path stroke-width="1.1893" d="m171.71 88.86c0.163-0.507 0.309-1.014 0.507-1.521"/>
		<path stroke-width="1.1815" d="m164.1 88.86c0.497 0.784 1.589 0.553 2.113 1.268"/>
		<path stroke-width="1.15" d="m166.21 90.128c0.597 0.022 1.607 0.033 2.451-0.253"/>
		<path stroke-width="1.0454" d="m161.06 90.382c0.095 0.167 0.19 0.333 0.286 0.499 0.767 0.317 1.7 0.231 2.25 1.022"/>
		<path stroke-width="1.563" d="m163.59 91.903c0.855 0.01 1.707 0.017 2.409-0.127"/>
		<path stroke-width=".9174" d="m191.99 96.721c1.927 0.333 3.624 1.331 5.579 1.521"/>
		<path stroke-width="1.0401" d="m144.07 166.19c12.457 6.018 25.701 9.949 39.301 12.678"/>
		<path stroke-width="1.4031" d="m209.74 171.77c7.689 0.487 15.61 0.55 23.327-0.507"/>
		<path stroke-width="1.0504" d="m187.93 179.38c4.338 1.212 9.132 1.597 13.692 2.029"/>
		<path stroke-width="1.1049" d="m205.68 181.92c6.924-0.156 13.906 0.321 20.791-0.253"/>
		<path stroke-width="1.0621" d="m167.9 202.45c0.08 11.185-0.16 22.431 0.119 33.579 0.145 0.087 0.372 0.11 0.603 0.131 1.26-0.729 2.582-1.228 3.757-2.1"/>
		<path stroke-width="1.2765" d="m94.88 384c-4.249-59.053-13.326-118.68-9.635-178.5"/>
		<path stroke-width="1.1869" d="m140.01 213.1c0.11-2.263-0.089-4.435-0.761-6.592"/>
		<path stroke-width="1.1719" d="m189.96 300.07c7.075 3.281 14.343 5.521 22.313 5.324"/>
		<path stroke-width="1.0443" d="m233.83 309.71c3.248 4.157 4.986 9.078 5.578 14.199"/>
		<path stroke-width="1.0716" d="m235.86 323.65c-0.067-4.083-1.463-8.229-4.057-11.41"/>
		<path stroke-width="1.16" d="m95.387 387.55c0.184 1.475-0.401 3.162 0.357 4.488 2.218 0.802 4.641 0.898 6.996 0.836"/>
		<path stroke-width="1.1119" d="m306.34 466.66c-1.464-11.397-2.823-22.514-4.564-33.977"/>
		<path stroke-width="1.4123" d="m282.76 608.65c-0.127-1.079-1.287-1.888-0.84-3.054 0.628-0.67 1.603-0.48 2.367-0.175 0.444 1.016 1.438 2.02 0.852 3.232-0.67 0.63-1.72 0.22-2.38 0"/>
		<path stroke-width="1.0294" d="m129.87 612.96c17.572 11.726 37.938 18.334 58.571 22.312"/>
		<path stroke-width="1.1792" d="m104.77 612.96c2.244 0.257 4.346-0.767 6.592-0.508"/>
		<path stroke-width="1.9347" d="m272.85 617.45c2.594 2.14 3.229 5.751 3.319 8.944"/>
		<path stroke-width="1.4209" d="m266.28 619.12c-0.112-0.056-0.224-0.111-0.335-0.167-3.791-5.983 6.105-7.851 6.904-1.508"/>
		<path stroke-width="1.2929" d="m266.28 619.12c1.881-1.702 4.097-1.875 6.569-1.675"/>
		<path stroke-width="1.6064" d="m266.28 619.12c0.098 3.646 1.481 7.47 4.563 9.636"/>
		<path stroke-width="1.5654" d="m270.85 628.76c2.012-0.224 3.72-1.094 5.325-2.366"/>
		<path stroke-width="1.4809" d="m270.85 628.76c-0.081 1.938 2.081 2.682 3.636 2.927 1.834-0.773 3.402-3.628 1.689-5.293"/>
		<path stroke-width="1.1305" d="m92.091 613.97c2.772 0.312 5.337-0.819 8.113-0.507"/>
		<path stroke-width="1.3821" d="m290.37 623.86c-0.628 1.137-0.254 3.186 1.366 3.034 1.091-0.496 0.946-2.585 0.062-3.21-0.45-0.07-0.94 0.06-1.43 0.18"/>
		<path stroke-width="1.1417" d="m192.5 635.78c2.343 0.226 4.654 0.87 7.1 1.015"/>
		<path stroke-width="1.0223" d="m203.66 637.3c3.889 0.27 7.72-0.109 11.663 0"/>
		<path stroke-width="1.0508" d="m219.88 637.8c4.14 1.115 8.616 1.732 12.678 3.55"/>
		<path stroke-width=".9929" d="m236.11 642.37c0.885 0.851 2.093 1.248 3.042 2.028"/>
		<path stroke-width=".9795" d="m242.2 645.92c3.507 3.142 8.304 5.163 12.424 7.606"/>
		<path stroke-width="1.4319" d="m309.34 91.193c9.108 9.092 15.04 21.476 14.142 34.613"/>
		<path stroke-width="1.4232" d="m294.5 256.31c-2.405 24.895-3.621 50.79-5.144 75.957"/>
		<path stroke-width="1.6499" d="m289.36 332.27c-0.087 3.334 2.229 5.915 2.535 9.128"/>
		<path stroke-width="1.4918" d="m71.807 616.25c-26.625-14.536-49.039-38.248-59.45-63.206-5.376-12.889-5.6-23.885-2.572-37.837 3.482-16.044 6.898-34.182 9.635-51.724 3.318-21.266 5.047-46.952 5.507-66.591 0.103-4.407 0.422-7.933-0.112-11.884"/>
		<path stroke-width="1.6183" d="m24.815 376.39c-3.127-83.089-9.935-165.7-14.199-248.48"/>
		<path stroke-width="1.495" d="m11.208 74.281c-2.177-0.748-3.797-1.904-5.249-2.419-8.283-2.936-5.657-11.077-5.22-19.405"/>
		<path stroke-width="1.8459" d="m0.739 52.458c-0.442-1.117-0.687-2.474 0-3.55"/>
		<path stroke-width="1.4815" d="m0.739 48.908c-2.797-11.407 11.943-13.522 19.85-15.829"/>
		<path stroke-width="1.4392" d="m20.589 33.079c2.759-3.007 7.262-2.96 10.734-4.986"/>
		<path stroke-width="1.5122" d="m31.323 28.092c1.865-2.065 4.81-2.593 7.218-3.938"/>
		<path stroke-width="1.3685" d="m38.541 24.154c3.976-3.01 8.403-5.313 12.678-8.114"/>
		<path stroke-width="1.4235" d="m51.218 16.04c9.431-12.318 30-24.177 42.191-8.621"/>
		<path stroke-width="1.4929" d="m93.41 7.419c51.642-10.663 107.52-8.104 156.19 12.779"/>
		<path stroke-width="1.3943" d="m249.6 20.198c19.07 6.386 38.103 15.196 53.754 27.79"/>
		<path stroke-width="1.5821" d="m303.35 47.988c1.522 0.063 3.272 0.789 3.879 2.206"/>
		<path stroke-width="1.6253" d="m307.23 50.193c3.092 0.221 3.479 3.422 3.858 5.814"/>
		<path stroke-width="1.7836" d="m311.09 56.007c0.536 0.081 1.083 0.354 1.599 0.646 0.492 3.057-1.637 5.888-2.203 8.88"/>
		<path stroke-width="1.1339" d="m51.218 16.04c0.74 0.774 1.888 0.487 2.84 0.558"/>
		<path stroke-width="1.5031" d="m54.058 16.598c1.393-0.413 2.527-1.4 4.057-1.437"/>
		<path stroke-width="1.1744" d="m93.41 7.419c-0.925 1.164-2.355 1.255-3.685 0.812"/>
		<path stroke-width="2.2451" d="m11.208 74.281c0.362 2.297-1.312 4.209-1.268 6.466"/>
		<path stroke-width="1.2248" d="m9.94 80.747c0.968 0.874 0.91 2.418 0.507 3.549"/>
		<path stroke-width="1.4105" d="m10.447 84.296c-0.494 11.721-0.473 23.71 1.184 35.16"/>
		<path stroke-width=".9926" d="m11.63 119.46c2.529 6.134 4.799 12.112 7.269 18.256"/>
		<path stroke-width=".9673" d="m18.899 137.71c3.162 3.711 4.573 8.632 8.536 11.748"/>
		<path stroke-width="1.2422" d="m27.435 149.46c0.397-0.602 0.614-1.514 0.887-1.902"/>
		<path stroke-width="1.5689" d="m28.322 147.56c-0.127-0.718-0.096-1.594-0.253-2.282"/>
		<path stroke-width="1.1126" d="m28.069 145.28c-22.713-30.44-21.614-82.352 8.364-108 28.781-22.603 66.67-30.969 103.33-32.351"/>
		<path stroke-width="1.3652" d="m28.069 145.28c8.351-20.367 34.05-26.367 53.88-21.595"/>
		<path stroke-width="1.0632" d="m81.949 123.68c-0.086-2.144-2.142-4.163-3.15-6.242-13.188-27.188-4.16-55.049 14.66-69.27 6.826-5.158 23.49-12.632 36.158-13.824"/>
		<path stroke-width="1.1527" d="m83.344 123.98c0.432-0.309 1.35-0.325 2.155-0.634"/>
		<path stroke-width="1.1708" d="m85.499 123.34c-0.532-1.616-1.46-2.977-2.087-4.515-11.125-18.201-9.291-40.232 0.176-55.659 17.601-28.681 65.729-30.183 97.754-26.289"/>
		<path stroke-width="1.8284" d="m85.499 123.34c0.394 0.148 0.544 0.195 0.761 0.253"/>
		<path stroke-width="1.4302" d="m86.259 123.6c0.11-0.083 0.22-0.167 0.33-0.251 2.787-0.773 5.516-1.948 7.636-3.878 0.843-6.659 0.657-14.891 5.051-23.278 7.07-13.496 20.028-22.583 29.251-27.37 12.204-6.335 30.337-13.772 45.909-15.097 5.042-0.429 13.938-1.306 23.359-1.333 13.497-0.038 31.357 4.019 36.921-1.942"/>
		<path stroke-width="1.117" d="m234.72 50.447c-13.446-6.138-28.123-9.592-42.725-12.044"/>
		<path stroke-width="1.6036" d="m234.72 50.447c0.253-0.084 0.507-0.169 0.761-0.254"/>
		<path stroke-width="1.097" d="m235.35 46.137c-8.775-1.758-17.639-5.359-26.623-7.987"/>
		<path stroke-width="1.1235" d="m246.05 22.227c-15.385-7.23-33.085-10.869-50.001-14.25"/>
		<path stroke-width="1.6331" d="m50.001 23.951c2.946-1.482 6.949-1.834 8.925-4.767"/>
		<path stroke-width=".9817" d="m58.926 19.184c-1.842-1.699-3.951 0.977-5.882-0.304"/>
		<path stroke-width="1.4714" d="m58.926 19.184c4.088-0.803 8.126-2.405 11.275-4.953"/>
		<path stroke-width="1.0648" d="m70.201 14.231c-1.779-1.401-4.032 0.197-6.001 0.338"/>
		<path stroke-width="1.5473" d="m70.201 14.231c6.369-2.292 13.442-3.377 19.523-6.001"/>
		<path stroke-width="1.0775" d="m89.725 8.23c-8.688-10.016-26.353-4.039-31.61 6.931"/>
		<path stroke-width="1.4041" d="m58.115 15.161c0.507 0.027 1.015-0.069 1.521-0.085"/>
		<path stroke-width="1.1149" d="m54.058 16.598c-0.107 0.856-0.749 1.484-1.014 2.282"/>
		<path stroke-width="1.4117" d="m38.541 24.154c2.843 1.829 5.768-0.679 8.695-1.033"/>
		<path stroke-width="1.2929" d="m47.235 23.121c0.906-2.695 3.435-3.478 5.809-4.241"/>
		<path stroke-width="1.0516" d="m248.96 21.669c16.948 8.696 35.138 15.465 51.049 27.13"/>
		<path stroke-width="1.7567" d="m249.6 20.198c-0.205 0.49-0.443 1.062-0.642 1.471"/>
		<path stroke-width=".9351" d="m60.904 182.93c1.066 0.384 1.967 0.989 2.79 1.775"/>
		<path stroke-width="1.2497" d="m77.3 192.56c-0.9-14.032 12.517-21.559 22.219-25.222 16.366-6.179 28.186-1.674 41.834 0.989"/>
		<path stroke-width="1.1434" d="m141.35 168.33c47.688 22.687 110.09 23.585 155.46-5.051 11.256-7.432 21.425-17.926 25.507-30.809"/>
		<path stroke-width="1.3733" d="m303.35 47.988c-0.92 0.723-2.226 0.694-3.347 0.811"/>
		<path stroke-width="1.0835" d="m300 48.799c-7.329 5.699-11.198 14.307-12.678 23.327"/>
		<path stroke-width="1.0919" d="m287.33 72.126c0.397 1.087 0.919 1.987 0.845 3.212"/>
		<path stroke-width="1.0239" d="m287.33 72.126c-17.273-7.409-32.731-19.804-51.557-24.341"/>
		<path stroke-width="1.6036" d="m235.77 47.785c-0.173 0.856-0.134 1.708-0.295 2.409"/>
		<path stroke-width="1.0157" d="m235.48 50.193c17.546 6.194 33.15 16.329 49.315 24.722"/>
		<path stroke-width="1.0054" d="m86.259 123.6c10.236 16.669 28.401 26.244 44.625 36.005"/>
		<path stroke-width="1.2335" d="m126.88 161.58c1.181 0.62 2.583 0.46 3.499 1.572"/>
		<path stroke-width="1.7485" d="m248.96 21.669c-0.96 0.212-1.998 0.14-2.907 0.558"/>
		<path stroke-width="1.45" d="m246.05 22.227c-6.036 6.365-11.515 14.758-10.7 23.91"/>
		<path stroke-width="1.6432" d="m235.35 46.137c0.146 0.333 0.25 1.024 0.422 1.648"/>
		<path stroke-width="1.2929" d="m31.323 28.092c0.292 0.261 0.61 0.47 0.93 0.676"/>
		<path stroke-width="1.2261" d="m32.252 28.769c2.543 0.359 4.792-0.561 7.1-1.437"/>
		<path stroke-width="1.3791" d="m37.155 31.727c4.471-2.299 9-4.817 12.847-7.776"/>
		<path stroke-width="1.6488" d="m50.001 23.951c-0.791-0.679-1.915-0.298-2.766-0.83"/>
		<path stroke-width="1.8284" d="m20.589 33.079c0.271 0.406 0.541 0.812 0.812 1.217"/>
		<path stroke-width="1.3917" d="m21.4 34.296c3.194-0.882 6.297-1.496 9.331-2.738"/>
		<path stroke-width=".7333" d="m30.731 31.558c-0.013-1.067 1.111-0.785 1.595-1.286-0.053-0.303-0.053-0.922-0.073-1.503"/>
		<path stroke-width="1.3217" d="m19.194 52.476c4.991-7.245 11.084-14.883 17.96-20.749"/>
		<path stroke-width=".9898" d="m37.155 31.727c-2.086-1.243-4.303 0.77-6.424-0.169"/>
		<path stroke-width="1.1039" d="m0.739 48.908c4.882 4.095 10.972 5.57 17.314 5.47"/>
		<path stroke-width="1.4215" d="m18.054 54.377c0.784-0.642 0.902-1.333 1.141-1.902"/>
		<path stroke-width="1.0757" d="m19.194 52.476c-4.923-1.987-15.381-0.348-15.58-8.138 3.767-6.508 12.911-4.821 17.786-10.042"/>
		<path stroke-width="1.6301" d="m0.739 52.458c1.358 0.258 2.206 1.394 2.988 2.427"/>
		<path stroke-width="1.3836" d="m3.728 54.884c1.252-0.177 2.646 0.276 3.169 1.521"/>
		<path stroke-width="1.378" d="m16.152 58.054c1.297-0.739 2.012-2.192 1.902-3.676"/>
		<path stroke-width="1.0935" d="m299.7 83.08c4.969-8.298 8.131-17.724 11.389-27.072"/>
		<path stroke-width="1.1716" d="m307.23 50.193c-10.092 2.932-24.89 27.523-7.53 32.886"/>
		<path stroke-width="1.9803" d="m11.208 74.281c0.515-0.845 0.439-1.828 0.676-2.747"/>
		<path stroke-width="1.1949" d="m11.884 71.534c-2.497-1.447-5.236-2.293-7.645-3.822-1.589-3.134-0.922-7.132-0.257-10.419"/>
		<path stroke-width="1.8682" d="m3.981 57.293c-0.081-0.809-0.544-1.587-0.254-2.409"/>
		<path stroke-width="1.4824" d="m3.981 57.293c1.032 0.27 2.395 0.248 2.916-0.887"/>
		<path stroke-width="1.4591" d="m11.884 71.534c2.073-4.246 3.171-8.88 4.268-13.48"/>
		<path stroke-width="1.424" d="m16.152 58.054c-3.013-0.632-6.214-0.876-9.255-1.648"/>
		<path stroke-width="1.8196" d="m299.7 83.08c0.508 0.985 1.719 1.448 2.755 1.64"/>
		<path stroke-width="1.8118" d="m302.46 84.719c1.685-4.809 4.085-9.271 5.809-14.042"/>
		<path stroke-width="1.4486" d="m302.46 84.719c1.508 2.782 4.316 4.75 6.88 6.474"/>
		<path stroke-width="1.4041" d="m309.34 91.193c1.691-6.677 1.02-14.315 0.812-21.096"/>
		<path stroke-width="1.0757" d="m8.672 84.043c0.685-0.015 1.208 0.116 1.775 0.253"/>
		<path stroke-width="1.398" d="m9.94 80.747c-1.021 0.791-1.412 2.04-1.268 3.296"/>
		<path stroke-width="1.585" d="m8.672 84.043c-1.995 11.171-2.226 23.188 0.93 34.229"/>
		<path stroke-width="1.0757" d="m11.63 119.46c-0.153 0.046-0.412 0.066-0.676 0.084"/>
		<path stroke-width="1.0389" d="m28.322 147.56c12.96 15.148 27.783 30.886 45.947 39.507 6.575-21.139 33.141-27.762 52.61-25.486"/>
		<path stroke-width="1.0202" d="m126.88 161.58c-15.075-11.274-34.244-19.491-43.535-37.602"/>
		<path stroke-width="1.6432" d="m83.344 123.98c-0.418-0.079-0.917-0.174-1.395-0.296"/>
		<path stroke-width="1.083" d="m27.182 380.95c0.75-9.278-0.013-18.636-0.254-27.891"/>
		<path stroke-width="1.3157" d="m33.689 401.32c0.055-0.07 0.109-0.142 0.164-0.212 0.682-48.448-3.361-94.759-6.285-145.74-1.733-30.205-3.918-65.07-5.738-94.907-0.274-4.504-1.672-8.876-0.227-13.288"/>
		<path stroke-width="2.0405" d="m21.603 147.18c-1.077-2.951-3.54-5.355-4.395-8.452"/>
		<path stroke-width="1.3038" d="m26.674 349.01c-1.961-44.229-5.674-90.013-7.804-133.6-1.291-26.414-4.611-51.709-5.073-76.768-0.015-0.808 0.056-1.378 1.213-2.616"/>
		<path stroke-width="1.7134" d="m14.166 132.98c-0.321-1.788-1.117-3.438-1.859-5.071"/>
		<path stroke-width="1.6369" d="m322.42 154.38c3.012-6.89 4.86-15.333 2.561-22.731"/>
		<path stroke-width=".9373" d="m303.94 174.82c2.881-0.085 4.019-3.575 6.72-4.311"/>
		<path stroke-width="2.2367" d="m230.02 200.42c6.338-0.692 12.657-1.416 18.966-2.333"/>
		<path stroke-width="1.2142" d="m248.99 198.09c0.684-1.439 2.839-1.998 4.107-0.963"/>
		<path stroke-width="2.2143" d="m253.1 197.13c9.184-1.916 17.973-4.672 26.732-8.295"/>
		<path stroke-width="1.2094" d="m279.83 188.83c0.787-1.716 2.857-2.65 4.686-2.285"/>
		<path stroke-width="2.0125" d="m284.52 186.55c0.51-0.327 1.133-0.518 1.567-0.646"/>
		<path stroke-width="1.1564" d="m286.08 185.9c0.187-1.208 1.276-1.971 2.428-2.044"/>
		<path stroke-width="1.0498" d="m288.51 183.86c2.296-1.6 4.7-3.12 7.312-4.353"/>
		<path stroke-width="1.0142" d="m295.82 179.51c0.729-1.072 1.958-1.864 3.296-1.901"/>
		<path stroke-width="1.1576" d="m299.12 177.6c0.889-1.837 2.776-2.634 4.438-3.55"/>
		<path stroke-width="1.0962" d="m303.56 174.06c12.103-10.448 22.109-25.275 19.587-41.963"/>
		<path stroke-width="2.1113" d="m146.18 186.06c0.208 0.19 0.371 0.291 0.531 0.386"/>
		<path stroke-width="1.0979" d="m146.71 186.44c1.596-0.013 3.322 0.542 4.54 1.473"/>
		<path stroke-width="1.0955" d="m151.25 187.92c1.505 0.421 3.169 0.785 4.057 2.197"/>
		<path stroke-width="2.1811" d="m155.31 190.11c0.105 0.03 0.192 0.063 0.278 0.097"/>
		<path stroke-width="1.0393" d="m155.59 190.21c0.834-0.155 1.644 0.049 2.351 0.142 0.25 0.273 0.528 0.816 0.887 1.25"/>
		<path stroke-width="1.2641" d="m158.83 191.6c1.359-0.35 3.34 0.083 4.057 1.42"/>
		<path stroke-width="2.1214" d="m162.88 193.02c10.688 3.673 22.091 5.804 33.418 6.643"/>
		<path stroke-width=".9885" d="m196.3 199.66c1.235-0.901 3.12-0.521 4.311 0.253"/>
		<path stroke-width=".6547" d="m18.899 137.71c-0.389 0.207-0.885 0.489-1.353 0.845"/>
		<path stroke-width="2.1569" d="m21.603 147.18c1.862 0.801 1.964 3.044 3.478 4.129"/>
		<path stroke-width="1.3224" d="m44.93 174.56c-0.959-0.595-1.862-1.419-2.197-2.536"/>
		<path stroke-width="1.1732" d="m84.992 441.3c1.338-82.101-18.315-162.97-10.649-244.93"/>
		<path stroke-width="1.2546" d="m74.342 196.37c-4.625-3.522-10.732-6.588-15.213-10.649"/>
		<path stroke-width="1.2422" d="m59.129 185.72c-2.017-1.071-3.763-2.619-5.579-4.057"/>
		<path stroke-width="1.297" d="m53.551 181.66c-1.808-1.667-3.785-2.953-5.578-4.564"/>
		<path stroke-width="1.0584" d="m40.874 166.45c-4.352-5.176-8.564-9.92-12.678-15.213"/>
		<path stroke-width="1.3708" d="m315.22 166.11c0.12 1.907-1.582 3.589-3.296 4.141"/>
		<path stroke-width="1.0434" d="m310.48 173.21c-3.082 47.144-25.196 96.959-68.797 119.76"/>
		<path stroke-width="1.4499" d="m141.72 187.86c-0.113 29.184 4.15 63.162 16.925 84.404 6.183 10.281 13.075 16.956 23.04 26.797"/>
		<path stroke-width="1.4241" d="m181.68 299.06c5.351 2.188 10.179 5.77 15.687 7.657"/>
		<path stroke-width="1.5394" d="m197.37 306.71c12.466 3.355 25.408 2.684 37.932 0"/>
		<path stroke-width="1.4389" d="m235.3 306.71c7.176-2.757 13.509-7.637 20.589-10.954"/>
		<path stroke-width="1.4433" d="m255.89 295.76c1.247-1.776 3.153-3.232 5.273-3.752"/>
		<path stroke-width="1.3474" d="m261.16 292.01c6.194-4.642 12.077-10.405 17.618-15.409"/>
		<path stroke-width="1.4697" d="m278.78 276.6c3.649-5.069 7.797-9.916 11.794-14.612"/>
		<path stroke-width="1.3841" d="m290.57 261.99c1.141-2.02 1.697-4.6 3.927-5.672"/>
		<path stroke-width="1.3981" d="m294.5 256.31c16.818-29.298 25.282-62.685 27.142-96.459"/>
		<path stroke-width="1.0278" d="m221.4 305.4c13.11 0.297 23.712-7.374 34.596-13.555 41.001-28.333 58.241-77.826 62.008-125.39"/>
		<path stroke-width="2.1436" d="m86.259 193.32c18.066-2.422 36.031-5.524 53.753-9.381"/>
		<path stroke-width="1.2422" d="m140.01 183.94c0.259-0.4 0.766-0.875 1.268-1.268"/>
		<path stroke-width="1.5213" d="m141.28 182.68c0.137-4.77-0.225-9.684 0.072-14.344"/>
		<path stroke-width=".9738" d="m315.22 166.11c-1.859 0.045-3.061 1.747-3.55 3.381"/>
		<path stroke-width="1.0757" d="m46.958 172.03c-1.819-2.062-3.637-4.254-6.085-5.578"/>
		<path stroke-width="1.0142" d="m40.874 166.45c-0.338 0.338-0.676 0.676-1.015 1.014"/>
		<path stroke-width="1.964" d="m140.77 186.73c0.444 0.449 0.74 0.841 0.942 1.123"/>
		<path stroke-width="1.2809" d="m141.72 187.86c8.226 3.714 16.209 6.886 24.667 9.78"/>
		<path stroke-width="1.8284" d="m166.38 197.64c0.166 0.03 1.026 0.356 1.498 0.577"/>
		<path stroke-width="1.2877" d="m167.88 198.21c2.491-0.321 5.146 0.576 7.461 1.452"/>
		<path stroke-width="1.3524" d="m175.34 199.66c45.696 9.292 98.801 4.411 135.14-26.454"/>
		<path stroke-width="1.8166" d="m310.48 173.21c0.729-0.61 0.6-1.646 0.93-2.451"/>
		<path stroke-width=".9258" d="m46.198 173.29c-0.762-0.789-1.5-1.619-2.535-2.028"/>
		<path stroke-width="1.2929" d="m54.185 178.87c0.126-0.253 0.253-0.507 0.38-0.761"/>
		<path stroke-width=".9894" d="m54.565 178.11c-2.052-2.361-4.783-4.639-7.607-6.085"/>
		<path stroke-width="1.3417" d="m46.958 172.03c-0.198 0.382-0.457 0.809-0.761 1.268"/>
		<path stroke-width="1.034" d="m299.24 177.86c1.754 0.197 3.144-1.065 4.432-2 0.081-0.362 0.161-0.727 0.259-1.042"/>
		<path stroke-width="1.1339" d="m303.94 174.82c-0.127-0.254-0.254-0.507-0.38-0.761"/>
		<path stroke-width=".9622" d="m53.551 181.66c0.326-0.507 0.619-1.014 1.015-1.521"/>
		<path stroke-width="1.0955" d="m54.565 180.14c-0.17-0.521-0.251-0.898-0.38-1.268"/>
		<path stroke-width=".9125" d="m54.185 178.87c-2.333 0.091-3.348-2.903-5.705-3.296"/>
		<path stroke-width="1.0454" d="m296.33 180.39c1.383-0.088 2.736-1.051 2.916-2.536"/>
		<path stroke-width="2.2679" d="m299.24 177.86c-0.043-0.084-0.085-0.169-0.127-0.253"/>
			<line x2="60.144" y1="184.2" x1="60.144" y2="184.2" stroke-width="1.5492"/>
		<path stroke-width=".6547" d="m60.144 184.2c0.34-0.522 0.502-0.898 0.76-1.268"/>
		<path stroke-width="1.0525" d="m60.904 182.93c-2.123-1.681-3.688-3.901-6.338-4.817"/>
		<path stroke-width=".8636" d="m289.1 184.96c2.554-1.136 5.517-2.355 7.227-4.564"/>
		<path stroke-width="1.2929" d="m296.33 180.39c-0.224-0.432-0.367-0.664-0.507-0.888"/>
		<path stroke-width=".8783" d="m59.129 185.72c0.326-0.507 0.618-1.014 1.014-1.521"/>
		<path stroke-width=".9351" d="m60.144 184.2c-1.784-1.483-3.684-2.717-5.578-4.057"/>
		<path stroke-width="1.0142" d="m62.679 185.72c0.338-0.338 0.676-0.676 1.015-1.014"/>
		<path stroke-width="1.1784" d="m60.144 184.2c0.983 0.279 1.542 1.246 2.535 1.521"/>
		<path stroke-width="1.0071" d="m146.18 186.06c-1.152-1.69-3.253-2.278-4.902-3.381"/>
		<path stroke-width=".9527" d="m140.77 185.21c1.888-0.767 3.416 2.246 5.409 0.845"/>
		<path stroke-width="1.1084" d="m286.08 185.9c1.135 0.265 2.322 0.079 3.02-0.945"/>
		<path stroke-width=".6547" d="m289.1 184.96c-0.158-0.339-0.348-0.744-0.592-1.099"/>
		<path stroke-width="1.6819" d="m74.342 196.37c0.738 0.008 1.398 0.159 1.798 0.185"/>
		<path stroke-width="1.5712" d="m76.14 196.55c0.162-0.637 0.176-1.155 0.23-1.706"/>
		<path stroke-width=".9451" d="m76.371 194.85c-1.675-1.348-3.859-2.016-5.155-3.803"/>
		<path stroke-width=".8783" d="m71.215 191.04c-2.187-0.509-4.75-1.764-6.001-3.803"/>
		<path stroke-width="1.0607" d="m65.214 187.24c-1.058-0.102-1.841-0.754-2.536-1.521"/>
		<path stroke-width="1.4764" d="m96.148 195.35c14.666-2.781 29.934-4.986 44.625-8.621"/>
		<path stroke-width="1.563" d="m140.77 186.73v-1.521"/>
		<path stroke-width="1.2929" d="m140.77 185.21c-0.198-0.382-0.458-0.809-0.761-1.268"/>
		<path stroke-width="1.2929" d="m65.214 187.24l0.507-1.014"/>
		<path stroke-width="1.1953" d="m65.722 186.22c-0.536-0.614-1.29-1.166-2.028-1.521"/>
		<path stroke-width="1.6036" d="m71.215 191.04c0.056-0.169 0.113-0.338 0.169-0.507"/>
		<path stroke-width="1.1202" d="m71.384 190.54c-1.077-2.154-3.541-3.32-5.663-4.311"/>
		<path stroke-width="1.0377" d="m146.71 186.44c0.567 1.546 2.346 2.608 3.948 2.572"/>
		<path stroke-width="1.141" d="m279.83 188.83c1.746 0.391 3.907-0.647 4.686-2.285"/>
		<path stroke-width="1.5233" d="m88.542 442.31c11.779 1.036 23.15-1.815 34.229-4.564"/>
		<path stroke-width="1.8284" d="m122.77 437.75c0.116-0.104 0.269-0.303 0.423-0.507"/>
		<path stroke-width="1.0673" d="m123.19 437.24c5.605-26.826 12.307-61.933 20.234-85.526 6.815-20.284 17.248-37.739 33.458-51.717 0.102-0.295 0.118-0.749 0.145-1.126-24.685-20.238-34.752-51.282-37.019-81.968"/>
		<path stroke-width="1.1711" d="m123.19 437.24c0.649-0.22 1.52-0.288 2.511 0.072"/>
		<path stroke-width="1.4005" d="m125.7 437.32c7.188-31.267 13.641-62.569 23.182-93.38"/>
		<path stroke-width=".6547" d="m151.25 187.92c-0.222 0.403-0.374 0.77-0.591 1.099"/>
		<path stroke-width=".9532" d="m150.66 189.01c1.127 1.104 3.133 1.871 4.648 1.099"/>
		<path stroke-width="2.0909" d="m158.81 191.66c0.005-0.019 0.01-0.039 0.015-0.058"/>
		<path stroke-width="1.0919" d="m155.59 190.21c0.248 0.381 0.524 0.937 0.701 1.322 0.778 0.333 1.732 0.7 2.523 0.126"/>
		<path stroke-width="1.2422" d="m76.371 194.85c0.716-0.192 1.31-0.453 1.775-0.76"/>
		<path stroke-width="1.4343" d="m78.146 194.08c-0.354-0.526-0.627-1.101-0.845-1.521"/>
		<path stroke-width=".9379" d="m77.3 192.56c-2.208 0.218-3.69-2.001-5.916-2.028"/>
		<path stroke-width="1.0876" d="m158.81 191.66c0.591 1.407 2.78 2.545 4.071 1.362"/>
		<path stroke-width="1.2984" d="m77.385 197.04c1.795-0.482 3.771-0.661 5.578-0.169"/>
		<path stroke-width="2.4843" d="m82.963 196.88c1.317 0.044 2.66 0.058 3.875-0.543"/>
		<path stroke-width="1.2" d="m86.839 196.33c-0.032-1.03-0.083-2.074-0.58-3.006"/>
		<path stroke-width="2.266" d="m86.259 193.32c-2.785-0.208-5.4 0.632-8.114 0.761"/>
		<path stroke-width="1.54" d="m82.963 196.88c-6.288 66.144 5.856 132.11 9.663 197.73 3.988 2.795 9.621 1.068 14.178 1.913 2.061-8.004-0.182-15.914-0.864-23.808-3.143-36.362-6.276-73.229-8.822-109.89-1.571-22.619-1.06-44.912-0.97-67.469"/>
		<path stroke-width="2.4908" d="m96.148 195.35c-3.101 0.497-6.133 1.238-9.309 0.978"/>
		<path stroke-width="1.5584" d="m85.499 441.81h2.536"/>
		<path stroke-width="1.2836" d="m88.034 441.81c1.015-81.853-17.753-162.64-10.649-244.76"/>
		<path stroke-width="1.7197" d="m77.385 197.04c-0.381-0.131-0.8-0.298-1.245-0.492"/>
		<path stroke-width=".899" d="m248.99 198.09c1.431 0.616 3.207 0.45 4.107-0.963"/>
		<path stroke-width="1.8284" d="m164.21 199.99c0.217 0.145 0.435 0.29 0.652 0.435"/>
		<path stroke-width="1.2804" d="m166.38 197.64c-0.711 0.793-1.619 1.433-2.173 2.354"/>
		<path stroke-width="1.0142" d="m167.88 198.21c-0.546 1.184-1.753 1.972-3.02 2.212"/>
		<path stroke-width="1.3692" d="m165.69 241.14c3.059-0.408 5.117-3.168 7.965-3.958 2.656-4.134 1.688-16.01 1.55-23.063-0.093-4.747-0.624-10.099 0.132-14.453"/>
		<path stroke-width=".8486" d="m196.3 199.66c0.959 1.238 3.027 1.8 4.311 0.76"/>
		<path stroke-width="1.1711" d="m225.46 200.93c1.46 0.309 3.384 0.678 4.563-0.507"/>
		<path stroke-width="1.1094" d="m230.02 200.42c-1.175-1.124-3.119-0.86-4.563-0.507"/>
		<path stroke-width="1.02" d="m165.69 241.14c-0.666-13.336-0.937-27.009-0.833-40.714"/>
		<path stroke-width="1.1178" d="m164.21 199.99c-0.042 0.016-0.084 0.031-0.127 0.047-1.647 13.181-0.408 27.501-0.626 41.062 0.695 0.246 1.606 0.637 2.238 0.039"/>
		<path stroke-width="1.121" d="m290.57 261.99c-1.119 18.055-2.007 37.503-3.753 55.579"/>
		<path stroke-width="1.2637" d="m278.78 276.6c0.914 8.863-0.406 18.174-2.017 26.684"/>
		<path stroke-width="1.3844" d="m276.76 303.28c3.801 3.988 7.194 8.483 9.044 13.776"/>
		<path stroke-width="1.4468" d="m261.16 292.01c4.587 4.042 10.949 6.767 15.602 11.274"/>
		<path stroke-width="1.7321" d="m286.82 330.75c0.454-2.993-0.272-6.07 0-9.128"/>
		<path stroke-width="1.1464" d="m255.89 295.76c15.513 6.755 31.248 25.446 19.65 42.216"/>
		<path stroke-width="1.459" d="m275.54 337.98c0.943 1.894 3.372 1.959 4.69 3.423"/>
		<path stroke-width="1.2624" d="m235.3 306.71c5.097 5.182 7.168 13.018 7.065 20.487"/>
		<path stroke-width="1.216" d="m219.88 347.48c-2.159-0.386-4.445-0.246-6.593 0"/>
		<path stroke-width="1.4747" d="m213.29 347.48c-0.13 0.157-0.26 0.314-0.39 0.472-7.94 0.972-19.31-2.871-22.684-10.783"/>
		<path stroke-width="1.3417" d="m190.22 337.17c-0.352-0.303-0.765-1.05-0.962-1.409 0.964-0.741 1.68-1.6 1.723-2.985"/>
		<path stroke-width="1.352" d="m181.68 299.06c-9.864 11-21.471 20.98-27.342 34.609"/>
		<path stroke-width="1.1816" d="m154.34 333.67c18.136 28.984 59.435 32.525 89.885 23.961"/>
		<path stroke-width="1.2126" d="m244.22 357.63c-0.095-0.165-0.19-0.33-0.285-0.495-7.087-2.655-15.15-3.438-21.521-7.111"/>
		<path stroke-width="1.0657" d="m236.79 334.98c0.458-1.12 1.604-1.794 2.366-2.705"/>
		<path stroke-width="1.4417" d="m197.37 306.71c-4.918 5.858-7.418 13.296-7.065 20.994"/>
		<path stroke-width="1.6665" d="m289.36 332.27c-0.846-0.498-1.69-1.022-2.536-1.521"/>
		<path stroke-width="1.8747" d="m286.82 330.75c-0.333 0.65-0.469 1.039-0.676 1.521"/>
		<path stroke-width="1.6036" d="m239.22 335.93c0.522-1.187 0.828-2.444 1.279-3.659"/>
		<path stroke-width="1.6819" d="m193.82 336.02c-0.082-1.073-0.775-1.972-1.065-2.992"/>
		<path stroke-width=".6547" d="m237.63 336.33c-0.336-0.518-0.542-0.938-0.846-1.353"/>
		<path stroke-width="1.0473" d="m236.79 334.98c-12.914 7.058-31.353 7.59-42.766-2.197"/>
		<path stroke-width="1.0516" d="m243.84 335.44c-1.196-0.429-1.972-1.415-2.155-2.662"/>
		<path stroke-width="1.5423" d="m243.84 335.44c-0.139 0.663-0.582 1.228-0.938 1.699"/>
		<path stroke-width="1.401" d="m242.9 337.14c-2.5 6.721-10.668 8.577-16.228 11.055"/>
		<path stroke-width="1.507" d="m266.26 334.62c-6.926-1.27-14.311-0.863-21.248-1.023-0.476 0.562-0.41 1.514-1.168 1.842"/>
		<path stroke-width="1.1938" d="m154.34 333.67c-1.747 1.787-2.605 4.29-3.423 6.72"/>
		<path stroke-width="1.2929" d="m269.96 365.36c0.469-0.278 1.002-0.96 1.395-1.395"/>
		<path stroke-width="1.1218" d="m271.35 363.97c-7.106-6.267 1.376-14.248 8.368-14.198"/>
		<path stroke-width="1.9884" d="m271.35 363.97c0.937-0.369 1.358-1.353 2.029-2.028"/>
		<path stroke-width="1.0637" d="m273.38 361.94c1.866-6.996 9.877-8.611 15.593-11.029"/>
		<path stroke-width="1.1225" d="m288.98 350.91c-0.113-0.323-0.271-0.616-0.432-0.907-1.349-0.597-3.014 0.232-4.259-0.741"/>
		<path stroke-width="1.9199" d="m288.98 350.91c0.475 0.122 0.998 0.463 1.395 0.888"/>
		<path stroke-width="1.622" d="m290.37 351.8c1.593-0.035 2.963-0.903 4.564-0.93"/>
		<path stroke-width="1.4682" d="m275.54 337.98c-3.314-0.497-5.896-4.148-9.278-3.354"/>
		<path stroke-width="1.1887" d="m266.26 334.62c-4.849 8.368-15.732 10.956-23.558 14.891"/>
		<path stroke-width="1.0971" d="m242.7 349.51c3.337 3.391 8.443 4.635 12.171 7.606"/>
		<path stroke-width="1.3736" d="m213.29 347.48c-0.57-1.3-0.062-2.724-0.331-4.064-6.452-1.926-13.292-3.54-19.142-7.396"/>
		<path stroke-width="1.5816" d="m193.82 336.02c-0.898 1.158-2.471 0.489-3.601 1.149"/>
		<path stroke-width="1.6181" d="m242.9 337.14c-1.162-0.712-2.949 0.329-3.68-1.21"/>
		<path stroke-width="1.7072" d="m239.22 335.93c-0.384 0.165-0.973 0.327-1.594 0.398"/>
		<path stroke-width="1.2522" d="m237.63 336.33c-4.754 4.099-11.256 4.882-17.064 6.639-0.922 1.333-0.01 3.094-0.685 4.518"/>
		<path stroke-width="1.6036" d="m219.88 347.48c0.056 0.169 0.112 0.338 0.169 0.507"/>
		<path stroke-width="1.1094" d="m125.31 470.71c1.603-31.688 10.972-66.106 18.123-94.649 2.468-9.851 4.115-21.304 8.5-29.592"/>
		<path stroke-width="1.4832" d="m125.7 437.32c-2.857 28.121-6.254 56.074-8.331 84.216"/>
		<path stroke-width="1.6301" d="m117.37 521.53c0.729 0.477 1.525 0.824 2.304 1.21"/>
		<path stroke-width="1.2569" d="m119.68 522.74c1.613-15.752 3.886-31.874 5.375-47.973"/>
		<path stroke-width="2.0521" d="m119.68 522.74c0.044 0.971 0.681 1.79 0.812 2.738"/>
		<path stroke-width="1.5107" d="m120.49 525.48c1.988 1.001 2.596 3.604 4.767 4.361"/>
		<path stroke-width="1.1915" d="m125.26 529.84c5.153-60.303 12.661-121.36 31.238-178.3"/>
		<path stroke-width="1.1149" d="m288.34 345.46c0.931 1.114 2.319 1.711 3.55 2.535"/>
		<path stroke-width="1.2668" d="m244.22 357.63c2.363-0.041 4.962 1.051 6.212 2.916"/>
		<path stroke-width="1.6432" d="m250.44 360.54c0.61 0.096 1.191 0.26 1.598 0.432"/>
		<path stroke-width="1.4455" d="m252.03 360.98c0.618-0.984 1.379-1.837 2.535-2.13"/>
		<path stroke-width="1.2178" d="m242.7 349.51c-5.179-1.055-11.246 1.024-16.024-1.318"/>
		<path stroke-width="1.8133" d="m226.68 348.2c-1.433 0.066-2.842 0.272-4.26 0.473"/>
		<path stroke-width="1.3713" d="m301.65 354.46c-0.65-1.82-2.34-3.412-4.184-3.931"/>
		<path stroke-width="1.0757" d="m161.56 353.32c0.507-0.015 1.014 0.116 1.521 0.254"/>
		<path stroke-width=".7172" d="m163.34 352.05c-0.124-0.446-1.025-0.438-1.521-0.761"/>
		<path stroke-width="1.1339" d="m273.38 361.94c5.704-3.311 11.364-7.013 16.987-10.142"/>
		<path stroke-width="1.9836" d="m297.2 354.43c-0.755-1.378-0.72-2.956-1.257-4.41"/>
		<path stroke-width="1.3569" d="m272.11 370.14c-0.053-0.88 0.147-2.067 0.261-2.761 1.351-1.301 3.12-2.407 4.811-3.155"/>
		<path stroke-width="1.5031" d="m253.27 369.88c-0.633-1.563-0.986-3.219-1.564-4.775"/>
		<path stroke-width="1.1225" d="m251.7 365.11c-4.233 1.583-8.629 2.508-13.058 3.169"/>
		<path stroke-width="1.1339" d="m238.64 368.28c-25.207 5.188-53.186 2.314-74.545-11.663"/>
		<path stroke-width="1.0803" d="m164.1 356.61c-1.265-0.711-2.893-1.085-3.549-2.536"/>
		<path stroke-width="1.5921" d="m125.26 529.84c0.403 0.797 0.708 1.64 1.116 2.435"/>
		<path stroke-width="1.4876" d="m126.37 532.28c39.669 30.942 96 34.515 143.08 20.715"/>
		<path stroke-width="1.219" d="m270.72 551.72c5.857-16.389 1.344-33.27-0.754-49.896-3.207-25.404-6.281-51.065-11.156-76.066-3.07-15.741-7.108-31.591-10.782-46.581"/>
		<path stroke-width="1.4623" d="m273.33 551.65c0.097-0.123 0.193-0.246 0.29-0.369 6.398-18.787 1.334-39.89-1.785-58.556-2.915-17.444-3.693-34.739-6.593-51.726-3.497-20.489-9.373-41.54-13.921-62.07"/>
		<path stroke-width="1.2929" d="m164.1 356.61c0.169-0.338 0.338-0.677 0.507-1.015"/>
		<path stroke-width=".9851" d="m187.76 362.87c-7.308-2.773-14.735-4.978-21.636-8.79"/>
		<path stroke-width="1.0757" d="m294.43 356.1c-0.144-0.554-0.332-0.962-0.607-1.287-1.067-0.254-1.755 0.629-2.436 1.287"/>
		<path stroke-width="1.5834" d="m352.93 574.54c0.813-0.693 1.788-1.231 2.853-1.395"/>
		<path stroke-width="1.411" d="m367.32 566.43c0.063-0.156 0.128-0.313 0.192-0.47 8.567-5.351 11.546-14.638 12.732-24.07 5.769-45.881-11.791-96.618-34.2-132.86-4.023-6.507-7.816-12.803-13.092-19.724-9.692-12.718-22.243-28.66-31.304-34.848"/>
		<path stroke-width="1.197" d="m301.65 354.46c-0.649 0.548-1.627 0.191-2.281 0.761"/>
		<path stroke-width="1.1757" d="m299.37 355.22c0.393 0.718 0.904 1.594 1.268 2.281"/>
		<path stroke-width="1.1224" d="m300.64 357.5c5.77 3.917 9.734 9.772 14.436 14.963 13.172 14.54 24.814 30.968 34.484 48.664 22.331 40.87 36.447 88.777 24.119 134.89-7.34 7.526-16.15 14.618-27.02 15.613"/>
		<path stroke-width="1.0919" d="m346.66 571.63c-0.677 0.888-1.108 1.94-1.268 3.042"/>
		<path stroke-width="2.1031" d="m299.37 355.22c-1.032-0.379-1.506-0.593-2.167-0.788"/>
		<path stroke-width="1.8424" d="m297.2 354.43c-0.187 0.357-0.437 0.93-0.865 1.428-0.571 0.22-1.252 0.215-1.912 0.247"/>
		<path stroke-width="1.2422" d="m294.43 356.1c-0.329 0.618-0.91 0.701-1.521 1.015"/>
		<path stroke-width="1.0757" d="m238.64 368.28c-0.229-0.781-0.212-1.402-0.254-1.943"/>
		<path stroke-width="1.2654" d="m222.67 367.9c-11.88 1.417-24.282-0.244-35.751-3.677"/>
		<path stroke-width="1.111" d="m186.92 364.22c-7.65-1.337-14.571-4.886-21.299-8.621"/>
		<path stroke-width="1.0746" d="m300.64 357.5c-10.539 2.951-20.128 8.928-27.131 17.496"/>
		<path stroke-width="2.1811" d="m252.03 360.98c0.126 0.445 0.271 0.818 0.417 1.188"/>
		<path stroke-width="1.5333" d="m252.45 362.16c1.117-0.205 2.003-0.901 2.93-1.493"/>
		<path stroke-width="1.0757" d="m222.42 366.25c0.178 0.5 0.193 1.072 0.254 1.648"/>
		<path stroke-width="1.1283" d="m222.67 367.9c5.428 0.469 10.526-0.913 15.72-1.563"/>
		<path stroke-width="1.0675" d="m250.44 360.54c-8.808 3.578-18.418 4.867-28.018 5.705"/>
		<path stroke-width="2.7309" d="m252.45 362.16c-0.024 0.062-0.049 0.123-0.074 0.185"/>
		<path stroke-width="1.7321" d="m260.45 364.6c-0.702-0.724-1.59-1.303-1.69-2.408"/>
		<path stroke-width="1.8517" d="m270.59 373.35c0.761-0.89 1.199-1.994 1.628-3.069"/>
		<path stroke-width="2.5355" d="m272.22 370.28c-0.036-0.048-0.071-0.095-0.107-0.143"/>
		<path stroke-width="1.3536" d="m272.11 370.14c-1.155-0.321-2.31-1.018-2.662-2.239"/>
		<path stroke-width="1.2482" d="m269.45 367.9c-1.96-0.482-3.495-2.104-4.359-3.872"/>
		<path stroke-width="2.1163" d="m265.09 364.02c-1.243-1.164-2.664-2.166-4.135-3.017"/>
		<path stroke-width="1.2757" d="m222.42 366.25c-11.811 0.486-23.404-1.069-34.652-3.381"/>
		<path stroke-width=".6547" d="m187.76 362.87c-0.207 0.389-0.489 0.885-0.845 1.353"/>
		<path stroke-width="1.5767" d="m251.7 365.11c0.39-0.793 0.701-1.501 0.673-2.76"/>
		<path stroke-width="1.1581" d="m252.38 362.35c-4.692 1.866-9.129 2.729-13.984 3.985"/>
		<path stroke-width="1.2273" d="m269.45 367.9c0.449-0.733 0.492-1.696 0.507-2.536"/>
		<path stroke-width="1.1857" d="m269.96 365.36c-1.756-0.186-2.958-2.131-4.866-1.336"/>
		<path stroke-width="1.3" d="m272.22 370.28c2.395-1.018 4.845-2.874 6.147-5.044"/>
		<path stroke-width="1.7072" d="m285.6 576.9c1.043 0.232 2.223 0.194 2.992 1.064"/>
		<path stroke-width="1.4854" d="m288.6 577.96c4.532 0.467 8.726 3.41 13.312 3.17"/>
		<path stroke-width="1.4911" d="m301.91 581.14c0.608-4.045-0.622-8.467 0.679-12.301 8.035 1.229 19.414 1.102 27.232-2.044 2.598-1.045 7.101-2.467 6.472-6.724 0.943-1.24 0.981-2.916 1.157-4.414"/>
		<path stroke-width="1.1784" d="m337.45 555.65c-0.47 0.037-1.225-0.043-1.944-0.253"/>
		<path stroke-width="1.2548" d="m335.5 555.4c-1.28 1.885-0.992 4.418-2.354 6.181-15.362 6.75-32.106 8.576-42.403-5.529-1.609-2.205-4.449-7.632-5.567-11.627-1.961-7.009-1.455-18.102-2.536-26.369-3.334-25.515-7.978-61.742-12.677-85.701-1.533-7.815-3.705-18.113-6.085-27.384-1.762-6.863-1.849-19.685 9.073-13.755 1.261 0.685 1.201 1.025 3.218 2.079"/>
		<path stroke-width="2.5355" d="m270.59 373.6v-0.254"/>
		<path stroke-width="1.1225" d="m270.59 373.35c-3.092-3.424-6.175-6.6-10.143-8.748"/>
		<path stroke-width="1.4236" d="m260.45 364.6c2.288 5.1-3.035 7.985-7.184 5.283"/>
		<path stroke-width="1.4171" d="m253.27 369.88c-1.511 1.85 0.234 4.382-0.592 6.508"/>
		<path stroke-width="1.2593" d="m280.23 395.15c0.617 0.329 0.7 0.909 1.014 1.521"/>
		<path stroke-width="1.2929" d="m327.26 473.63c0.182 0.113 0.429 0.271 0.68 0.432 0.161 0.515 0.346 1.418 0.461 2.23"/>
		<path stroke-width="1.0906" d="m328.4 476.29c0.443 0.823 0.786 1.628 1.015 2.536"/>
		<path stroke-width="1.0842" d="m335 498.6c0.229 0.676 0.219 1.352 0.253 2.028"/>
		<path stroke-width="1.2027" d="m336.35 506.89c0.087 0.056 0.175 0.111 0.262 0.167 0.292 0.855 0.196 1.858-0.093 2.707"/>
		<path stroke-width="3.0595" d="m336.77 513.56v1.015"/>
		<path stroke-width="1.2034" d="m336.77 514.58c2.735 2.972 1.732 7.626 2.113 11.409"/>
		<path stroke-width="1.4568" d="m301.91 581.14c6.998 2.938 15.292 1.949 22.354 2.578"/>
		<path stroke-width="2.3875" d="m324.26 583.71c0.624-0.187 1.199-0.355 1.606-0.423"/>
		<path stroke-width="1.4268" d="m325.87 583.29c1.852-1.343 4.386-1.294 6.592-1.521"/>
		<path stroke-width="1.1967" d="m346.66 571.63c12.99-73.739-22.924-145.7-73.15-196.63"/>
		<path stroke-width="1.197" d="m273.51 375c-1.034-0.338-1.911-0.984-2.915-1.395"/>
		<path stroke-width="1.8021" d="m270.59 373.6c-0.556 3.664-0.129 7.472-0.233 11.189 1.85 2.69 4.994 4.635 6.825 7.319"/>
		<path stroke-width="1.1527" d="m71.807 616.25c0.206-0.877 0.369-1.74 0.634-2.155"/>
		<path stroke-width="1.6036" d="m72.441 614.1c-0.042-0.127-0.084-0.254-0.127-0.38"/>
		<path stroke-width="1.1258" d="m72.314 613.72c-18.797-12.052-37.312-26.24-48.54-45.748-5.692-6.01-7.009-14.646-10.909-21.521-5.071-12.192-0.013-30.699 3.281-47.663 4.829-24.863 9.375-50.126 11.156-76.065 0.645-9.387 0.1-18.682 0.64-27.312"/>
		<path stroke-width="1.2063" d="m72.314 613.72c9.104-56.434 12.27-114.19 13.185-171.91"/>
		<path stroke-width="1.4343" d="m85.499 441.81l-0.507-0.507"/>
		<path stroke-width="1.4094" d="m84.992 441.3c-20.8-4.719-36.127-21.499-50.406-36.309"/>
		<path stroke-width="1.1381" d="m34.585 404.99c-0.097 0.121-0.194 0.243-0.291 0.365-0.38 37.385-10.18 83.717-16.869 116.9-1.871 9.283-0.582 17.073 3.163 26.551"/>
		<path stroke-width="1.9219" d="m34.585 404.99c-0.07-1.261-0.34-2.525-0.896-3.668"/>
		<path stroke-width="1.448" d="m33.689 401.32c-3.534-4.354-5.977-9.972-6.17-15.805"/>
		<path stroke-width="1.6385" d="m320.37 533c-2.287-1.981-3.269-5.274-3.33-8.232"/>
		<path stroke-width="1.4375" d="m317.04 524.77c-2.002-4.97-1.483-16.257-2.377-23.607-2.562-21.086-7.671-46.396-9.337-66.454"/>
		<path stroke-width="1.307" d="m335.5 555.4c-0.967-1.734 0.996-3.316 0.338-5.071"/>
		<path stroke-width="1.1651" d="m335.84 550.33c-2.631-0.231-5.46-1.309-7.286-3.168-8.783-6.386-15.297-14.146-15.741-30.809-0.431-16.189-4.815-32.172-5.962-45.64"/>
		<path stroke-width="1.2883" d="m335.84 550.33c0.441-0.973 0.671-2.224 0.043-3.17"/>
		<path stroke-width="1.3251" d="m335.88 547.16c-3.117-0.043-5.717-2.438-7.987-4.437"/>
		<path stroke-width="1.4343" d="m278.49 395.52c0.083 1.094 0.882 1.924 1.739 2.342"/>
		<path stroke-width="1.3771" d="m326 473.88c-0.809-0.798-1.293-2.047-0.973-3.17"/>
		<path stroke-width="1.0955" d="m317.75 454.99c-0.162-0.508-0.309-1.015-0.507-1.521"/>
		<path stroke-width="1.0955" d="m317.25 453.47c-0.163-0.507-0.31-1.015-0.507-1.521"/>
		<path stroke-width="1.483" d="m328.32 505.62c0.367-6.898-0.094-13.843-0.677-20.707"/>
		<path stroke-width="1.1455" d="m122.77 437.75c-1.611 22.341-7.159 54.935-8.995 82.984-0.924 14.109 0.562 29.81 8.495 43.255 0.85 1.439 1.922 2.416 2.392 3.409 1.931 4.085-0.201 6.394-1.251 10.64-2.8 11.313-2.187 21.812-0.64 33.27"/>
		<path stroke-width="1.3202" d="m123.28 611.56c0.887-0.153 1.786-0.278 2.662-0.508"/>
		<path stroke-width="1.3321" d="m125.94 611.05c-2.285-13.772-1.833-28.439 3.296-41.582"/>
		<path stroke-width="1.4833" d="m129.24 569.47c-0.542-1.119-1.496-2.164-1.243-3.524"/>
		<path stroke-width="1.4177" d="m127.99 565.95c-7.359-8.556-11.028-20.708-10.62-31.738"/>
		<path stroke-width="1.8284" d="m75.284 614.88c0.113 0.155 0.22 0.26 0.326 0.362"/>
		<path stroke-width="1.1825" d="m75.61 615.24c4.11 0.525 8.229-1.037 12.424-0.761"/>
		<path stroke-width="1.2185" d="m74.723 617.9c0.081 0.114 0.161 0.229 0.241 0.344 16.078-0.423 32.314-2.835 48.568-4.021"/>
		<path stroke-width="1.0757" d="m123.53 614.22c-0.275-0.835-0.227-1.674-0.253-2.662"/>
		<path stroke-width="1.1339" d="m123.28 611.56c-0.169-0.085-0.338-0.169-0.507-0.254"/>
		<path stroke-width="1.1475" d="m122.77 611.31c-2.104 0.304-4.161 0.866-6.339 0.634"/>
		<path stroke-width="1.3202" d="m72.441 614.1c0.9 0.444 1.943 0.316 2.843 0.778"/>
		<path stroke-width="1.2701" d="m75.284 614.88c8.857-56.567 12.848-114.65 13.257-172.56"/>
		<path stroke-width="1.4343" d="m88.542 442.31c-0.169-0.17-0.338-0.338-0.507-0.508"/>
		<path stroke-width="1.0556" d="m319.53 453.98c-0.113-0.937-1.032-1.589-1.268-2.535"/>
		<path stroke-width="1.5767" d="m326 473.88c0.425-0.082 0.859-0.155 1.268-0.254"/>
		<path stroke-width="1.1213" d="m327.26 473.63c0.036-1.1-0.289-2.438-1.395-2.916"/>
		<path stroke-width=".8783" d="m326.88 477.3c0.508-0.326 1.015-0.619 1.521-1.015"/>
		<path stroke-width="1.2792" d="m326 473.88c-0.132 1.201 0.05 2.491 0.887 3.423"/>
		<path stroke-width="1.5092" d="m326.88 477.3c0.059 1.05 0.352 1.564 0.677 2.535"/>
		<path stroke-width="1.7688" d="m336.52 531.06c0.428-0.845 0.526-1.69 1.014-2.535"/>
		<path stroke-width="1.1564" d="m334.74 507.22c-0.101-0.108-0.235-0.222-0.372-0.335-0.129-0.882-0.313-1.813-0.22-2.707"/>
		<path stroke-width="1.1659" d="m332.97 499.11c-0.229-0.677-0.219-1.353-0.254-2.028"/>
		<path stroke-width="1.4824" d="m331.45 492.01c-0.522-1.298-1.124-2.622-1.015-4.057"/>
		<path stroke-width="1.0894" d="m332.71 491c0.218-1.323-0.619-2.268-0.761-3.55"/>
		<path stroke-width=".8281" d="m332.97 499.11c0.514 0.074 1.294-0.086 2.028-0.507"/>
		<path stroke-width="1.1784" d="m335 498.1c-0.123-0.697-0.397-1.067-1.015-1.521"/>
		<path stroke-width="1.0842" d="m332.97 499.11c0.254 0.845 0.192 1.69 0.507 2.535"/>
		<path stroke-width=".6211" d="m334.74 507.22c0.694 0.02 1.131-0.154 1.606-0.338"/>
		<path stroke-width="1.0824" d="m336.35 506.89c-0.211-0.889 0.112-1.859-0.339-2.704"/>
		<path stroke-width="1.8512" d="m328.91 517.37c-0.186-3.845 1.28-8.29-0.592-11.748"/>
		<path stroke-width="1.3515" d="m328.32 505.62c-3.374 6.075-5.218 14.371-11.275 19.151"/>
		<path stroke-width="2.5608" d="m335.76 509.76h0.761"/>
		<path stroke-width="1.4343" d="m334.74 507.22c-0.091 0.933-0.015 2.156 1.015 2.536"/>
		<path stroke-width="1.5465" d="m336.77 513.56c1.143-1.001 0.708-2.846-0.253-3.803"/>
		<path stroke-width="1.3701" d="m335.76 509.76c-0.343 0.652-0.527 1.694-0.428 2.531 0.418 0.521 1.021 0.889 1.441 1.271"/>
		<path stroke-width="1.2062" d="m336.77 514.58c-1.417 3.488 0.19 7.692 0.254 11.409"/>
		<path stroke-width="1.9019" d="m330.04 522.46c0.193-1.751-0.165-3.541-1.126-5.099"/>
		<path stroke-width="1.3774" d="m328.91 517.37c-3.719 4.387-3.579 11.706-8.537 15.636"/>
		<path stroke-width="1.3905" d="m320.37 533c1.031 3.097 2.804 5.97 5.494 7.86"/>
		<path stroke-width="1.5875" d="m117.37 534.21c0.367 0.236 1.336 0.754 1.974 1.032"/>
		<path stroke-width="1.1672" d="m119.35 535.24c1.247-3.048-0.711-6.94 1.141-9.762"/>
		<path stroke-width="1.6192" d="m117.37 521.53c-0.744 4.058-0.667 8.564 0 12.678"/>
		<path stroke-width="1.4389" d="m335.88 547.16c1.229-5.157 1.614-10.857 0.634-16.101"/>
		<path stroke-width="1.3454" d="m336.52 531.06c-3.61-1.737-2.825-7.29-6.48-8.593"/>
		<path stroke-width="1.6684" d="m330.04 522.46c-0.327 6.106-0.3 12.376-2.952 17.924"/>
		<path stroke-width="1.2608" d="m120.79 537.85c2.016 1.472 3.852 3.188 5.654 4.994"/>
		<path stroke-width="1.0944" d="m126.45 542.85c1.293-3.449-1.617-7.194-0.076-10.572"/>
		<path stroke-width="1.2024" d="m337.45 555.65c1.439-8.721 2.532-17.789 1.437-26.623"/>
		<path stroke-width="1.6928" d="m126.45 542.85c0.742 0.894 1.628 1.645 2.324 2.578"/>
		<path stroke-width="1.0814" d="m266.54 564.53c-0.418-4.15 3.237-7.382 2.916-11.537"/>
		<path stroke-width="2.0599" d="m127.99 565.95c0.563-0.106 1.208-0.117 1.876-0.152"/>
		<path stroke-width="1.0769" d="m129.87 565.8c-3.923-8.684-9.721-18.004-9.077-27.941"/>
		<path stroke-width="1.5213" d="m120.79 537.85c-0.308-0.973-1.125-1.647-1.445-2.612"/>
		<path stroke-width="1.3848" d="m129.87 565.8c23.572 19.994 65.86 26.916 100.48 24.474 18.714-1.32 40.526-5.204 55.253-13.368"/>
		<path stroke-width="1.461" d="m285.6 576.9c-4.88-4.542-14.69-5.27-16.836-12.069"/>
		<path stroke-width="1.6036" d="m268.77 564.83c-0.515-0.275-1.418-0.284-2.231-0.304"/>
		<path stroke-width="1.4767" d="m266.54 564.53c-45.052 13.97-99.164 9.455-137.76-19.102"/>
		<path stroke-width="1.0797" d="m128.77 545.43c-0.364 6.144 4.318 11.615 6.677 17.072"/>
		<path stroke-width="1.3279" d="m268.77 564.83c2.046-3.688 3.713-8.941 4.564-13.185"/>
		<path stroke-width="1.6432" d="m273.33 551.65c-0.845 0.229-1.757 0.284-2.612 0.076"/>
		<path stroke-width="1.4929" d="m270.72 551.72c-0.422 0.423-0.845 0.845-1.268 1.268"/>
		<path stroke-width="1.4274" d="m363.25 571.7c1.243 3.066-3.416 6.568-5.096 2.97"/>
		<path stroke-width="1.5733" d="m348.46 583.1c-1.84-0.859-3.154-2.881-3.319-4.887"/>
		<path stroke-width="1.7197" d="m343.11 577.54c-0.352 0.128-0.726 0.326-1.115 0.574"/>
		<path stroke-width="1.5608" d="m339.16 591.84c-2.745-1.017-3.527-4.029-4.334-6.52"/>
		<path stroke-width="1.0877" d="m288.6 577.96c-15.449 8.902-33.62 12.129-51.472 14.453"/>
		<path stroke-width="1.1903" d="m129.24 569.47c19.514 12.361 39.797 20.207 70.285 23.202 14.666 1.441 27.307 0.729 34.526 5.581 14.967 10.059 30.102 33.76 28.177 58.565"/>
		<path stroke-width="1.4037" d="m126.57 613.72c14.091 11.612 38.588 20.673 58.643 23.954 16.045 2.626 31.458 1.301 44.118 5.573 11.57 3.904 21.894 14.704 31.44 16.738 1.233 0.263 3.708 0.352 4.492-0.373"/>
		<path stroke-width="1.0868" d="m265.27 659.61c2.744-26.394-11.689-53.407-34.483-66.431"/>
		<path stroke-width="1.3795" d="m265.27 659.61c6.664-1.203 16.205-4.275 23.906-6.965 18.978-6.628 45.881-20.145 63.896-34.977 10.676-8.789 24.074-19.36 22.45-31.312-0.875-6.434-4.629-13.706-8.196-19.928"/>
		<path stroke-width="1.4424" d="m367.32 566.43c-1.38 0.033-2.276 1.168-2.713 2.358"/>
		<path stroke-width="1.0189" d="m364.61 568.79c8.552 12.735 10.739 22.322 2.988 31.362-23.909 27.884-51.046 36.701-76.235 48.766-7.574 1.827-15.29 4.91-22.8 7.145"/>
		<path stroke-width="1.6665" d="m364.61 568.79c-0.509 0.235-1.198 0.555-1.725 0.811"/>
		<path stroke-width="1.3841" d="m348.46 583.1c2.377-0.199 4.192-1.108 5.809-2.858"/>
		<path stroke-width="1.8828" d="m354.26 580.25c-0.301-1.523-0.442-3.099-1.014-4.563"/>
		<path stroke-width="1.4131" d="m339.16 591.84c2.058-0.298 3.744-1.183 5.217-2.716"/>
		<path stroke-width="1.7197" d="m344.38 589.12c-0.025-2.802-0.198-5.692-2.384-7.759"/>
		<path stroke-width="1.4953" d="m348.46 583.1c0.77 5.458 8.603 1.247 5.809-2.858"/>
		<path stroke-width="1.3616" d="m324.26 583.71c-7.697 8.192-19.562 11.782-28.494 18.373 1.62 5.857 4.575 12.224 7.095 17.878 10.583-5.456 21.585-10.222 30.256-18.419-0.636-6.447-3.875-12.692-7.25-18.255"/>
		<path stroke-width="1.3874" d="m339.16 591.84c0.19 2.292 3.479 3.587 5.057 1.78 0.401-1.438 1.621-3.252 0.16-4.496"/>
		<path stroke-width="1.1339" d="m123.53 614.22c0.957-0.478 2.09 0 3.042-0.507"/>
		<path stroke-width="1.1339" d="m126.57 613.72c-0.428-0.837-0.013-1.891-0.634-2.663"/>
		<path stroke-width="1.5307" d="m71.807 616.25c0.719 0.972 1.708 1.582 2.916 1.648"/>
		<path stroke-width=".9982" d="m74.723 617.9c0.75-0.675 0.943-1.7 0.888-2.663"/>
		<path stroke-width="1.0263" d="m231.04 181.15c25.236-1.784 55.482-11.636 72.638-26.724 20.486-18.017 22.983-43.634 1.039-63.162-1.69-1.504-4.767-3.522-7.369-5.301-0.725-1.962-3.098-1.926-4.271-3.361"/>
		<path stroke-width=".9762" d="m304.06 616c5.292-2.457 12.422-6.243 18.085-10.005 3.233-2.148 7.113-3.526 7.15-7.311 0.028-2.936-2.948-6.887-3.684-10.068"/>
	</g>
</g>
<metadata><rdf:RDF><cc:Work><dc:format>image/svg+xml</dc:format><dc:type rdf:resource="http://purl.org/dc/dcmitype/StillImage"/><cc:license rdf:resource="http://creativecommons.org/licenses/publicdomain/"/><dc:publisher><cc:Agent rdf:about="http://openclipart.org/"><dc:title>Openclipart</dc:title></cc:Agent></dc:publisher><dc:title>coffee maker</dc:title><dc:date>2006-11-20T21:41:43</dc:date><dc:description>a coffee maker from a US patent illustration</dc:description><dc:source>http://openclipart.org/detail/1551/coffee-maker-by-johnny_automatic</dc:source><dc:creator><cc:Agent><dc:title>johnny_automatic</dc:title></cc:Agent></dc:creator><dc:subject><rdf:Bag><rdf:li>appliance</rdf:li><rdf:li>beverage</rdf:li><rdf:li>clip art</rdf:li><rdf:li>clipart</rdf:li><rdf:li>coffee</rdf:li><rdf:li>coffee maker</rdf:li><rdf:li>externalsource</rdf:li><rdf:li>household</rdf:li><rdf:li>image</rdf:li><rdf:li>kitchen</rdf:li><rdf:li>media</rdf:li><rdf:li>png</rdf:li><rdf:li>public domain</rdf:li><rdf:li>svg</rdf:li><rdf:li>uspto</rdf:li></rdf:Bag></dc:subject></cc:Work><cc:License rdf:about="http://creativecommons.org/licenses/publicdomain/"><cc:permits rdf:resource="http://creativecommons.org/ns#Reproduction"/><cc:permits rdf:resource="http://creativecommons.org/ns#Distribution"/><cc:permits rdf:resource="http://creativecommons.org/ns#DerivativeWorks"/></cc:License></rdf:RDF></metadata></svg>
