<?xml version="1.0"?>
<svg xmlns:rdf="http://www.w3.org/1999/02/22-rdf-syntax-ns#" xmlns="http://www.w3.org/2000/svg" xmlns:cc="http://web.resource.org/cc/" xmlns:dc="http://purl.org/dc/elements/1.1/" xmlns:svg="http://www.w3.org/2000/svg" viewBox="0 0 468 468" version="1.0">
  <g transform="translate(0 468) scale(.0936 -.0936)">
    <path d="m3747 4880c-9-11-17-24-17-29s-19-31-43-57c-24-27-46-57-50-66-3-10-11-18-17-18-5 0-13-18-16-41-4-23-15-46-25-52-11-7-19-22-19-35 0-15-7-26-20-29-11-3-20-12-20-19 0-8-4-14-8-14-5 0-14-16-22-35s-17-35-22-35c-4 0-8-6-8-14 0-7-8-24-19-37-10-13-21-41-25-63-5-26-14-40-27-43-11-3-19-14-19-27 0-11-14-34-30-50-17-15-37-42-46-60-22-47-48-91-56-94-5-2-8-12-8-22 0-9-7-23-15-30-18-15-45-68-45-89 0-9-15-31-34-49l-34-33-1126-3c-828-3-1130-7-1140-15-8-7-20-10-27-9-7 2-18-7-24-20-14-26-50-62-62-62-9 0-53-79-53-95 0-5-9-21-20-35s-20-35-20-47-4-25-10-28c-5-3-10-14-10-23 0-23-27-76-68-131-18-25-32-56-32-72s-7-32-17-38c-15-8-18-28-21-120-3-85-1-111 9-111 7 0 27-17 45-37l33-36 143-2c79 0 149 4 156 9 15 11 79 13 89 3 11-12 48-8 69 8 22 17 60 20 69 5 9-14 59-12 73 2 16 16 760 14 776-2 13-13 422-14 431 0s125 13 125-1c0-7 12-10 30-7s35-1 41-9c12-14 4-83-11-83-4 0-18-21-31-47-12-27-27-54-33-62-6-7-10-23-11-35 0-12-9-25-22-31-13-5-23-14-23-20 0-5-9-21-20-35s-20-35-20-47-9-27-19-32c-10-6-24-24-29-41-6-16-16-30-21-30-6 0-14-19-18-42-4-27-16-53-32-68-15-14-32-37-38-52-7-16-17-28-23-28-5 0-17-15-25-32-8-18-26-51-40-73-13-22-27-48-31-57-3-9-13-19-22-23-10-3-231-5-492-4-780 4-790 4-818-40-9-14-25-32-34-39-10-7-18-19-18-27s-8-20-18-27c-27-20-62-74-62-96 0-12-4-23-9-26-10-7-51-87-51-102 0-5-9-20-20-34s-20-35-20-47c0-32-10-53-26-53-8 0-14-10-14-22s-8-30-18-41c-14-16-17-39-17-132 0-97 3-116 19-134 11-12 29-21 41-21 13 0 28-7 35-15 14-17 50-20 50-5 0 13 97 13 105 0s55-13 55 0c0 6 18 10 39 10 22 0 43-4 46-10 10-16 62-12 69 5 4 12 22 15 83 14 43-1 174 2 291 6s224 4 238 1c20-5 24-12 24-44 0-28-7-44-29-65-16-15-35-41-43-57-7-17-16-30-20-30-5 0-8-8-8-18 0-11-9-27-20-37s-20-24-20-30c0-7-9-24-20-38s-20-35-20-47c0-13-8-24-18-27-18-4-25-15-57-82-9-18-34-63-56-98-21-36-39-69-39-74s-4-9-10-9c-5 0-13-18-16-39-4-26-20-54-45-82-22-24-39-51-39-60s-9-24-20-34-20-24-20-32c0-7-3-13-7-13-14 0-33-53-33-90 0-32 5-39 53-70 71-47 109-69 130-76 9-4 17-10 17-15 0-4 15-11 34-15 39-7 80 16 92 50 4 11 10 24 15 30 21 25 57 85 63 104 4 11 13 26 21 32 8 7 15 19 15 27s15 33 34 56 37 54 41 69 15 34 26 44c10 9 19 23 19 31 0 7 4 13 9 13s11 8 15 18c7 21 31 63 74 125 17 26 32 51 32 56 0 4 11 22 25 41s25 41 25 50 9 25 20 35 20 28 20 40 13 34 30 50c16 16 28 31 25 33-2 2 2 11 10 19s15 26 15 40c0 16 7 27 20 30 11 3 20 12 20 19 0 8 3 14 8 14 4 0 13 15 21 33 8 17 18 35 23 38s17 21 26 39l17 34 975 3c536 1 988 5 1005 9 30 7 41 11 82 32 13 7 30 12 39 12s33 14 54 30c21 17 42 30 48 30 5 0 19 16 31 35 11 19 25 35 31 35 5 0 10 11 10 24 0 16 7 27 20 31 11 3 20 11 20 16 0 6 7 17 15 25 8 9 15 26 15 40s7 27 15 30c8 4 15 14 15 23s9 34 20 56 20 51 20 65 11 41 25 60 25 39 25 46c0 6 7 25 15 40 15 30 20 101 9 142-4 13-17 25-33 29-14 3-30 12-36 18-5 7-37 16-70 19-33 4-64 11-69 16-13 13-63 13-71 0-4-6-55-10-120-10s-116 4-120 10c-8 14-58 13-73-2-6-6-52-13-109-14-195-7-772-6-1005 1l-238 8-6 24c-4 13-1 30 5 36s11 19 11 28c0 25 33 79 48 79 6 0 12 11 12 25s8 29 19 34c10 6 24 24 29 41 6 16 15 30 20 30s13 8 16 18c4 9 17 35 31 57 13 22 32 54 41 70 9 17 20 32 23 35 4 3 13 21 21 40s20 39 27 43 13 14 13 21c0 8 7 19 15 26s15 23 15 37c0 13 11 35 25 49s25 33 25 44c0 10 8 25 18 32s31 30 46 51l28 37h369c234 0 370-4 374-10 8-12 122-13 129-1 3 5 35 12 71 16 36 3 65 10 65 14s19 12 43 18c25 7 59 28 84 52 23 23 48 41 56 41 15 0 57 41 57 55 0 21 43 95 56 95 8 0 16 15 20 40 4 22 13 45 20 51 8 6 14 20 14 31s9 31 20 45 20 34 20 44 4 21 10 24c5 3 14 25 20 48s15 51 20 62c4 11 11 47 14 81 6 67-10 104-44 104-10 0-22 9-25 20s-13 20-21 20-24 6-35 13c-17 10-23 10-26 0-6-16-189-18-198-3-3 6-33 10-65 10s-62-4-65-10c-9-14-58-13-73 2-9 9-17 9-36-2-18-9-74-13-193-14-155-1-168 0-171 17-2 10 3 26 12 36s14 20 11 23 1 11 10 18c8 7 15 22 15 34 0 13 12 32 26 45 14 12 32 38 40 57s19 34 24 34c6 0 10 6 10 14 0 7 9 25 21 39 11 15 23 43 26 63 4 24 12 38 25 42 12 3 18 14 18 33 0 16 5 29 10 29 6 0 15 11 20 25s15 25 23 25c7 0 18 12 24 28 12 27 16 34 60 103 13 19 23 44 23 55 0 10 13 32 29 47 23 21 31 40 36 81 7 57 0 96-17 96-6 0-26 14-46 31-19 17-54 39-77 49-24 10-46 23-49 29-12 19-70 13-89-9z"/>
  </g>
  <metadata>
    <rdf:RDF>
      <cc:Work>
        <dc:format>image/svg+xml</dc:format>
        <dc:type rdf:resource="http://purl.org/dc/dcmitype/StillImage"/>
        <cc:license rdf:resource="http://creativecommons.org/licenses/publicdomain/"/>
        <dc:publisher>
          <cc:Agent rdf:about="http://openclipart.org/">
            <dc:title>Openclipart</dc:title>
          </cc:Agent>
        </dc:publisher>
        <dc:title>Not Equal To 5</dc:title>
        <dc:date>2012-02-06T15:45:40</dc:date>
        <dc:description>Not Equal To</dc:description>
        <dc:source>http://openclipart.org/detail/167819/not-equal-to-5-by-dripsandcastle</dc:source>
        <dc:creator>
          <cc:Agent>
            <dc:title>dripsandcastle</dc:title>
          </cc:Agent>
        </dc:creator>
        <dc:subject>
          <rdf:Bag>
            <rdf:li>clip art</rdf:li>
            <rdf:li>clipart</rdf:li>
            <rdf:li>is not</rdf:li>
            <rdf:li>is not equal</rdf:li>
            <rdf:li>math</rdf:li>
            <rdf:li>not equal to</rdf:li>
          </rdf:Bag>
        </dc:subject>
      </cc:Work>
      <cc:License rdf:about="http://creativecommons.org/licenses/publicdomain/">
        <cc:permits rdf:resource="http://creativecommons.org/ns#Reproduction"/>
        <cc:permits rdf:resource="http://creativecommons.org/ns#Distribution"/>
        <cc:permits rdf:resource="http://creativecommons.org/ns#DerivativeWorks"/>
      </cc:License>
    </rdf:RDF>
  </metadata>
</svg>
