<?xml version="1.0" ?><!DOCTYPE svg  PUBLIC '-//W3C//DTD SVG 1.1//EN'  'http://www.w3.org/Graphics/SVG/1.1/DTD/svg11.dtd'><svg enable-background="new 0 0 48 48" height="48px" version="1.1" viewBox="0 0 48 48" width="48px" xml:space="preserve" xmlns="http://www.w3.org/2000/svg" xmlns:xlink="http://www.w3.org/1999/xlink"><g id="Expanded"><g><g><path d="M45,48H1c-0.552,0-1-0.447-1-1v-6c0-0.553,0.448-1,1-1h19V22H7c-0.552,0-1-0.447-1-1V1c0-0.553,0.448-1,1-1h37     c2.206,0,4,1.794,4,4v22l-2.004,21.095C45.947,47.608,45.516,48,45,48z M2,46h42.091l1.914-20.095L46,4c0-1.103-0.897-2-2-2H8v18     h13c0.552,0,1,0.447,1,1v20c0,0.553-0.448,1-1,1H2V46z"/></g><g><path d="M38,47h-2V25c0-0.553,0.448-1,1-1h10v2h-9V47z"/></g><g><path d="M47,12H35c-0.552,0-1-0.447-1-1s0.448-1,1-1h12c0.552,0,1,0.447,1,1S47.552,12,47,12z"/></g><g><path d="M47,16H35c-0.552,0-1-0.447-1-1s0.448-1,1-1h12c0.552,0,1,0.447,1,1S47.552,16,47,16z"/></g><g><path d="M47,20H35c-0.552,0-1-0.447-1-1s0.448-1,1-1h12c0.552,0,1,0.447,1,1S47.552,20,47,20z"/></g><g><path d="M17,33H9c-0.552,0-1-0.447-1-1v-4c0-0.553,0.448-1,1-1h8c0.552,0,1,0.447,1,1v4C18,32.553,17.552,33,17,33z M10,31h6v-2     h-6V31z"/></g><g><path d="M9,31H1c-0.552,0-1-0.447-1-1s0.448-1,1-1h8c0.552,0,1,0.447,1,1S9.552,31,9,31z"/></g><g><rect height="7" width="2" x="14" y="21"/></g><g><rect height="7" width="2" x="10" y="21"/></g><g><path d="M14,12c-2.206,0-4-1.794-4-4s1.794-4,4-4s4,1.794,4,4S16.206,12,14,12z M14,6c-1.103,0-2,0.897-2,2s0.897,2,2,2     s2-0.897,2-2S15.103,6,14,6z"/></g><g><path d="M13,35c-0.552,0-1-0.447-1-1v-2c0-0.553,0.448-1,1-1s1,0.447,1,1v2C14,34.553,13.552,35,13,35z"/></g></g></g></svg>