<?xml version="1.0" encoding="UTF-8" standalone="no"?>
<svg
   xmlns:dc="http://purl.org/dc/elements/1.1/"
   xmlns:cc="http://creativecommons.org/ns#"
   xmlns:rdf="http://www.w3.org/1999/02/22-rdf-syntax-ns#"
   xmlns:svg="http://www.w3.org/2000/svg"
   xmlns="http://www.w3.org/2000/svg"
   xmlns:xlink="http://www.w3.org/1999/xlink"
   xmlns:sodipodi="http://sodipodi.sourceforge.net/DTD/sodipodi-0.dtd"
   xmlns:inkscape="http://www.inkscape.org/namespaces/inkscape"
   id="svg2"
   viewBox="0 0 1864.3 907.91"
   version="1.1"
   inkscape:version="0.48.4 r9939"
   width="100%"
   height="100%"
   sodipodi:docname="speedometers.svg">
  <sodipodi:namedview
     pagecolor="#ffffff"
     bordercolor="#666666"
     borderopacity="1"
     objecttolerance="10"
     gridtolerance="10"
     guidetolerance="10"
     inkscape:pageopacity="0"
     inkscape:pageshadow="2"
     inkscape:window-width="770"
     inkscape:window-height="898"
     id="namedview328"
     showgrid="false"
     inkscape:zoom="0.18505605"
     inkscape:cx="932.15"
     inkscape:cy="453.955"
     inkscape:window-x="37"
     inkscape:window-y="0"
     inkscape:window-maximized="0"
     inkscape:current-layer="svg2" />
  <defs
     id="defs6">
    <linearGradient
       id="linearGradient5296">
      <stop
         id="stop5298"
         offset="0" />
      <stop
         id="stop5306"
         offset=".92" />
      <stop
         id="stop5304"
         stop-color="#4d4d4d"
         offset=".96" />
      <stop
         id="stop5300"
         offset="1" />
    </linearGradient>
    <filter
       id="filter4025"
       color-interpolation-filters="sRGB">
      <feGaussianBlur
         id="feGaussianBlur4027"
         stdDeviation="2.4399419" />
    </filter>
    <filter
       id="filter4125"
       height="1.2542"
       width="1.1878"
       y="-.12708"
       x="-.0939"
       color-interpolation-filters="sRGB">
      <feGaussianBlur
         id="feGaussianBlur4127"
         stdDeviation="18.205449" />
    </filter>
    <radialGradient
       id="radialGradient4298"
       gradientUnits="userSpaceOnUse"
       cy="737.28"
       cx="3219.2"
       gradientTransform="matrix(.99668 -.58530 .036573 .062279 -17.136 2596.9)"
       r="151.45">
      <stop
         id="stop4031"
         stop-color="#cc2929"
         offset="0" />
      <stop
         id="stop4033"
         stop-color="#ff3433"
         offset="1" />
    </radialGradient>
    <clipPath
       id="clipPath3227"
       clipPathUnits="userSpaceOnUse">
      <path
         id="path3229"
         d="m2364.5 456.48a92.044 92.044 0 0 1 143.26 18.645l-78.993 47.245z"
         transform="matrix(4.1841 -.35869 .35869 4.1841 -7276.6 -471.07)"
         stroke="#000"
         stroke-width=".23813"
         fill="none" />
    </clipPath>
    <filter
       id="filter4386"
       color-interpolation-filters="sRGB">
      <feGaussianBlur
         id="feGaussianBlur4388"
         stdDeviation="7.087174" />
    </filter>
    <filter
       id="filter4829"
       color-interpolation-filters="sRGB">
      <feGaussianBlur
         id="feGaussianBlur4831"
         stdDeviation="6.996816" />
    </filter>
    <filter
       id="filter5024"
       height="1.5707"
       width="1.2629"
       y="-.28535"
       x="-.13146"
       color-interpolation-filters="sRGB">
      <feGaussianBlur
         id="feGaussianBlur5026"
         stdDeviation="3.2568975" />
    </filter>
    <filter
       id="filter5061"
       height="1.7148"
       width="1.2406"
       y="-.35739"
       x="-.12029"
       color-interpolation-filters="sRGB">
      <feGaussianBlur
         id="feGaussianBlur5063"
         stdDeviation="3.3068835" />
    </filter>
    <filter
       id="filter5077"
       height="1.36"
       width="1.36"
       y="-.18"
       x="-.18"
       color-interpolation-filters="sRGB">
      <feGaussianBlur
         id="feGaussianBlur5079"
         stdDeviation="57.355934" />
    </filter>
    <filter
       id="filter5081"
       height="1.36"
       width="1.36"
       y="-.18"
       x="-.18"
       color-interpolation-filters="sRGB">
      <feGaussianBlur
         id="feGaussianBlur5083"
         stdDeviation="57.355934" />
    </filter>
    <filter
       id="filter5257"
       height="1.2498"
       width="1.1903"
       y="-.12489"
       x="-.095135"
       color-interpolation-filters="sRGB">
      <feGaussianBlur
         id="feGaussianBlur5259"
         stdDeviation="17.89099" />
    </filter>
    <radialGradient
       id="radialGradient5302"
       xlink:href="#linearGradient5296"
       gradientUnits="userSpaceOnUse"
       cy="752.99"
       cx="635.97"
       gradientTransform="matrix(1 0 0 .99997 0 .025769)"
       r="453.97" />
    <radialGradient
       id="radialGradient5912"
       xlink:href="#linearGradient5296"
       gradientUnits="userSpaceOnUse"
       cy="752.99"
       cx="635.97"
       gradientTransform="matrix(1 0 0 .99997 956.33 -36.792)"
       r="453.97" />
  </defs>
  <g
     id="g5610"
     transform="translate(-182 -295.94)">
    <path
       id="path5291"
       fill="url(#radialGradient5302)"
       d="m635.97 295.94c-250.72 0-453.97 203.25-453.97 453.97s203.25 453.94 453.97 453.94 453.97-203.22 453.97-453.94-203.25-453.97-453.97-453.97zm0 37.406c230.05 0 416.56 186.51 416.56 416.56s-186.51 416.53-416.56 416.53-416.53-186.48-416.53-416.53 186.48-416.56 416.53-416.56z" />
    <g
       id="g5469">
      <path
         id="path3031"
         d="m2017.6 860.75c0 211.18-171.19 382.37-382.37 382.37s-382.37-171.19-382.37-382.37 171.19-382.37 382.37-382.37 382.37 171.19 382.37 382.37z"
         transform="matrix(1.0894 0 0 1.0894 -1145.4 -187.77)" />
      <g
         id="g4498"
         transform="translate(-2296.5 -64.431)">
        <g
           id="g4319"
           filter="url(#filter4386)">
          <path
             id="path3805"
             d="m3170.7 1055.6 29.972 29.972"
             stroke="#3380ff"
             stroke-width="10"
             fill="none" />
          <path
             id="path3815"
             d="m3235.3 991.32 26.237 15.148"
             stroke="#3380ff"
             stroke-width="6"
             fill="none" />
          <path
             id="use3849"
             d="m3258.8 903.33 40.942 10.97"
             stroke="#3380ff"
             stroke-width="10"
             fill="none" />
          <path
             id="use3853"
             d="m3258.8 727.41 40.942-10.97"
             stroke="#3380ff"
             stroke-width="10"
             fill="none" />
          <path
             id="use3855"
             d="m3170.9 575.03 29.972-29.972"
             stroke="#3380ff"
             stroke-width="10"
             fill="none" />
          <path
             id="use3857"
             d="m3018.6 487 10.97-40.942"
             stroke="#3380ff"
             stroke-width="10"
             fill="none" />
          <path
             id="use3859"
             d="m2842.7 486.93-10.97-40.942"
             stroke="#3380ff"
             stroke-width="10"
             fill="none" />
          <path
             id="use3861"
             d="m2690.3 574.82-29.972-29.972"
             stroke="#3380ff"
             stroke-width="10"
             fill="none" />
          <path
             id="use3863"
             d="m2602.3 727.13-40.942-10.97"
             stroke="#3380ff"
             stroke-width="10"
             fill="none" />
          <path
             id="use3865"
             d="m2602.2 903.05-40.942 10.97"
             stroke="#3380ff"
             stroke-width="10"
             fill="none" />
          <path
             id="use3867"
             d="m2690.1 1055.4-29.972 29.972"
             stroke="#3380ff"
             stroke-width="10"
             fill="none" />
          <path
             id="use3869"
             d="m3282.5 815.32 30.296-0.00005"
             stroke="#3380ff"
             stroke-width="6"
             fill="none" />
          <path
             id="use3871"
             d="m3235.4 639.28 26.237-15.148"
             stroke="#3380ff"
             stroke-width="6"
             fill="none" />
          <path
             id="use3873"
             d="m3106.6 510.37 15.148-26.237"
             stroke="#3380ff"
             stroke-width="6"
             fill="none" />
          <path
             id="use3875"
             d="m2930.6 463.14v-30.296"
             stroke="#3380ff"
             stroke-width="6"
             fill="none" />
          <path
             id="use3877"
             d="m2754.5 510.24-15.148-26.237"
             stroke="#3380ff"
             stroke-width="6"
             fill="none" />
          <path
             id="use3879"
             d="m2625.6 639.05-26.237-15.148"
             stroke="#3380ff"
             stroke-width="6"
             fill="none" />
          <path
             id="use3881"
             d="m2578.4 815.06-30.296 0.00005"
             stroke="#3380ff"
             stroke-width="6"
             fill="none" />
          <path
             id="use3883"
             d="m2625.5 991.1-26.237 15.148"
             stroke="#3380ff"
             stroke-width="6"
             fill="none" />
          <g
             id="text2987"
             fill="#3380ff"
             transform="translate(-144.81 -24.407)">
            <path
               id="path4175"
               d="m2857.1 1034.3c3.4667 0 6.1767 1.237 8.1298 3.7109 2.3275 2.9297 3.4912 7.7881 3.4913 14.575-0.0001 6.7708-1.1719 11.637-3.5157 14.6-1.9368 2.4414-4.6387 3.6621-8.1054 3.6621-3.4831 0-6.2907-1.3387-8.4229-4.0161s-3.1982-7.4503-3.1982-14.319c0-6.7383 1.1718-11.589 3.5156-14.551 1.9368-2.4414 4.6387-3.6621 8.1055-3.6621zm0 5.6884c-0.8301 0.0001-1.5707 0.2646-2.2217 0.7935-0.6511 0.529-1.1556 1.4771-1.5137 2.8442-0.472 1.7742-0.708 4.7608-0.708 8.96s0.2116 7.0842 0.6348 8.6548c0.4231 1.5706 0.9562 2.6164 1.5991 3.1372s1.3794 0.7813 2.2095 0.7812c0.83 0.0001 1.5706-0.2644 2.2216-0.7934 0.6511-0.529 1.1556-1.4771 1.5137-2.8442 0.472-1.7579 0.708-4.7364 0.708-8.9356s-0.2116-7.0841-0.6347-8.6548c-0.4232-1.5706-0.9563-2.6204-1.5992-3.1494-0.6429-0.5289-1.3794-0.7934-2.2094-0.7935z" />
          </g>
          <g
             id="text2991"
             fill="#3380ff"
             transform="translate(-144.81 -24.407)">
            <path
               id="path4178"
               d="m2785.1 928.12v6.3721h-24.048c0.2604-2.4089 1.0417-4.6916 2.3437-6.8482 1.3021-2.1566 3.8737-5.0171 7.7149-8.5815 3.0924-2.8808 4.9886-4.834 5.6885-5.8594 0.944-1.416 1.416-2.8157 1.416-4.1992 0-1.5299-0.411-2.7059-1.2329-3.5278-0.822-0.82191-1.9572-1.2329-3.4058-1.2329-1.4323 0.00003-2.5716 0.43135-3.418 1.294-0.8463 0.86266-1.3346 2.295-1.4648 4.2969l-6.8359-0.68359c0.4069-3.776 1.6845-6.486 3.833-8.1299 2.1484-1.6438 4.8339-2.4658 8.0566-2.4658 3.5319 0.00003 6.307 0.95218 8.3252 2.8564 2.0182 1.9043 3.0273 4.2725 3.0273 7.1045 0 1.6114-0.2889 3.1454-0.8667 4.602-0.5778 1.4567-1.4933 2.9826-2.7465 4.5776-0.8301 1.058-2.3275 2.5798-4.4922 4.5654-2.1648 1.9857-3.536 3.304-4.1138 3.9551-0.5778 0.65105-1.0457 1.2858-1.4038 1.9043z" />
            <path
               id="path4180"
               d="m2801.3 898.56c3.4668 0.00003 6.1768 1.237 8.1299 3.7109 2.3274 2.9297 3.4912 7.7881 3.4912 14.575 0 6.7708-1.1719 11.637-3.5156 14.6-1.9369 2.4414-4.6387 3.6621-8.1055 3.6621-3.4831 0-6.2907-1.3387-8.4228-4.0161-2.1322-2.6774-3.1983-7.4503-3.1983-14.319 0-6.7383 1.1719-11.589 3.5156-14.551 1.9369-2.4414 4.6387-3.6621 8.1055-3.6621zm0 5.6885c-0.8301 0.00003-1.5706 0.26452-2.2217 0.79346-0.651 0.529-1.1556 1.4771-1.5136 2.8442-0.4721 1.7741-0.7081 4.7608-0.708 8.96-0.0001 4.1992 0.2115 7.0842 0.6347 8.6548s0.9562 2.6164 1.5991 3.1372c0.6429 0.52084 1.3794 0.78126 2.2095 0.78125 0.8301 0.00001 1.5706-0.26448 2.2217-0.79346 0.651-0.52896 1.1556-1.477 1.5137-2.8442 0.472-1.7578 0.708-4.7363 0.708-8.9355s-0.2116-7.0841-0.6348-8.6548c-0.4232-1.5706-0.9562-2.6204-1.5991-3.1494-0.6429-0.52894-1.3794-0.79343-2.2095-0.79346z" />
          </g>
          <g
             id="text2995"
             fill="#3380ff"
             transform="translate(-144.81 -24.407)">
            <path
               id="path4183"
               d="m2770.1 778.56v-7.2022h-14.648v-6.0059l15.527-22.729h5.7618v22.705h4.4433v6.0303h-4.4433v7.2022zm0-13.232v-12.231l-8.2275 12.231z" />
            <path
               id="path4185"
               d="m2796.1 742.62c3.4668 0.00004 6.1767 1.237 8.1299 3.7109 2.3274 2.9297 3.4912 7.7881 3.4912 14.575 0 6.7708-1.1719 11.637-3.5156 14.6-1.9369 2.4414-4.6387 3.6621-8.1055 3.6621-3.4831 0-6.2907-1.3387-8.4229-4.0161-2.1321-2.6774-3.1982-7.4504-3.1982-14.319 0-6.7382 1.1719-11.589 3.5156-14.551 1.9369-2.4414 4.6387-3.6621 8.1055-3.6621zm0 5.6885c-0.8301 0.00003-1.5707 0.26451-2.2217 0.79346-0.651 0.529-1.1556 1.4771-1.5137 2.8442-0.472 1.7741-0.708 4.7608-0.708 8.96s0.2116 7.0842 0.6348 8.6548 0.9562 2.6164 1.5991 3.1372c0.6429 0.52084 1.3794 0.78125 2.2095 0.78125s1.5706-0.26448 2.2217-0.79346c0.651-0.52896 1.1556-1.477 1.5136-2.8442 0.472-1.7578 0.708-4.7363 0.7081-8.9355-0.0001-4.1992-0.2117-7.0841-0.6348-8.6548-0.4232-1.5706-0.9562-2.6204-1.5991-3.1494-0.643-0.52895-1.3794-0.79343-2.2095-0.79346z" />
          </g>
          <g
             id="text2999"
             fill="#3380ff"
             transform="translate(-144.81 -24.407)">
            <path
               id="path4188"
               d="m2859.6 616.89-6.6407 0.73242c-0.1627-1.3672-0.5859-2.3763-1.2695-3.0273-0.6836-0.65102-1.5706-0.97654-2.6611-0.97657-1.4486 0.00003-2.6734 0.65107-3.6743 1.9531-1.001 1.3021-1.6317 4.0121-1.8921 8.1299 1.7089-2.0182 3.833-3.0273 6.372-3.0273 2.8646 0.00002 5.3182 1.0905 7.3609 3.2715 2.0426 2.181 3.0639 4.9968 3.0639 8.4473 0 3.6621-1.0742 6.5999-3.2226 8.8135-2.1485 2.2136-4.9073 3.3203-8.2764 3.3203-3.6133 0-6.5836-1.4038-8.9111-4.2114s-3.4912-7.4097-3.4912-13.806c0-6.5592 1.2125-11.287 3.6377-14.185 2.4251-2.8971 5.5745-4.3457 9.4482-4.3457 2.7181 0.00004 4.9683 0.76094 6.7505 2.2827s2.9175 3.7313 3.4058 6.6284zm-15.552 14.966c0 2.2298 0.5127 3.951 1.5381 5.1636s2.1972 1.8188 3.5156 1.8188c1.2695 0 2.3275-0.49641 3.1738-1.4893 0.8464-0.99283 1.2696-2.6204 1.2696-4.8828 0-2.3275-0.4558-4.0324-1.3672-5.1148-0.9115-1.0823-2.0508-1.6235-3.418-1.6235-1.3184 0.00002-2.4333 0.51678-3.3447 1.5503-0.9115 1.0335-1.3672 2.5594-1.3672 4.5776z" />
            <path
               id="path4190"
               d="m2875.8 607.97c3.4668 0.00004 6.1767 1.237 8.1299 3.7109 2.3274 2.9297 3.4912 7.7881 3.4912 14.575 0 6.7708-1.1719 11.637-3.5156 14.6-1.9369 2.4414-4.6387 3.6621-8.1055 3.6621-3.4831 0-6.2907-1.3387-8.4229-4.0161-2.1321-2.6774-3.1982-7.4503-3.1982-14.319 0-6.7382 1.1719-11.589 3.5156-14.551 1.9369-2.4414 4.6387-3.6621 8.1055-3.6621zm0 5.6885c-0.8301 0.00003-1.5707 0.26452-2.2217 0.79346-0.651 0.529-1.1556 1.4771-1.5137 2.8442-0.472 1.7741-0.708 4.7608-0.708 8.96s0.2116 7.0842 0.6348 8.6548 0.9562 2.6164 1.5991 3.1372c0.6429 0.52084 1.3794 0.78125 2.2095 0.78125s1.5706-0.26448 2.2217-0.79346c0.651-0.52896 1.1555-1.477 1.5136-2.8442 0.472-1.7578 0.708-4.7363 0.708-8.9355s-0.2116-7.0841-0.6347-8.6548c-0.4232-1.5706-0.9563-2.6204-1.5991-3.1494-0.643-0.52894-1.3794-0.79343-2.2095-0.79346z" />
          </g>
          <g
             id="text3003"
             fill="#3380ff"
             transform="translate(-144.81 -24.407)">
            <path
               id="path4221"
               d="m2977.4 545.98c-1.7741-0.74868-3.064-1.7781-3.8696-3.0884-0.8057-1.3102-1.2085-2.7466-1.2085-4.3091 0-2.6692 0.9318-4.8746 2.7954-6.6162 1.8636-1.7415 4.5125-2.6123 7.9467-2.6123 3.4017 0.00004 6.0425 0.8708 7.9224 2.6123 1.8799 1.7416 2.8198 3.947 2.8198 6.6162 0 1.6602-0.4313 3.1372-1.2939 4.4312-0.8627 1.294-2.0752 2.2827-3.6377 2.9663 1.9856 0.79754 3.4952 1.9613 4.5288 3.4912 1.0335 1.53 1.5503 3.2959 1.5503 5.2978 0 3.304-1.0539 5.9896-3.1616 8.0566-2.1078 2.0671-4.9113 3.1006-8.4107 3.1006-3.2552 0-5.9651-0.85449-8.1299-2.5635-2.5553-2.0182-3.833-4.7852-3.833-8.3008 0-1.9368 0.4802-3.715 1.4405-5.3345 0.9602-1.6194 2.4739-2.8686 4.541-3.7476zm1.416-6.9092c0 1.3672 0.3865 2.4333 1.1597 3.1982 0.7731 0.76499 1.8025 1.1475 3.0883 1.1475 1.3021 0.00002 2.3438-0.38653 3.125-1.1597 0.7813-0.77309 1.1719-1.8432 1.1719-3.2104 0-1.2858-0.3866-2.3152-1.1596-3.0884-0.7732-0.77308-1.7945-1.1596-3.064-1.1597-1.3184 0.00003-2.3682 0.39065-3.1494 1.1719-0.7813 0.78128-1.1719 1.8148-1.1719 3.1006zm-0.6348 15.332c0 1.888 0.4842 3.361 1.4527 4.4189 0.9684 1.058 2.1769 1.5869 3.6255 1.5869 1.416 0 2.5878-0.50862 3.5156-1.5259 0.9277-1.0172 1.3916-2.4862 1.3916-4.4067 0-1.6764-0.472-3.0233-1.416-4.0405-0.9441-1.0172-2.1403-1.5259-3.5889-1.5259-1.6764 0.00002-2.9256 0.57782-3.7476 1.7334-0.8219 1.1556-1.2329 2.4089-1.2329 3.7598z" />
            <path
               id="path4223"
               d="m3011 529.36c3.4668 0.00004 6.1767 1.237 8.1299 3.7109 2.3274 2.9297 3.4912 7.7881 3.4912 14.575 0 6.7708-1.1719 11.637-3.5156 14.6-1.9369 2.4414-4.6387 3.6621-8.1055 3.6621-3.4831 0-6.2907-1.3387-8.4228-4.0161-2.1322-2.6774-3.1983-7.4504-3.1983-14.319 0-6.7383 1.1719-11.589 3.5156-14.551 1.9369-2.4414 4.6387-3.6621 8.1055-3.6621zm0 5.6885c-0.8301 0.00003-1.5706 0.26451-2.2217 0.79345-0.651 0.529-1.1556 1.4771-1.5136 2.8442-0.4721 1.7741-0.7081 4.7608-0.7081 8.96s0.2116 7.0842 0.6348 8.6548 0.9562 2.6164 1.5991 3.1372c0.6429 0.52084 1.3794 0.78126 2.2095 0.78125 0.8301 0.00001 1.5706-0.26448 2.2217-0.79345 0.651-0.52897 1.1556-1.477 1.5137-2.8442 0.4719-1.7578 0.7079-4.7363 0.708-8.9356-0.0001-4.1992-0.2116-7.0841-0.6348-8.6548-0.4232-1.5706-0.9562-2.6204-1.5991-3.1494-0.6429-0.52894-1.3794-0.79342-2.2095-0.79345z" />
          </g>
          <g
             id="text3007"
             fill="#3380ff"
             transform="translate(-144.81 -24.407)">
            <path
               id="path4214"
               d="m3130.7 565.31h-6.8604v-25.854c-2.5065 2.3438-5.4606 4.0772-8.8623 5.2002v-6.2256c1.7904-0.58591 3.7354-1.6968 5.835-3.3325s3.54-3.5441 4.3213-5.7251h5.5664z" />
            <path
               id="path4216"
               d="m3152.6 529.37c3.4668 0.00003 6.1767 1.237 8.1299 3.7109 2.3274 2.9297 3.4912 7.7881 3.4912 14.575 0 6.7708-1.1719 11.637-3.5156 14.6-1.9369 2.4414-4.6387 3.6621-8.1055 3.6621-3.4831 0-6.2907-1.3387-8.4229-4.0161-2.1321-2.6774-3.1982-7.4503-3.1982-14.319 0-6.7383 1.1719-11.589 3.5156-14.551 1.9369-2.4414 4.6387-3.6621 8.1055-3.6621zm0 5.6885c-0.8301 0.00003-1.5707 0.26452-2.2217 0.79346-0.651 0.529-1.1556 1.4771-1.5137 2.8442-0.472 1.7741-0.708 4.7608-0.708 8.96s0.2116 7.0842 0.6348 8.6548 0.9562 2.6164 1.5991 3.1372c0.6429 0.52084 1.3794 0.78126 2.2095 0.78125 0.8301 0.00001 1.5706-0.26448 2.2217-0.79346 0.651-0.52896 1.1555-1.477 1.5136-2.8442 0.472-1.7578 0.708-4.7363 0.708-8.9356 0-4.1992-0.2116-7.0841-0.6347-8.6548-0.4232-1.5706-0.9563-2.6204-1.5991-3.1494-0.643-0.52894-1.3794-0.79343-2.2095-0.79346z" />
            <path
               id="path4218"
               d="m3180.4 529.37c3.4668 0.00003 6.1768 1.237 8.1299 3.7109 2.3275 2.9297 3.4912 7.7881 3.4912 14.575 0 6.7708-1.1719 11.637-3.5156 14.6-1.9369 2.4414-4.6387 3.6621-8.1055 3.6621-3.4831 0-6.2907-1.3387-8.4228-4.0161-2.1322-2.6774-3.1983-7.4503-3.1983-14.319 0-6.7383 1.1719-11.589 3.5157-14.551 1.9368-2.4414 4.6386-3.6621 8.1054-3.6621zm0 5.6885c-0.8301 0.00003-1.5706 0.26452-2.2217 0.79346-0.651 0.529-1.1556 1.4771-1.5136 2.8442-0.472 1.7741-0.708 4.7608-0.708 8.96s0.2115 7.0842 0.6347 8.6548 0.9562 2.6164 1.5991 3.1372c0.6429 0.52084 1.3794 0.78126 2.2095 0.78125 0.8301 0.00001 1.5706-0.26448 2.2217-0.79346 0.651-0.52896 1.1556-1.477 1.5137-2.8442 0.472-1.7578 0.708-4.7363 0.708-8.9356 0-4.1992-0.2116-7.0841-0.6348-8.6548-0.4232-1.5706-0.9562-2.6204-1.5991-3.1494-0.6429-0.52894-1.3794-0.79343-2.2095-0.79346z" />
          </g>
          <g
             id="text3011"
             fill="#3380ff"
             transform="translate(-144.81 -24.407)">
            <path
               id="path4207"
               d="m3256.4 653.27h-6.8604v-25.854c-2.5065 2.3438-5.4606 4.0772-8.8623 5.2002v-6.2256c1.7904-0.58591 3.7354-1.6968 5.835-3.3325s3.54-3.5441 4.3213-5.7251h5.5664z" />
            <path
               id="path4209"
               d="m3289.9 646.9v6.3721h-24.048c0.2604-2.4088 1.0417-4.6916 2.3437-6.8481 1.3021-2.1566 3.8737-5.0171 7.7149-8.5816 3.0924-2.8808 4.9886-4.834 5.6885-5.8594 0.944-1.416 1.416-2.8157 1.416-4.1992 0-1.5299-0.411-2.7059-1.2329-3.5278-0.822-0.82191-1.9572-1.2329-3.4058-1.2329-1.4323 0.00003-2.5716 0.43134-3.418 1.2939-0.8463 0.86266-1.3346 2.295-1.4648 4.2969l-6.8359-0.6836c0.4069-3.776 1.6845-6.486 3.833-8.1299 2.1484-1.6438 4.8339-2.4658 8.0566-2.4658 3.5319 0.00004 6.3069 0.95218 8.3252 2.8564 2.0182 1.9043 3.0273 4.2725 3.0273 7.1045 0 1.6114-0.2889 3.1454-0.8667 4.602-0.5778 1.4567-1.4933 2.9826-2.7465 4.5776-0.8301 1.058-2.3275 2.5798-4.4922 4.5654-2.1648 1.9857-3.536 3.304-4.1138 3.9551-0.5778 0.65105-1.0457 1.2858-1.4038 1.9043z" />
            <path
               id="path4211"
               d="m3306.1 617.33c3.4668 0.00004 6.1767 1.237 8.1299 3.7109 2.3274 2.9297 3.4912 7.7881 3.4912 14.575 0 6.7708-1.1719 11.637-3.5156 14.6-1.9369 2.4414-4.6387 3.6621-8.1055 3.6621-3.4831 0-6.2907-1.3387-8.4228-4.0161-2.1322-2.6774-3.1983-7.4504-3.1983-14.319 0-6.7382 1.1719-11.589 3.5156-14.551 1.9369-2.4414 4.6387-3.6621 8.1055-3.6621zm0 5.6885c-0.8301 0.00003-1.5706 0.26451-2.2217 0.79345-0.651 0.52901-1.1556 1.4771-1.5136 2.8442-0.4721 1.7741-0.7081 4.7608-0.7081 8.96s0.2116 7.0842 0.6348 8.6548 0.9562 2.6164 1.5991 3.1372c0.6429 0.52083 1.3794 0.78125 2.2095 0.78125s1.5706-0.26448 2.2217-0.79346c0.651-0.52897 1.1556-1.477 1.5137-2.8442 0.4719-1.7578 0.7079-4.7363 0.708-8.9356-0.0001-4.1992-0.2116-7.0841-0.6348-8.6548-0.4232-1.5706-0.9562-2.6204-1.5991-3.1494-0.6429-0.52894-1.3794-0.79342-2.2095-0.79345z" />
          </g>
          <g
             id="text3015"
             fill="#3380ff"
             transform="translate(-144.81 -24.407)">
            <path
               id="path4200"
               d="m3327.3 783.61h-6.8603v-25.854c-2.5065 2.3438-5.4606 4.0772-8.8623 5.2002v-6.2256c1.7904-0.58591 3.7353-1.6968 5.835-3.3325 2.0996-1.6357 3.54-3.5441 4.3212-5.7251h5.5664z" />
            <path
               id="path4202"
               d="m3351 783.61v-7.2022h-14.648v-6.0059l15.527-22.729h5.7617v22.705h4.4434v6.0303h-4.4434v7.2022zm0-13.232v-12.231l-8.2275 12.231z" />
            <path
               id="path4204"
               d="m3377 747.67c3.4668 0.00004 6.1767 1.237 8.1299 3.7109 2.3274 2.9297 3.4911 7.7881 3.4912 14.575-0.0001 6.7708-1.1719 11.637-3.5157 14.6-1.9368 2.4414-4.6386 3.6621-8.1054 3.6621-3.4831 0-6.2907-1.3387-8.4229-4.0161-2.1321-2.6774-3.1982-7.4504-3.1982-14.319 0-6.7382 1.1719-11.589 3.5156-14.551 1.9369-2.4414 4.6387-3.6621 8.1055-3.6621zm0 5.6885c-0.8301 0.00003-1.5707 0.26451-2.2217 0.79346-0.6511 0.529-1.1556 1.4771-1.5137 2.8442-0.472 1.7741-0.708 4.7608-0.708 8.96s0.2116 7.0842 0.6348 8.6548 0.9562 2.6164 1.5991 3.1372c0.6429 0.52084 1.3794 0.78125 2.2095 0.78125 0.83 0 1.5706-0.26448 2.2217-0.79346 0.651-0.52897 1.1555-1.477 1.5136-2.8442 0.472-1.7578 0.708-4.7363 0.708-8.9356 0-4.1992-0.2116-7.0841-0.6347-8.6548-0.4232-1.5706-0.9563-2.6204-1.5991-3.1494-0.643-0.52895-1.3795-0.79343-2.2095-0.79346z" />
          </g>
          <g
             id="text3019"
             fill="#3380ff"
             transform="translate(-144.81 -24.407)">
            <path
               id="path4193"
               d="m3328.4 931.2h-6.8603v-25.854c-2.5065 2.3438-5.4606 4.0772-8.8623 5.2002v-6.2256c1.7903-0.58591 3.7353-1.6968 5.8349-3.3325s3.5401-3.5441 4.3213-5.7251h5.5664z" />
            <path
               id="path4195"
               d="m3361.9 904.17-6.6406 0.73242c-0.1628-1.3672-0.5859-2.3763-1.2695-3.0273-0.6836-0.65101-1.5707-0.97654-2.6612-0.97657-1.4485 0.00003-2.6733 0.65108-3.6743 1.9531-1.001 1.3021-1.6317 4.0121-1.8921 8.1299 1.709-2.0182 3.833-3.0273 6.3721-3.0273 2.8646 0.00002 5.3182 1.0905 7.3609 3.2715 2.0426 2.181 3.0639 4.9968 3.0639 8.4473 0 3.6621-1.0742 6.5999-3.2226 8.8135-2.1485 2.2135-4.9073 3.3203-8.2764 3.3203-3.6133 0-6.5837-1.4038-8.9111-4.2114-2.3275-2.8076-3.4913-7.4097-3.4913-13.806 0-6.5592 1.2126-11.287 3.6377-14.185 2.4252-2.8971 5.5746-4.3457 9.4483-4.3457 2.7181 0.00003 4.9682 0.76094 6.7505 2.2827 1.7822 1.5218 2.9174 3.7313 3.4057 6.6284zm-15.552 14.966c0 2.2298 0.5127 3.951 1.5381 5.1636 1.0253 1.2126 2.1972 1.8189 3.5156 1.8188 1.2695 0.00001 2.3274-0.49641 3.1738-1.4893 0.8464-0.99283 1.2695-2.6204 1.2695-4.8828 0-2.3275-0.4557-4.0324-1.3671-5.1148-0.9115-1.0823-2.0508-1.6235-3.418-1.6235-1.3184 0.00002-2.4333 0.51678-3.3447 1.5503-0.9115 1.0336-1.3672 2.5594-1.3672 4.5776z" />
            <path
               id="path4197"
               d="m3378.1 895.26c3.4667 0.00003 6.1767 1.237 8.1298 3.7109 2.3275 2.9297 3.4912 7.7881 3.4913 14.575-0.0001 6.7708-1.1719 11.637-3.5157 14.6-1.9368 2.4414-4.6387 3.6621-8.1054 3.6621-3.4831 0-6.2907-1.3387-8.4229-4.0161s-3.1982-7.4503-3.1982-14.319c0-6.7383 1.1718-11.589 3.5156-14.551 1.9368-2.4414 4.6387-3.6621 8.1055-3.6621zm0 5.6885c-0.8301 0.00003-1.5707 0.26452-2.2217 0.79346-0.6511 0.529-1.1556 1.4771-1.5137 2.8442-0.472 1.7741-0.708 4.7608-0.708 8.96s0.2116 7.0842 0.6348 8.6548c0.4231 1.5706 0.9562 2.6164 1.5991 3.1372 0.6429 0.52084 1.3794 0.78126 2.2095 0.78125 0.83 0.00001 1.5706-0.26448 2.2216-0.79346 0.6511-0.52896 1.1556-1.477 1.5137-2.8442 0.472-1.7578 0.708-4.7363 0.708-8.9356 0-4.1992-0.2116-7.0841-0.6347-8.6548-0.4232-1.5706-0.9563-2.6204-1.5992-3.1494-0.6429-0.52894-1.3794-0.79343-2.2094-0.79346z" />
          </g>
          <g
             id="text3023"
             fill="#3380ff"
             transform="translate(-144.81 -24.407)">
            <path
               id="path4226"
               d="m3261.8 1066.6h-6.8604v-25.854c-2.5065 2.3437-5.4606 4.0771-8.8623 5.2002v-6.2256c1.7904-0.5859 3.7354-1.6968 5.835-3.3325 2.0996-1.6358 3.54-3.5441 4.3213-5.7251h5.5664z" />
            <path
               id="path4228"
               d="m3278 1047.3c-1.7741-0.7486-3.064-1.7781-3.8696-3.0883-0.8057-1.3102-1.2085-2.7466-1.2085-4.3091 0-2.6693 0.9318-4.8747 2.7954-6.6162s4.5125-2.6123 7.9468-2.6123c3.4016 0 6.0424 0.8708 7.9223 2.6123s2.8198 3.9469 2.8198 6.6162c0 1.6601-0.4313 3.1372-1.2939 4.4311-0.8627 1.294-2.0752 2.2828-3.6377 2.9663 1.9857 0.7976 3.4953 1.9613 4.5288 3.4912 1.0335 1.53 1.5503 3.296 1.5503 5.2979 0 3.304-1.0539 5.9896-3.1616 8.0566-2.1078 2.0671-4.9113 3.1006-8.4107 3.1006-3.2552 0-5.9651-0.8545-8.1298-2.5635-2.5554-2.0182-3.8331-4.7851-3.8331-8.3007 0-1.9369 0.4802-3.715 1.4405-5.3345s2.4739-2.8686 4.541-3.7476zm1.416-6.9092c0 1.3673 0.3866 2.4333 1.1597 3.1983s1.8025 1.1475 3.0884 1.1475c1.302 0 2.3437-0.3866 3.125-1.1597 0.7812-0.7731 1.1718-1.8433 1.1718-3.2105 0-1.2857-0.3865-2.3152-1.1596-3.0883-0.7732-0.7731-1.7945-1.1597-3.064-1.1597-1.3184 0-2.3682 0.3906-3.1494 1.1719-0.7813 0.7812-1.1719 1.8148-1.1719 3.1005zm-0.6348 15.332c0 1.888 0.4842 3.361 1.4527 4.4189 0.9684 1.058 2.1769 1.5869 3.6255 1.5869 1.416 0 2.5878-0.5086 3.5156-1.5258 0.9277-1.0173 1.3916-2.4862 1.3916-4.4068 0-1.6764-0.472-3.0232-1.416-4.0405-0.944-1.0172-2.1403-1.5259-3.5889-1.5259-1.6764 0-2.9256 0.5778-3.7475 1.7334-0.822 1.1556-1.233 2.4089-1.233 3.7598z" />
            <path
               id="path4230"
               d="m3311.5 1030.7c3.4668 0 6.1768 1.237 8.1299 3.7109 2.3274 2.9297 3.4912 7.7881 3.4912 14.575 0 6.7708-1.1719 11.637-3.5156 14.6-1.9369 2.4414-4.6387 3.6621-8.1055 3.6621-3.4831 0-6.2907-1.3387-8.4228-4.0161-2.1322-2.6774-3.1983-7.4504-3.1983-14.319 0-6.7382 1.1719-11.588 3.5156-14.551 1.9369-2.4414 4.6387-3.6621 8.1055-3.6621zm0 5.6884c-0.8301 0.0001-1.5706 0.2645-2.2217 0.7935-0.651 0.529-1.1556 1.4771-1.5136 2.8442-0.4721 1.7741-0.7081 4.7608-0.708 8.96-0.0001 4.1992 0.2115 7.0841 0.6347 8.6548 0.4232 1.5706 0.9562 2.6164 1.5991 3.1372s1.3794 0.7812 2.2095 0.7812 1.5706-0.2645 2.2217-0.7934c0.651-0.529 1.1556-1.4771 1.5137-2.8443 0.472-1.7578 0.708-4.7363 0.708-8.9355s-0.2116-7.0841-0.6348-8.6548c-0.4232-1.5706-0.9562-2.6204-1.5991-3.1494s-1.3794-0.7934-2.2095-0.7935z" />
          </g>
        </g>
        <g
           id="g4390">
          <path
             id="path4392"
             d="m3170.7 1055.6 29.972 29.972"
             stroke="#3380ff"
             stroke-width="10"
             fill="none" />
          <path
             id="path4394"
             d="m3235.3 991.32 26.237 15.148"
             stroke="#3380ff"
             stroke-width="6"
             fill="none" />
          <path
             id="path4396"
             d="m3258.8 903.33 40.942 10.97"
             stroke="#3380ff"
             stroke-width="10"
             fill="none" />
          <path
             id="path4398"
             d="m3258.8 727.41 40.942-10.97"
             stroke="#3380ff"
             stroke-width="10"
             fill="none" />
          <path
             id="path4400"
             d="m3170.9 575.03 29.972-29.972"
             stroke="#3380ff"
             stroke-width="10"
             fill="none" />
          <path
             id="path4402"
             d="m3018.6 487 10.97-40.942"
             stroke="#3380ff"
             stroke-width="10"
             fill="none" />
          <path
             id="path4404"
             d="m2842.7 486.93-10.97-40.942"
             stroke="#3380ff"
             stroke-width="10"
             fill="none" />
          <path
             id="path4406"
             d="m2690.3 574.82-29.972-29.972"
             stroke="#3380ff"
             stroke-width="10"
             fill="none" />
          <path
             id="path4408"
             d="m2602.3 727.13-40.942-10.97"
             stroke="#3380ff"
             stroke-width="10"
             fill="none" />
          <path
             id="path4410"
             d="m2602.2 903.05-40.942 10.97"
             stroke="#3380ff"
             stroke-width="10"
             fill="none" />
          <path
             id="path4412"
             d="m2690.1 1055.4-29.972 29.972"
             stroke="#3380ff"
             stroke-width="10"
             fill="none" />
          <path
             id="path4414"
             d="m3282.5 815.32 30.296-0.00005"
             stroke="#3380ff"
             stroke-width="6"
             fill="none" />
          <path
             id="path4416"
             d="m3235.4 639.28 26.237-15.148"
             stroke="#3380ff"
             stroke-width="6"
             fill="none" />
          <path
             id="path4418"
             d="m3106.6 510.37 15.148-26.237"
             stroke="#3380ff"
             stroke-width="6"
             fill="none" />
          <path
             id="path4420"
             d="m2930.6 463.14v-30.296"
             stroke="#3380ff"
             stroke-width="6"
             fill="none" />
          <path
             id="path4422"
             d="m2754.5 510.24-15.148-26.237"
             stroke="#3380ff"
             stroke-width="6"
             fill="none" />
          <path
             id="path4424"
             d="m2625.6 639.05-26.237-15.148"
             stroke="#3380ff"
             stroke-width="6"
             fill="none" />
          <path
             id="path4426"
             d="m2578.4 815.06-30.296 0.00005"
             stroke="#3380ff"
             stroke-width="6"
             fill="none" />
          <path
             id="path4428"
             d="m2625.5 991.1-26.237 15.148"
             stroke="#3380ff"
             stroke-width="6"
             fill="none" />
          <g
             id="g4430"
             fill="#3380ff"
             transform="translate(-144.81 -24.407)">
            <path
               id="path4432"
               d="m2857.1 1034.3c3.4667 0 6.1767 1.237 8.1298 3.7109 2.3275 2.9297 3.4912 7.7881 3.4913 14.575-0.0001 6.7708-1.1719 11.637-3.5157 14.6-1.9368 2.4414-4.6387 3.6621-8.1054 3.6621-3.4831 0-6.2907-1.3387-8.4229-4.0161s-3.1982-7.4503-3.1982-14.319c0-6.7383 1.1718-11.589 3.5156-14.551 1.9368-2.4414 4.6387-3.6621 8.1055-3.6621zm0 5.6884c-0.8301 0.0001-1.5707 0.2646-2.2217 0.7935-0.6511 0.529-1.1556 1.4771-1.5137 2.8442-0.472 1.7742-0.708 4.7608-0.708 8.96s0.2116 7.0842 0.6348 8.6548c0.4231 1.5706 0.9562 2.6164 1.5991 3.1372s1.3794 0.7813 2.2095 0.7812c0.83 0.0001 1.5706-0.2644 2.2216-0.7934 0.6511-0.529 1.1556-1.4771 1.5137-2.8442 0.472-1.7579 0.708-4.7364 0.708-8.9356s-0.2116-7.0841-0.6347-8.6548c-0.4232-1.5706-0.9563-2.6204-1.5992-3.1494-0.6429-0.5289-1.3794-0.7934-2.2094-0.7935z" />
          </g>
          <g
             id="g4434"
             fill="#3380ff"
             transform="translate(-144.81 -24.407)">
            <path
               id="path4436"
               d="m2785.1 928.12v6.3721h-24.048c0.2604-2.4089 1.0417-4.6916 2.3437-6.8482 1.3021-2.1566 3.8737-5.0171 7.7149-8.5815 3.0924-2.8808 4.9886-4.834 5.6885-5.8594 0.944-1.416 1.416-2.8157 1.416-4.1992 0-1.5299-0.411-2.7059-1.2329-3.5278-0.822-0.82191-1.9572-1.2329-3.4058-1.2329-1.4323 0.00003-2.5716 0.43135-3.418 1.294-0.8463 0.86266-1.3346 2.295-1.4648 4.2969l-6.8359-0.68359c0.4069-3.776 1.6845-6.486 3.833-8.1299 2.1484-1.6438 4.8339-2.4658 8.0566-2.4658 3.5319 0.00003 6.307 0.95218 8.3252 2.8564 2.0182 1.9043 3.0273 4.2725 3.0273 7.1045 0 1.6114-0.2889 3.1454-0.8667 4.602-0.5778 1.4567-1.4933 2.9826-2.7465 4.5776-0.8301 1.058-2.3275 2.5798-4.4922 4.5654-2.1648 1.9857-3.536 3.304-4.1138 3.9551-0.5778 0.65105-1.0457 1.2858-1.4038 1.9043z" />
            <path
               id="path4438"
               d="m2801.3 898.56c3.4668 0.00003 6.1768 1.237 8.1299 3.7109 2.3274 2.9297 3.4912 7.7881 3.4912 14.575 0 6.7708-1.1719 11.637-3.5156 14.6-1.9369 2.4414-4.6387 3.6621-8.1055 3.6621-3.4831 0-6.2907-1.3387-8.4228-4.0161-2.1322-2.6774-3.1983-7.4503-3.1983-14.319 0-6.7383 1.1719-11.589 3.5156-14.551 1.9369-2.4414 4.6387-3.6621 8.1055-3.6621zm0 5.6885c-0.8301 0.00003-1.5706 0.26452-2.2217 0.79346-0.651 0.529-1.1556 1.4771-1.5136 2.8442-0.4721 1.7741-0.7081 4.7608-0.708 8.96-0.0001 4.1992 0.2115 7.0842 0.6347 8.6548s0.9562 2.6164 1.5991 3.1372c0.6429 0.52084 1.3794 0.78126 2.2095 0.78125 0.8301 0.00001 1.5706-0.26448 2.2217-0.79346 0.651-0.52896 1.1556-1.477 1.5137-2.8442 0.472-1.7578 0.708-4.7363 0.708-8.9355s-0.2116-7.0841-0.6348-8.6548c-0.4232-1.5706-0.9562-2.6204-1.5991-3.1494-0.6429-0.52894-1.3794-0.79343-2.2095-0.79346z" />
          </g>
          <g
             id="g4440"
             fill="#3380ff"
             transform="translate(-144.81 -24.407)">
            <path
               id="path4442"
               d="m2770.1 778.56v-7.2022h-14.648v-6.0059l15.527-22.729h5.7618v22.705h4.4433v6.0303h-4.4433v7.2022zm0-13.232v-12.231l-8.2275 12.231z" />
            <path
               id="path4444"
               d="m2796.1 742.62c3.4668 0.00004 6.1767 1.237 8.1299 3.7109 2.3274 2.9297 3.4912 7.7881 3.4912 14.575 0 6.7708-1.1719 11.637-3.5156 14.6-1.9369 2.4414-4.6387 3.6621-8.1055 3.6621-3.4831 0-6.2907-1.3387-8.4229-4.0161-2.1321-2.6774-3.1982-7.4504-3.1982-14.319 0-6.7382 1.1719-11.589 3.5156-14.551 1.9369-2.4414 4.6387-3.6621 8.1055-3.6621zm0 5.6885c-0.8301 0.00003-1.5707 0.26451-2.2217 0.79346-0.651 0.529-1.1556 1.4771-1.5137 2.8442-0.472 1.7741-0.708 4.7608-0.708 8.96s0.2116 7.0842 0.6348 8.6548 0.9562 2.6164 1.5991 3.1372c0.6429 0.52084 1.3794 0.78125 2.2095 0.78125s1.5706-0.26448 2.2217-0.79346c0.651-0.52896 1.1556-1.477 1.5136-2.8442 0.472-1.7578 0.708-4.7363 0.7081-8.9355-0.0001-4.1992-0.2117-7.0841-0.6348-8.6548-0.4232-1.5706-0.9562-2.6204-1.5991-3.1494-0.643-0.52895-1.3794-0.79343-2.2095-0.79346z" />
          </g>
          <g
             id="g4446"
             fill="#3380ff"
             transform="translate(-144.81 -24.407)">
            <path
               id="path4448"
               d="m2859.6 616.89-6.6407 0.73242c-0.1627-1.3672-0.5859-2.3763-1.2695-3.0273-0.6836-0.65102-1.5706-0.97654-2.6611-0.97657-1.4486 0.00003-2.6734 0.65107-3.6743 1.9531-1.001 1.3021-1.6317 4.0121-1.8921 8.1299 1.7089-2.0182 3.833-3.0273 6.372-3.0273 2.8646 0.00002 5.3182 1.0905 7.3609 3.2715 2.0426 2.181 3.0639 4.9968 3.0639 8.4473 0 3.6621-1.0742 6.5999-3.2226 8.8135-2.1485 2.2136-4.9073 3.3203-8.2764 3.3203-3.6133 0-6.5836-1.4038-8.9111-4.2114s-3.4912-7.4097-3.4912-13.806c0-6.5592 1.2125-11.287 3.6377-14.185 2.4251-2.8971 5.5745-4.3457 9.4482-4.3457 2.7181 0.00004 4.9683 0.76094 6.7505 2.2827s2.9175 3.7313 3.4058 6.6284zm-15.552 14.966c0 2.2298 0.5127 3.951 1.5381 5.1636s2.1972 1.8188 3.5156 1.8188c1.2695 0 2.3275-0.49641 3.1738-1.4893 0.8464-0.99283 1.2696-2.6204 1.2696-4.8828 0-2.3275-0.4558-4.0324-1.3672-5.1148-0.9115-1.0823-2.0508-1.6235-3.418-1.6235-1.3184 0.00002-2.4333 0.51678-3.3447 1.5503-0.9115 1.0335-1.3672 2.5594-1.3672 4.5776z" />
            <path
               id="path4450"
               d="m2875.8 607.97c3.4668 0.00004 6.1767 1.237 8.1299 3.7109 2.3274 2.9297 3.4912 7.7881 3.4912 14.575 0 6.7708-1.1719 11.637-3.5156 14.6-1.9369 2.4414-4.6387 3.6621-8.1055 3.6621-3.4831 0-6.2907-1.3387-8.4229-4.0161-2.1321-2.6774-3.1982-7.4503-3.1982-14.319 0-6.7382 1.1719-11.589 3.5156-14.551 1.9369-2.4414 4.6387-3.6621 8.1055-3.6621zm0 5.6885c-0.8301 0.00003-1.5707 0.26452-2.2217 0.79346-0.651 0.529-1.1556 1.4771-1.5137 2.8442-0.472 1.7741-0.708 4.7608-0.708 8.96s0.2116 7.0842 0.6348 8.6548 0.9562 2.6164 1.5991 3.1372c0.6429 0.52084 1.3794 0.78125 2.2095 0.78125s1.5706-0.26448 2.2217-0.79346c0.651-0.52896 1.1555-1.477 1.5136-2.8442 0.472-1.7578 0.708-4.7363 0.708-8.9355s-0.2116-7.0841-0.6347-8.6548c-0.4232-1.5706-0.9563-2.6204-1.5991-3.1494-0.643-0.52894-1.3794-0.79343-2.2095-0.79346z" />
          </g>
          <g
             id="g4452"
             fill="#3380ff"
             transform="translate(-144.81 -24.407)">
            <path
               id="path4454"
               d="m2977.4 545.98c-1.7741-0.74868-3.064-1.7781-3.8696-3.0884-0.8057-1.3102-1.2085-2.7466-1.2085-4.3091 0-2.6692 0.9318-4.8746 2.7954-6.6162 1.8636-1.7415 4.5125-2.6123 7.9467-2.6123 3.4017 0.00004 6.0425 0.8708 7.9224 2.6123 1.8799 1.7416 2.8198 3.947 2.8198 6.6162 0 1.6602-0.4313 3.1372-1.2939 4.4312-0.8627 1.294-2.0752 2.2827-3.6377 2.9663 1.9856 0.79754 3.4952 1.9613 4.5288 3.4912 1.0335 1.53 1.5503 3.2959 1.5503 5.2978 0 3.304-1.0539 5.9896-3.1616 8.0566-2.1078 2.0671-4.9113 3.1006-8.4107 3.1006-3.2552 0-5.9651-0.85449-8.1299-2.5635-2.5553-2.0182-3.833-4.7852-3.833-8.3008 0-1.9368 0.4802-3.715 1.4405-5.3345 0.9602-1.6194 2.4739-2.8686 4.541-3.7476zm1.416-6.9092c0 1.3672 0.3865 2.4333 1.1597 3.1982 0.7731 0.76499 1.8025 1.1475 3.0883 1.1475 1.3021 0.00002 2.3438-0.38653 3.125-1.1597 0.7813-0.77309 1.1719-1.8432 1.1719-3.2104 0-1.2858-0.3866-2.3152-1.1596-3.0884-0.7732-0.77308-1.7945-1.1596-3.064-1.1597-1.3184 0.00003-2.3682 0.39065-3.1494 1.1719-0.7813 0.78128-1.1719 1.8148-1.1719 3.1006zm-0.6348 15.332c0 1.888 0.4842 3.361 1.4527 4.4189 0.9684 1.058 2.1769 1.5869 3.6255 1.5869 1.416 0 2.5878-0.50862 3.5156-1.5259 0.9277-1.0172 1.3916-2.4862 1.3916-4.4067 0-1.6764-0.472-3.0233-1.416-4.0405-0.9441-1.0172-2.1403-1.5259-3.5889-1.5259-1.6764 0.00002-2.9256 0.57782-3.7476 1.7334-0.8219 1.1556-1.2329 2.4089-1.2329 3.7598z" />
            <path
               id="path4456"
               d="m3011 529.36c3.4668 0.00004 6.1767 1.237 8.1299 3.7109 2.3274 2.9297 3.4912 7.7881 3.4912 14.575 0 6.7708-1.1719 11.637-3.5156 14.6-1.9369 2.4414-4.6387 3.6621-8.1055 3.6621-3.4831 0-6.2907-1.3387-8.4228-4.0161-2.1322-2.6774-3.1983-7.4504-3.1983-14.319 0-6.7383 1.1719-11.589 3.5156-14.551 1.9369-2.4414 4.6387-3.6621 8.1055-3.6621zm0 5.6885c-0.8301 0.00003-1.5706 0.26451-2.2217 0.79345-0.651 0.529-1.1556 1.4771-1.5136 2.8442-0.4721 1.7741-0.7081 4.7608-0.7081 8.96s0.2116 7.0842 0.6348 8.6548 0.9562 2.6164 1.5991 3.1372c0.6429 0.52084 1.3794 0.78126 2.2095 0.78125 0.8301 0.00001 1.5706-0.26448 2.2217-0.79345 0.651-0.52897 1.1556-1.477 1.5137-2.8442 0.4719-1.7578 0.7079-4.7363 0.708-8.9356-0.0001-4.1992-0.2116-7.0841-0.6348-8.6548-0.4232-1.5706-0.9562-2.6204-1.5991-3.1494-0.6429-0.52894-1.3794-0.79342-2.2095-0.79345z" />
          </g>
          <g
             id="g4458"
             fill="#3380ff"
             transform="translate(-144.81 -24.407)">
            <path
               id="path4460"
               d="m3130.7 565.31h-6.8604v-25.854c-2.5065 2.3438-5.4606 4.0772-8.8623 5.2002v-6.2256c1.7904-0.58591 3.7354-1.6968 5.835-3.3325s3.54-3.5441 4.3213-5.7251h5.5664z" />
            <path
               id="path4462"
               d="m3152.6 529.37c3.4668 0.00003 6.1767 1.237 8.1299 3.7109 2.3274 2.9297 3.4912 7.7881 3.4912 14.575 0 6.7708-1.1719 11.637-3.5156 14.6-1.9369 2.4414-4.6387 3.6621-8.1055 3.6621-3.4831 0-6.2907-1.3387-8.4229-4.0161-2.1321-2.6774-3.1982-7.4503-3.1982-14.319 0-6.7383 1.1719-11.589 3.5156-14.551 1.9369-2.4414 4.6387-3.6621 8.1055-3.6621zm0 5.6885c-0.8301 0.00003-1.5707 0.26452-2.2217 0.79346-0.651 0.529-1.1556 1.4771-1.5137 2.8442-0.472 1.7741-0.708 4.7608-0.708 8.96s0.2116 7.0842 0.6348 8.6548 0.9562 2.6164 1.5991 3.1372c0.6429 0.52084 1.3794 0.78126 2.2095 0.78125 0.8301 0.00001 1.5706-0.26448 2.2217-0.79346 0.651-0.52896 1.1555-1.477 1.5136-2.8442 0.472-1.7578 0.708-4.7363 0.708-8.9356 0-4.1992-0.2116-7.0841-0.6347-8.6548-0.4232-1.5706-0.9563-2.6204-1.5991-3.1494-0.643-0.52894-1.3794-0.79343-2.2095-0.79346z" />
            <path
               id="path4464"
               d="m3180.4 529.37c3.4668 0.00003 6.1768 1.237 8.1299 3.7109 2.3275 2.9297 3.4912 7.7881 3.4912 14.575 0 6.7708-1.1719 11.637-3.5156 14.6-1.9369 2.4414-4.6387 3.6621-8.1055 3.6621-3.4831 0-6.2907-1.3387-8.4228-4.0161-2.1322-2.6774-3.1983-7.4503-3.1983-14.319 0-6.7383 1.1719-11.589 3.5157-14.551 1.9368-2.4414 4.6386-3.6621 8.1054-3.6621zm0 5.6885c-0.8301 0.00003-1.5706 0.26452-2.2217 0.79346-0.651 0.529-1.1556 1.4771-1.5136 2.8442-0.472 1.7741-0.708 4.7608-0.708 8.96s0.2115 7.0842 0.6347 8.6548 0.9562 2.6164 1.5991 3.1372c0.6429 0.52084 1.3794 0.78126 2.2095 0.78125 0.8301 0.00001 1.5706-0.26448 2.2217-0.79346 0.651-0.52896 1.1556-1.477 1.5137-2.8442 0.472-1.7578 0.708-4.7363 0.708-8.9356 0-4.1992-0.2116-7.0841-0.6348-8.6548-0.4232-1.5706-0.9562-2.6204-1.5991-3.1494-0.6429-0.52894-1.3794-0.79343-2.2095-0.79346z" />
          </g>
          <g
             id="g4466"
             fill="#3380ff"
             transform="translate(-144.81 -24.407)">
            <path
               id="path4468"
               d="m3256.4 653.27h-6.8604v-25.854c-2.5065 2.3438-5.4606 4.0772-8.8623 5.2002v-6.2256c1.7904-0.58591 3.7354-1.6968 5.835-3.3325s3.54-3.5441 4.3213-5.7251h5.5664z" />
            <path
               id="path4470"
               d="m3289.9 646.9v6.3721h-24.048c0.2604-2.4088 1.0417-4.6916 2.3437-6.8481 1.3021-2.1566 3.8737-5.0171 7.7149-8.5816 3.0924-2.8808 4.9886-4.834 5.6885-5.8594 0.944-1.416 1.416-2.8157 1.416-4.1992 0-1.5299-0.411-2.7059-1.2329-3.5278-0.822-0.82191-1.9572-1.2329-3.4058-1.2329-1.4323 0.00003-2.5716 0.43134-3.418 1.2939-0.8463 0.86266-1.3346 2.295-1.4648 4.2969l-6.8359-0.6836c0.4069-3.776 1.6845-6.486 3.833-8.1299 2.1484-1.6438 4.8339-2.4658 8.0566-2.4658 3.5319 0.00004 6.3069 0.95218 8.3252 2.8564 2.0182 1.9043 3.0273 4.2725 3.0273 7.1045 0 1.6114-0.2889 3.1454-0.8667 4.602-0.5778 1.4567-1.4933 2.9826-2.7465 4.5776-0.8301 1.058-2.3275 2.5798-4.4922 4.5654-2.1648 1.9857-3.536 3.304-4.1138 3.9551-0.5778 0.65105-1.0457 1.2858-1.4038 1.9043z" />
            <path
               id="path4472"
               d="m3306.1 617.33c3.4668 0.00004 6.1767 1.237 8.1299 3.7109 2.3274 2.9297 3.4912 7.7881 3.4912 14.575 0 6.7708-1.1719 11.637-3.5156 14.6-1.9369 2.4414-4.6387 3.6621-8.1055 3.6621-3.4831 0-6.2907-1.3387-8.4228-4.0161-2.1322-2.6774-3.1983-7.4504-3.1983-14.319 0-6.7382 1.1719-11.589 3.5156-14.551 1.9369-2.4414 4.6387-3.6621 8.1055-3.6621zm0 5.6885c-0.8301 0.00003-1.5706 0.26451-2.2217 0.79345-0.651 0.52901-1.1556 1.4771-1.5136 2.8442-0.4721 1.7741-0.7081 4.7608-0.7081 8.96s0.2116 7.0842 0.6348 8.6548 0.9562 2.6164 1.5991 3.1372c0.6429 0.52083 1.3794 0.78125 2.2095 0.78125s1.5706-0.26448 2.2217-0.79346c0.651-0.52897 1.1556-1.477 1.5137-2.8442 0.4719-1.7578 0.7079-4.7363 0.708-8.9356-0.0001-4.1992-0.2116-7.0841-0.6348-8.6548-0.4232-1.5706-0.9562-2.6204-1.5991-3.1494-0.6429-0.52894-1.3794-0.79342-2.2095-0.79345z" />
          </g>
          <g
             id="g4474"
             fill="#3380ff"
             transform="translate(-144.81 -24.407)">
            <path
               id="path4476"
               d="m3327.3 783.61h-6.8603v-25.854c-2.5065 2.3438-5.4606 4.0772-8.8623 5.2002v-6.2256c1.7904-0.58591 3.7353-1.6968 5.835-3.3325 2.0996-1.6357 3.54-3.5441 4.3212-5.7251h5.5664z" />
            <path
               id="path4478"
               d="m3351 783.61v-7.2022h-14.648v-6.0059l15.527-22.729h5.7617v22.705h4.4434v6.0303h-4.4434v7.2022zm0-13.232v-12.231l-8.2275 12.231z" />
            <path
               id="path4480"
               d="m3377 747.67c3.4668 0.00004 6.1767 1.237 8.1299 3.7109 2.3274 2.9297 3.4911 7.7881 3.4912 14.575-0.0001 6.7708-1.1719 11.637-3.5157 14.6-1.9368 2.4414-4.6386 3.6621-8.1054 3.6621-3.4831 0-6.2907-1.3387-8.4229-4.0161-2.1321-2.6774-3.1982-7.4504-3.1982-14.319 0-6.7382 1.1719-11.589 3.5156-14.551 1.9369-2.4414 4.6387-3.6621 8.1055-3.6621zm0 5.6885c-0.8301 0.00003-1.5707 0.26451-2.2217 0.79346-0.6511 0.529-1.1556 1.4771-1.5137 2.8442-0.472 1.7741-0.708 4.7608-0.708 8.96s0.2116 7.0842 0.6348 8.6548 0.9562 2.6164 1.5991 3.1372c0.6429 0.52084 1.3794 0.78125 2.2095 0.78125 0.83 0 1.5706-0.26448 2.2217-0.79346 0.651-0.52897 1.1555-1.477 1.5136-2.8442 0.472-1.7578 0.708-4.7363 0.708-8.9356 0-4.1992-0.2116-7.0841-0.6347-8.6548-0.4232-1.5706-0.9563-2.6204-1.5991-3.1494-0.643-0.52895-1.3795-0.79343-2.2095-0.79346z" />
          </g>
          <g
             id="g4482"
             fill="#3380ff"
             transform="translate(-144.81 -24.407)">
            <path
               id="path4484"
               d="m3328.4 931.2h-6.8603v-25.854c-2.5065 2.3438-5.4606 4.0772-8.8623 5.2002v-6.2256c1.7903-0.58591 3.7353-1.6968 5.8349-3.3325s3.5401-3.5441 4.3213-5.7251h5.5664z" />
            <path
               id="path4486"
               d="m3361.9 904.17-6.6406 0.73242c-0.1628-1.3672-0.5859-2.3763-1.2695-3.0273-0.6836-0.65101-1.5707-0.97654-2.6612-0.97657-1.4485 0.00003-2.6733 0.65108-3.6743 1.9531-1.001 1.3021-1.6317 4.0121-1.8921 8.1299 1.709-2.0182 3.833-3.0273 6.3721-3.0273 2.8646 0.00002 5.3182 1.0905 7.3609 3.2715 2.0426 2.181 3.0639 4.9968 3.0639 8.4473 0 3.6621-1.0742 6.5999-3.2226 8.8135-2.1485 2.2135-4.9073 3.3203-8.2764 3.3203-3.6133 0-6.5837-1.4038-8.9111-4.2114-2.3275-2.8076-3.4913-7.4097-3.4913-13.806 0-6.5592 1.2126-11.287 3.6377-14.185 2.4252-2.8971 5.5746-4.3457 9.4483-4.3457 2.7181 0.00003 4.9682 0.76094 6.7505 2.2827 1.7822 1.5218 2.9174 3.7313 3.4057 6.6284zm-15.552 14.966c0 2.2298 0.5127 3.951 1.5381 5.1636 1.0253 1.2126 2.1972 1.8189 3.5156 1.8188 1.2695 0.00001 2.3274-0.49641 3.1738-1.4893 0.8464-0.99283 1.2695-2.6204 1.2695-4.8828 0-2.3275-0.4557-4.0324-1.3671-5.1148-0.9115-1.0823-2.0508-1.6235-3.418-1.6235-1.3184 0.00002-2.4333 0.51678-3.3447 1.5503-0.9115 1.0336-1.3672 2.5594-1.3672 4.5776z" />
            <path
               id="path4488"
               d="m3378.1 895.26c3.4667 0.00003 6.1767 1.237 8.1298 3.7109 2.3275 2.9297 3.4912 7.7881 3.4913 14.575-0.0001 6.7708-1.1719 11.637-3.5157 14.6-1.9368 2.4414-4.6387 3.6621-8.1054 3.6621-3.4831 0-6.2907-1.3387-8.4229-4.0161s-3.1982-7.4503-3.1982-14.319c0-6.7383 1.1718-11.589 3.5156-14.551 1.9368-2.4414 4.6387-3.6621 8.1055-3.6621zm0 5.6885c-0.8301 0.00003-1.5707 0.26452-2.2217 0.79346-0.6511 0.529-1.1556 1.4771-1.5137 2.8442-0.472 1.7741-0.708 4.7608-0.708 8.96s0.2116 7.0842 0.6348 8.6548c0.4231 1.5706 0.9562 2.6164 1.5991 3.1372 0.6429 0.52084 1.3794 0.78126 2.2095 0.78125 0.83 0.00001 1.5706-0.26448 2.2216-0.79346 0.6511-0.52896 1.1556-1.477 1.5137-2.8442 0.472-1.7578 0.708-4.7363 0.708-8.9356 0-4.1992-0.2116-7.0841-0.6347-8.6548-0.4232-1.5706-0.9563-2.6204-1.5992-3.1494-0.6429-0.52894-1.3794-0.79343-2.2094-0.79346z" />
          </g>
          <g
             id="g4490"
             fill="#3380ff"
             transform="translate(-144.81 -24.407)">
            <path
               id="path4492"
               d="m3261.8 1066.6h-6.8604v-25.854c-2.5065 2.3437-5.4606 4.0771-8.8623 5.2002v-6.2256c1.7904-0.5859 3.7354-1.6968 5.835-3.3325 2.0996-1.6358 3.54-3.5441 4.3213-5.7251h5.5664z" />
            <path
               id="path4494"
               d="m3278 1047.3c-1.7741-0.7486-3.064-1.7781-3.8696-3.0883-0.8057-1.3102-1.2085-2.7466-1.2085-4.3091 0-2.6693 0.9318-4.8747 2.7954-6.6162s4.5125-2.6123 7.9468-2.6123c3.4016 0 6.0424 0.8708 7.9223 2.6123s2.8198 3.9469 2.8198 6.6162c0 1.6601-0.4313 3.1372-1.2939 4.4311-0.8627 1.294-2.0752 2.2828-3.6377 2.9663 1.9857 0.7976 3.4953 1.9613 4.5288 3.4912 1.0335 1.53 1.5503 3.296 1.5503 5.2979 0 3.304-1.0539 5.9896-3.1616 8.0566-2.1078 2.0671-4.9113 3.1006-8.4107 3.1006-3.2552 0-5.9651-0.8545-8.1298-2.5635-2.5554-2.0182-3.8331-4.7851-3.8331-8.3007 0-1.9369 0.4802-3.715 1.4405-5.3345s2.4739-2.8686 4.541-3.7476zm1.416-6.9092c0 1.3673 0.3866 2.4333 1.1597 3.1983s1.8025 1.1475 3.0884 1.1475c1.302 0 2.3437-0.3866 3.125-1.1597 0.7812-0.7731 1.1718-1.8433 1.1718-3.2105 0-1.2857-0.3865-2.3152-1.1596-3.0883-0.7732-0.7731-1.7945-1.1597-3.064-1.1597-1.3184 0-2.3682 0.3906-3.1494 1.1719-0.7813 0.7812-1.1719 1.8148-1.1719 3.1005zm-0.6348 15.332c0 1.888 0.4842 3.361 1.4527 4.4189 0.9684 1.058 2.1769 1.5869 3.6255 1.5869 1.416 0 2.5878-0.5086 3.5156-1.5258 0.9277-1.0173 1.3916-2.4862 1.3916-4.4068 0-1.6764-0.472-3.0232-1.416-4.0405-0.944-1.0172-2.1403-1.5259-3.5889-1.5259-1.6764 0-2.9256 0.5778-3.7475 1.7334-0.822 1.1556-1.233 2.4089-1.233 3.7598z" />
            <path
               id="path4496"
               d="m3311.5 1030.7c3.4668 0 6.1768 1.237 8.1299 3.7109 2.3274 2.9297 3.4912 7.7881 3.4912 14.575 0 6.7708-1.1719 11.637-3.5156 14.6-1.9369 2.4414-4.6387 3.6621-8.1055 3.6621-3.4831 0-6.2907-1.3387-8.4228-4.0161-2.1322-2.6774-3.1983-7.4504-3.1983-14.319 0-6.7382 1.1719-11.588 3.5156-14.551 1.9369-2.4414 4.6387-3.6621 8.1055-3.6621zm0 5.6884c-0.8301 0.0001-1.5706 0.2645-2.2217 0.7935-0.651 0.529-1.1556 1.4771-1.5136 2.8442-0.4721 1.7741-0.7081 4.7608-0.708 8.96-0.0001 4.1992 0.2115 7.0841 0.6347 8.6548 0.4232 1.5706 0.9562 2.6164 1.5991 3.1372s1.3794 0.7812 2.2095 0.7812 1.5706-0.2645 2.2217-0.7934c0.651-0.529 1.1556-1.4771 1.5137-2.8443 0.472-1.7578 0.708-4.7363 0.708-8.9355s-0.2116-7.0841-0.6348-8.6548c-0.4232-1.5706-0.9562-2.6204-1.5991-3.1494s-1.3794-0.7934-2.2095-0.7935z" />
          </g>
        </g>
      </g>
      <path
         id="path4053"
         opacity="0"
         d="m637.83 763.32-11.77-17.58 284.05-184.1c6.2068-3.1421 11.579 5.5235 6.2033 9.2682z" />
      <g
         id="g5065"
         fill="#0080ff">
        <g
           id="g5051"
           filter="url(#filter5061)"
           transform="translate(9.443 -66.246)">
          <path
             id="path5053"
             d="m591.66 1091.3v-21.475h4.1162v11.396l4.8193-5.4785h5.0684l-5.3174 5.6836 5.6982 9.873h-4.4385l-3.9111-6.9873-1.9189 2.0069v4.9804z" />
          <path
             id="path5055"
             d="m608.2 1075.8h3.794v2.124c1.3574-1.6504 2.9736-2.4756 4.8486-2.4756 0.99608 0 1.8603 0.2051 2.5928 0.6153 0.73241 0.4101 1.333 1.0302 1.8018 1.8603 0.68358-0.8301 1.4209-1.4502 2.2119-1.8603 0.79099-0.4102 1.6357-0.6153 2.5342-0.6153 1.1426 0 2.1094 0.232 2.9004 0.6958 0.79099 0.4639 1.3818 1.1451 1.7725 2.0435 0.28318 0.6641 0.42478 1.7383 0.4248 3.2226v9.9463h-4.1162v-8.8916c-0.00002-1.5429-0.14162-2.539-0.4248-2.9883-0.38088-0.5859-0.96682-0.8789-1.7578-0.8789-0.57619 0-1.1182 0.1758-1.626 0.5274-0.50783 0.3515-0.87404 0.8667-1.0986 1.5454-0.22463 0.6787-0.33693 1.7505-0.33692 3.2153v7.4707h-4.1162v-8.5254c-0.00001-1.5136-0.0733-2.4902-0.21973-2.9297-0.14649-0.4394-0.37354-0.7665-0.68115-0.9814-0.30763-0.2148-0.72511-0.3223-1.2524-0.3223-0.63477 0-1.2061 0.1709-1.7139 0.5127-0.50782 0.3418-0.87159 0.835-1.0913 1.4795-0.21973 0.6446-0.32959 1.7139-0.32959 3.208v7.5586h-4.1162z" />
          <path
             id="path5057"
             d="m632.97 1091.7 5.3174-22.207h3.0908l-5.376 22.207z" />
          <path
             id="path5059"
             d="m647.59 1069.8v7.8955c1.3281-1.5527 2.915-2.3291 4.7607-2.3291 0.94726 0 1.8018 0.1758 2.5635 0.5274 0.7617 0.3515 1.3354 0.8008 1.7212 1.3476 0.38573 0.5469 0.6494 1.1524 0.79102 1.8164 0.14158 0.6641 0.21238 1.6944 0.2124 3.0908v9.126h-4.1162v-8.2178c-0.00001-1.6308-0.0781-2.666-0.23438-3.1054-0.15626-0.4395-0.43214-0.7886-0.82763-1.0474-0.39552-0.2588-0.89113-0.3882-1.4868-0.3882-0.6836 0-1.294 0.1661-1.831 0.4981-0.53712 0.332-0.93019 0.8325-1.1792 1.5014-0.24903 0.669-0.37354 1.6578-0.37354 2.9664v7.7929h-4.1162v-21.475z" />
        </g>
        <g
           id="text5038"
           transform="translate(9.443 -66.246)">
          <path
             id="path5043"
             d="m591.66 1091.3v-21.475h4.1162v11.396l4.8193-5.4785h5.0684l-5.3174 5.6836 5.6982 9.873h-4.4385l-3.9111-6.9873-1.9189 2.0069v4.9804z" />
          <path
             id="path5045"
             d="m608.2 1075.8h3.794v2.124c1.3574-1.6504 2.9736-2.4756 4.8486-2.4756 0.99608 0 1.8603 0.2051 2.5928 0.6153 0.73241 0.4101 1.333 1.0302 1.8018 1.8603 0.68358-0.8301 1.4209-1.4502 2.2119-1.8603 0.79099-0.4102 1.6357-0.6153 2.5342-0.6153 1.1426 0 2.1094 0.232 2.9004 0.6958 0.79099 0.4639 1.3818 1.1451 1.7725 2.0435 0.28318 0.6641 0.42478 1.7383 0.4248 3.2226v9.9463h-4.1162v-8.8916c-0.00002-1.5429-0.14162-2.539-0.4248-2.9883-0.38088-0.5859-0.96682-0.8789-1.7578-0.8789-0.57619 0-1.1182 0.1758-1.626 0.5274-0.50783 0.3515-0.87404 0.8667-1.0986 1.5454-0.22463 0.6787-0.33693 1.7505-0.33692 3.2153v7.4707h-4.1162v-8.5254c-0.00001-1.5136-0.0733-2.4902-0.21973-2.9297-0.14649-0.4394-0.37354-0.7665-0.68115-0.9814-0.30763-0.2148-0.72511-0.3223-1.2524-0.3223-0.63477 0-1.2061 0.1709-1.7139 0.5127-0.50782 0.3418-0.87159 0.835-1.0913 1.4795-0.21973 0.6446-0.32959 1.7139-0.32959 3.208v7.5586h-4.1162z" />
          <path
             id="path5047"
             d="m632.97 1091.7 5.3174-22.207h3.0908l-5.376 22.207z" />
          <path
             id="path5049"
             d="m647.59 1069.8v7.8955c1.3281-1.5527 2.915-2.3291 4.7607-2.3291 0.94726 0 1.8018 0.1758 2.5635 0.5274 0.7617 0.3515 1.3354 0.8008 1.7212 1.3476 0.38573 0.5469 0.6494 1.1524 0.79102 1.8164 0.14158 0.6641 0.21238 1.6944 0.2124 3.0908v9.126h-4.1162v-8.2178c-0.00001-1.6308-0.0781-2.666-0.23438-3.1054-0.15626-0.4395-0.43214-0.7886-0.82763-1.0474-0.39552-0.2588-0.89113-0.3882-1.4868-0.3882-0.6836 0-1.294 0.1661-1.831 0.4981-0.53712 0.332-0.93019 0.8325-1.1792 1.5014-0.24903 0.669-0.37354 1.6578-0.37354 2.9664v7.7929h-4.1162v-21.475z" />
        </g>
      </g>
      <g
         id="g5277">
        <path
           id="path4405"
           filter="url(#filter5077)"
           d="m2017.6 860.75c0 211.18-171.19 382.37-382.37 382.37s-382.37-171.19-382.37-382.37 171.19-382.37 382.37-382.37 382.37 171.19 382.37 382.37z"
           fill="#0080ff"
           transform="matrix(.12005 0 0 .12005 437.64 647.42)" />
        <g
           id="g4073"
           filter="url(#filter4125)"
           clip-path="url(#clipPath3227)"
           fill="#f33"
           transform="matrix(.99635 .085413 -.085413 .99635 -2360 -338.41)">
          <path
             id="path4059"
             d="m2427.1 560.95c15.037-8.5075 31.124-15.007 47.851-19.333l49.499 191.4z"
             transform="matrix(1.7391 0 0 1.7391 -1317.3 -431.41)"
             fill-opacity=".1" />
          <path
             id="path4061"
             d="m2475 541.62c16.168-4.1812 32.8-6.297 49.499-6.297v197.69z"
             transform="matrix(1.7391 0 0 1.7391 -1317.3 -431.41)"
             fill-opacity=".2" />
          <path
             id="path4063"
             d="m2524.5 535.32c17.277 0 34.479 2.2647 51.167 6.7363l-51.167 190.96z"
             transform="matrix(1.7391 0 0 1.7391 -1317.3 -431.41)"
             fill-opacity=".3" />
          <path
             id="path4065"
             d="m2575.6 542.06c16.688 4.4716 32.718 11.111 47.68 19.75l-98.848 171.21z"
             transform="matrix(1.7391 0 0 1.7391 -1317.3 -431.41)"
             fill-opacity=".4" />
          <path
             id="path4067"
             d="m2623.3 561.81c14.962 8.6384 28.727 19.201 40.944 31.417l-139.79 139.79z"
             transform="matrix(1.7391 0 0 1.7391 -1317.3 -431.41)"
             fill-opacity=".5" />
          <path
             id="path4069"
             d="m2664.3 593.23c11.748 11.748 21.968 24.929 30.418 39.233l-170.21 100.56z"
             transform="matrix(1.7391 0 0 1.7391 -1317.3 -431.41)"
             fill-opacity=".6" />
        </g>
        <g
           id="g4037"
           transform="matrix(.99997 -.0077589 .0077589 .99997 -2447.8 -64.968)">
          <path
             id="path4023"
             filter="url(#filter4025)"
             d="m3078.4 852.52-10.663-18.268 294.82-166.3c6.3881-2.7547 11.217 6.2246 5.6221 9.6318z"
             fill="#ff3433" />
          <path
             id="rect3887"
             d="m3078.4 852.52-10.663-18.268 294.82-166.3c6.3881-2.7547 11.217 6.2246 5.6221 9.6318z"
             fill="url(#radialGradient4298)" />
        </g>
        <path
           id="path4129"
           d="m2017.6 860.75c0 211.18-171.19 382.37-382.37 382.37s-382.37-171.19-382.37-382.37 171.19-382.37 382.37-382.37 382.37 171.19 382.37 382.37z"
           transform="matrix(.10521 0 0 .10521 461.91 660.2)" />
      </g>
    </g>
  </g>
  <metadata
     id="metadata326">
    <rdf:RDF>
      <cc:Work>
        <dc:format>image/svg+xml</dc:format>
        <dc:type
           rdf:resource="http://purl.org/dc/dcmitype/StillImage" />
        <cc:license
           rdf:resource="http://creativecommons.org/licenses/publicdomain/" />
        <dc:publisher>
          <cc:Agent
             rdf:about="http://openclipart.org/">
            <dc:title>Openclipart</dc:title>
          </cc:Agent>
        </dc:publisher>
        <dc:title></dc:title>
        <dc:date>2013-09-08T16:49:44</dc:date>
        <dc:description>A pair of meters - km/h and mph.</dc:description>
        <dc:source>http://openclipart.org/detail/183217/speedometers-by-gustavorezende-183217</dc:source>
        <dc:creator>
          <cc:Agent>
            <dc:title>gustavorezende</dc:title>
          </cc:Agent>
        </dc:creator>
        <dc:subject>
          <rdf:Bag>
            <rdf:li>car</rdf:li>
            <rdf:li>fast</rdf:li>
            <rdf:li>gauge</rdf:li>
            <rdf:li>measurement</rdf:li>
            <rdf:li>pointer</rdf:li>
            <rdf:li>speedometers</rdf:li>
            <rdf:li>tool</rdf:li>
            <rdf:li>vehicle</rdf:li>
            <rdf:li>velocity</rdf:li>
          </rdf:Bag>
        </dc:subject>
      </cc:Work>
      <cc:License
         rdf:about="http://creativecommons.org/licenses/publicdomain/">
        <cc:permits
           rdf:resource="http://creativecommons.org/ns#Reproduction" />
        <cc:permits
           rdf:resource="http://creativecommons.org/ns#Distribution" />
        <cc:permits
           rdf:resource="http://creativecommons.org/ns#DerivativeWorks" />
      </cc:License>
    </rdf:RDF>
  </metadata>
</svg>
